<?xml version="1.0" encoding="utf-8"?>
<!-- Generator: Adobe Illustrator 16.0.0, SVG Export Plug-In . SVG Version: 6.00 Build 0)  -->
<!DOCTYPE svg PUBLIC "-//W3C//DTD SVG 1.1//EN" "http://www.w3.org/Graphics/SVG/1.1/DTD/svg11.dtd">
<svg version="1.1" id="Ebene_1" xmlns="http://www.w3.org/2000/svg" xmlns:xlink="http://www.w3.org/1999/xlink" x="0px" y="0px"
	 width="100px" height="100px" viewBox="0 0 100 100" enable-background="new 0 0 100 100" xml:space="preserve">
<circle fill="#B2B2B2" cx="108.855" cy="1784.053" r="50"/>
<polygon fill="#231F20" points="138.195,1773.602 119.305,1773.602 119.305,1754.711 98.404,1754.711 98.404,1773.602 
	79.516,1773.602 79.516,1794.502 98.404,1794.502 98.404,1813.393 119.305,1813.393 119.305,1794.502 138.195,1794.502 "/>
<circle fill="#B2B2B2" cx="50" cy="50" r="50"/>
<g>
	<path fill-rule="evenodd" clip-rule="evenodd" fill="#231F20" d="M41.58,56.403c-0.192-2.953-2.669-5.266-5.64-5.267
		c-3.461-0.002-6.924-0.002-10.385,0c-3.116,0.001-5.653,2.526-5.658,5.642c-0.005,3.975-0.001,7.948-0.001,11.923
		c0,0.112,0,0.224,0,0.377c0.171,0,0.304,0,0.437,0c6.943,0,13.889,0,20.834-0.001c0.443,0,0.443,0,0.444-0.438
		c0-3.766,0.001-7.53-0.001-11.296C41.61,57.03,41.601,56.716,41.58,56.403z"/>
	<path fill-rule="evenodd" clip-rule="evenodd" fill="#231F20" d="M58.118,49.383c0-4.048-0.003-8.096,0.006-12.145
		c0-0.286-0.079-0.372-0.37-0.37c-1.526,0.015-3.054,0.007-4.581,0.007c-0.429,0-0.43,0-0.43,0.423c0,4.038,0,8.075-0.001,12.113
		c0,0.142-0.014,0.283-0.022,0.46c-0.811,0-1.59,0-2.373,0c0,2.718,0,5.4,0,8.124c0.802,0,1.581,0,2.396,0c0,0.174,0,0.308,0,0.441
		c0,2.469,0.004,4.938-0.006,7.406c-0.001,0.274,0.075,0.356,0.354,0.354c1.538-0.013,3.075-0.006,4.613-0.006
		c0.412,0,0.414-0.001,0.414-0.407c0-2.458-0.001-4.916,0.001-7.374c0-0.131,0.016-0.262,0.026-0.433c0.811,0,1.588,0,2.367,0
		c0-2.725,0-5.406,0-8.124c-0.804,0-1.583,0-2.395,0C58.118,49.672,58.118,49.527,58.118,49.383z"/>
	<path fill-rule="evenodd" clip-rule="evenodd" fill="#231F20" d="M73.368,54.965c0-0.122-0.015-0.243-0.024-0.386
		c-0.805,0-1.577,0-2.408,0c0-0.188,0-0.331,0-0.475c0-5.617-0.002-11.233,0.006-16.851c0.001-0.299-0.077-0.389-0.382-0.386
		c-1.537,0.015-3.075,0.007-4.612,0.008c-0.111,0-0.222,0.011-0.365,0.018c0,5.904,0,11.777,0,17.681
		c-0.733,0-1.432,0.008-2.13-0.004c-0.229-0.004-0.31,0.059-0.309,0.299c0.007,2.521,0.008,5.041,0,7.562
		c-0.001,0.244,0.09,0.302,0.312,0.298c0.597-0.011,1.192-0.005,1.789-0.003c0.109,0.001,0.219,0.016,0.359,0.026
		c0,1.16,0,2.284,0,3.411c0.072,0.012,0.112,0.024,0.153,0.024c1.642,0.002,3.284-0.001,4.926,0.007
		c0.222,0.001,0.257-0.1,0.255-0.286c-0.005-0.932-0.002-1.862-0.002-2.793c0-0.121,0-0.241,0-0.391c0.721,0,1.39-0.015,2.057,0.007
		c0.31,0.01,0.385-0.097,0.384-0.394C73.365,59.881,73.37,57.423,73.368,54.965z"/>
	<path fill-rule="evenodd" clip-rule="evenodd" fill="#231F20" d="M83.76,41.064c0-0.149,0-0.272,0-0.396
		c0-1.16-0.007-2.321,0.005-3.482c0.003-0.25-0.078-0.317-0.321-0.316c-1.569,0.01-3.138,0.013-4.706-0.002
		c-0.289-0.003-0.347,0.098-0.344,0.361c0.013,1.15,0.006,2.301,0.006,3.451c0,0.121,0,0.243,0,0.392c-0.814,0-1.584,0-2.383,0
		c0,2.73,0,5.412,0,8.137c0.801,0,1.579,0,2.383,0c0,0.177,0,0.312,0,0.446c0,5.386,0.002,10.771-0.007,16.157
		c0,0.302,0.082,0.389,0.384,0.385c1.401-0.016,2.803-0.007,4.204-0.007c0.779,0,0.779,0,0.779-0.79
		c0-5.271,0.002-10.542-0.006-15.812c0-0.293,0.064-0.436,0.378-0.388c0.092,0.014,0.188,0.002,0.282,0.002c0.582,0,1.164,0,1.753,0
		c0-2.731,0-5.421,0-8.138C85.359,41.064,84.579,41.064,83.76,41.064z"/>
	<path fill-rule="evenodd" clip-rule="evenodd" fill="#231F20" d="M30.807,47.974c3.052-0.021,6.064-2.397,6.11-6.316
		c0.499,0,0.999-0.002,1.498,0.001c0.141,0.001,0.246-0.013,0.246-0.194c-0.001-1.013,0.115-2.039-0.014-3.034
		c-0.541-4.131-4.227-7.068-8.355-6.643c-3.219,0.332-5.416,2.09-6.568,5.106c-0.257,0.673-0.353,1.407-0.535,2.169
		c-0.469,0-0.996,0-1.523,0c0,0.885,0,1.725,0,2.604c0.99,0,1.955,0,2.92,0C24.53,45.174,27.323,47.997,30.807,47.974z"/>
	<path fill-rule="evenodd" clip-rule="evenodd" fill="#231F20" d="M17.743,40.598c-0.715,0-1.397,0-2.113,0
		c0,5.71,0,11.394,0,17.115c-0.614,0-1.197,0.007-1.779-0.004c-0.215-0.005-0.29,0.062-0.289,0.284
		c0.005,3.598,0.006,7.194-0.002,10.791c0,0.241,0.084,0.3,0.311,0.298c1.16-0.01,2.32-0.004,3.481-0.005
		c0.408,0,0.409,0,0.409-0.411c0-9.233,0-18.467,0-27.699C17.761,40.844,17.749,40.722,17.743,40.598z"/>
</g>
</svg>
