<?xml version="1.0" encoding="utf-8"?>
<!-- Generator: Adobe Illustrator 16.0.0, SVG Export Plug-In . SVG Version: 6.00 Build 0)  -->
<!DOCTYPE svg PUBLIC "-//W3C//DTD SVG 1.1//EN" "http://www.w3.org/Graphics/SVG/1.1/DTD/svg11.dtd">
<svg version="1.1" id="Ebene_1" xmlns="http://www.w3.org/2000/svg" xmlns:xlink="http://www.w3.org/1999/xlink" x="0px" y="0px"
	 width="100px" height="100px" viewBox="0 0 100 100" enable-background="new 0 0 100 100" xml:space="preserve">
<circle fill="#B2B2B2" cx="108.855" cy="1784.053" r="50"/>
<polygon fill="#231F20" points="138.195,1773.602 119.305,1773.602 119.305,1754.711 98.404,1754.711 98.404,1773.602 
	79.516,1773.602 79.516,1794.502 98.404,1794.502 98.404,1813.393 119.305,1813.393 119.305,1794.502 138.195,1794.502 "/>
<circle fill="#B2B2B2" cx="50" cy="50" r="50"/>
<g>
	<path fill-rule="evenodd" clip-rule="evenodd" fill="#231F20" d="M36.766,49.466c-3.52-0.004-7.039-0.002-10.559,0
		c-3.008,0.001-5.562,2.554-5.566,5.57c-0.006,3.958-0.002,7.916-0.002,11.874c0,0.135,0.012,0.271,0.02,0.425
		c7.219,0,14.404,0,21.629,0c0.008-0.08,0.02-0.136,0.02-0.19c-0.002-4.108,0.035-8.217-0.02-12.324
		C42.248,51.918,39.664,49.468,36.766,49.466z"/>
	<path fill-rule="evenodd" clip-rule="evenodd" fill="#231F20" d="M75.499,38.791c1.219,0.769,2.365,1.491,3.541,2.231
		c-2.938,3.99-5.846,7.941-8.771,11.916c-2.256-2.178-4.475-4.321-6.717-6.487c-0.119,0.146-0.213,0.261-0.303,0.376
		c-2.357,2.989-4.715,5.979-7.072,8.968c-1.936,2.454-3.873,4.907-5.806,7.365c-0.654,0.834-0.754,1.753-0.268,2.69
		c0.799,1.54,2.913,1.748,4.007,0.381c2.09-2.612,4.15-5.248,6.223-7.875c1.221-1.548,2.443-3.097,3.703-4.695
		c2.295,2.218,4.561,4.406,6.85,6.618c4.109-5.581,8.188-11.121,12.273-16.671c1.332,0.834,2.625,1.646,3.977,2.493
		c0.172-4.604,0.34-9.128,0.512-13.731C83.563,34.529,79.56,36.645,75.499,38.791z"/>
	<path fill-rule="evenodd" clip-rule="evenodd" fill="#231F20" d="M23.15,40.008c0.711,0,1.424,0,2.156,0
		c0.047,3.83,3.031,6.267,6.107,6.305c3.211,0.039,6.295-2.622,6.215-6.285c0.111-0.007,0.223-0.019,0.336-0.019
		c0.381-0.003,0.762,0.013,1.141-0.012c0.094-0.006,0.256-0.135,0.258-0.209c0.021-0.99,0.121-1.993,0.004-2.969
		c-0.49-4.072-4.125-6.993-8.24-6.691c-3.127,0.229-5.834,2.365-6.758,5.363c-0.188,0.611-0.279,1.253-0.426,1.93
		c-0.492,0-1.016,0-1.529,0c-0.021,0.077-0.037,0.109-0.037,0.143c-0.004,0.554-0.006,1.107-0.008,1.661
		C22.369,40.008,22.369,40.008,23.15,40.008z"/>
	<path fill-rule="evenodd" clip-rule="evenodd" fill="#231F20" d="M16.377,56.058c-0.705,0-1.367,0-2.025,0c0,3.783,0,7.525,0,11.28
		c1.395,0,2.76,0,4.133,0c0-9.485,0-18.929,0-28.39c-0.721,0-1.393,0-2.107,0C16.377,44.658,16.377,50.338,16.377,56.058z"/>
</g>
</svg>
