<?xml version="1.0" encoding="utf-8"?>
<!-- Generator: Adobe Illustrator 16.0.0, SVG Export Plug-In . SVG Version: 6.00 Build 0)  -->
<!DOCTYPE svg PUBLIC "-//W3C//DTD SVG 1.1//EN" "http://www.w3.org/Graphics/SVG/1.1/DTD/svg11.dtd">
<svg version="1.1" id="Ebene_1" xmlns="http://www.w3.org/2000/svg" xmlns:xlink="http://www.w3.org/1999/xlink" x="0px" y="0px"
	 width="100px" height="100px" viewBox="0 0 100 100" enable-background="new 0 0 100 100" xml:space="preserve">
<circle fill="#B2B2B2" cx="108.855" cy="1784.053" r="50"/>
<polygon fill="#231F20" points="138.195,1773.602 119.305,1773.602 119.305,1754.711 98.404,1754.711 98.404,1773.602 
	79.516,1773.602 79.516,1794.502 98.404,1794.502 98.404,1813.393 119.305,1813.393 119.305,1794.502 138.195,1794.502 "/>
<circle fill="#B2B2B2" cx="50.198" cy="50" r="50"/>
<path fill-rule="evenodd" clip-rule="evenodd" fill="#231F20" d="M60.498,39.566c6.332,0,12.574,0,18.842,0
	c0,6.993,0,13.922,0,20.92c-6.258,0-12.512,0-18.826,0c0,6.309,0,12.548,0,18.833c-7.014,0-13.968,0-20.981,0
	c0-6.262,0-12.502,0-18.801c-6.299,0-12.539,0-18.831,0c-0.012-0.241-0.029-0.428-0.029-0.614
	c-0.002-6.583,0.004-13.166-0.013-19.749c-0.001-0.494,0.15-0.617,0.625-0.616c5.811,0.015,11.621,0.01,17.432,0.01
	c0.242,0,0.485,0,0.811,0c0-0.274,0-0.495,0-0.716c0-5.829,0.009-11.657-0.014-17.485c-0.002-0.552,0.167-0.667,0.684-0.666
	c6.548,0.016,13.096,0.017,19.644-0.001c0.538-0.002,0.672,0.149,0.67,0.679c-0.02,5.811-0.012,11.621-0.012,17.431
	C60.498,39.016,60.498,39.24,60.498,39.566z"/>
</svg>
