<?xml version="1.0" encoding="utf-8"?>
<!-- Generator: Adobe Illustrator 16.0.0, SVG Export Plug-In . SVG Version: 6.00 Build 0)  -->
<!DOCTYPE svg PUBLIC "-//W3C//DTD SVG 1.1//EN" "http://www.w3.org/Graphics/SVG/1.1/DTD/svg11.dtd">
<svg version="1.1" id="Ebene_1" xmlns="http://www.w3.org/2000/svg" xmlns:xlink="http://www.w3.org/1999/xlink" x="0px" y="0px"
	 width="100px" height="100px" viewBox="0 0 100 100" enable-background="new 0 0 100 100" xml:space="preserve">
<circle fill="#B2B2B2" cx="50" cy="50" r="50"/>
<g>
	<path fill="#231F20" d="M55.514,53.258c-2.596,0-4.977,0.909-6.85,2.421c-2.071-5.312-7.225-9.081-13.268-9.081
		c-7.87,0-14.25,6.38-14.25,14.25c0,7.869,6.38,14.249,14.25,14.249h20.117c6.03,0,10.919-4.889,10.919-10.919
		C66.433,58.146,61.544,53.258,55.514,53.258z"/>
	<path fill="#231F20" d="M75.356,29.974c-1.976,0-3.787,0.692-5.214,1.843c-1.576-4.043-5.498-6.912-10.1-6.912
		c-5.99,0-10.846,4.856-10.846,10.847s4.855,10.847,10.846,10.847h15.313c4.591,0,8.312-3.722,8.312-8.312
		C83.668,33.695,79.947,29.974,75.356,29.974z"/>
</g>
</svg>
