<?xml version="1.0" encoding="utf-8"?>
<!-- Generator: Adobe Illustrator 16.0.0, SVG Export Plug-In . SVG Version: 6.00 Build 0)  -->
<!DOCTYPE svg PUBLIC "-//W3C//DTD SVG 1.1//EN" "http://www.w3.org/Graphics/SVG/1.1/DTD/svg11.dtd">
<svg version="1.1" id="Ebene_1" xmlns="http://www.w3.org/2000/svg" xmlns:xlink="http://www.w3.org/1999/xlink" x="0px" y="0px"
	 width="100px" height="100px" viewBox="0 0 100 100" enable-background="new 0 0 100 100" xml:space="preserve">
<circle fill="#B2B2B2" cx="50" cy="50" r="50"/>
<g>
	<path fill="#231F20" d="M40.695,60.423c-2.137-2.279-4.254-4.577-6.385-6.861c-0.502-0.539-1.004-1.078-1.504-1.617
		c-1.287-1.383-3.453-1.461-4.837-0.174c-0.724,0.674-1.091,1.589-1.091,2.506c0,0.835,0.304,1.672,0.918,2.33
		c0,0,5.068,5.449,5.059,5.449l0.064,0.068c0.582,0.619,0.553,1.594-0.066,2.176c-0.619,0.584-1.594,0.555-2.176-0.064l-5.297-5.625
		c-0.133-0.143-0.232-0.303-0.301-0.473l-0.214-0.213V40.353c0-1.891-1.532-3.422-3.422-3.422c-1.891,0-3.422,1.531-3.422,3.422
		v18.99c0,0.907,0.36,1.777,1.001,2.419l10.073,10.073v9.455h15.38V67.241c0.201-1.546-0.189-2.977-1.236-4.076
		C42.381,62.263,41.549,61.332,40.695,60.423z"/>
	<path fill="#231F20" d="M78.556,36.931c-1.89,0-3.422,1.531-3.422,3.422v17.572l-0.214,0.213c-0.069,0.17-0.168,0.33-0.301,0.473
		l-5.297,5.625c-0.582,0.619-1.557,0.648-2.176,0.064c-0.619-0.582-0.648-1.557-0.066-2.176l0.064-0.068
		c-0.01,0,5.059-5.449,5.059-5.449c0.614-0.658,0.918-1.495,0.918-2.33c0-0.917-0.367-1.832-1.091-2.506
		c-1.384-1.287-3.55-1.209-4.837,0.174c-0.501,0.539-1.002,1.078-1.504,1.617c-2.131,2.284-4.248,4.582-6.386,6.861
		c-0.853,0.909-1.686,1.84-2.545,2.742c-1.046,1.1-1.438,2.53-1.235,4.076V81.29h15.379v-9.455l10.073-10.073
		c0.642-0.642,1.002-1.512,1.002-2.419v-18.99C81.978,38.462,80.445,36.931,78.556,36.931z"/>
	<path fill="#231F20" d="M65.833,34.466c3.33-2.139,4.296-6.572,2.157-9.902s-6.572-4.296-9.902-2.157c0,0-3.62,1.667-8.089,10.756
		c-4.469-9.089-8.089-10.756-8.089-10.756c-3.33-2.139-7.764-1.173-9.902,2.157s-1.173,7.764,2.157,9.902l-0.001,0.001
		c0,0,3.242,2.761,14.171,2.895v15.229h3.329V37.361C62.593,37.227,65.834,34.467,65.833,34.466L65.833,34.466z"/>
</g>
</svg>
