<?xml version="1.0" encoding="utf-8"?>
<!-- Generator: Adobe Illustrator 16.0.0, SVG Export Plug-In . SVG Version: 6.00 Build 0)  -->
<!DOCTYPE svg PUBLIC "-//W3C//DTD SVG 1.1//EN" "http://www.w3.org/Graphics/SVG/1.1/DTD/svg11.dtd">
<svg version="1.1" id="Ebene_1" xmlns="http://www.w3.org/2000/svg" xmlns:xlink="http://www.w3.org/1999/xlink" x="0px" y="0px"
	 width="100px" height="100px" viewBox="0 0 100 100" enable-background="new 0 0 100 100" xml:space="preserve">
<circle fill="#B2B2B2" cx="50" cy="50" r="50"/>
<g>
	<path fill="#231F20" d="M80.5,47.781c-1.543,2.606-4.376,4.36-7.625,4.36s-6.082-1.754-7.625-4.36
		c-1.543,2.606-4.376,4.36-7.625,4.36s-6.082-1.754-7.625-4.36c-1.543,2.606-4.376,4.36-7.625,4.36s-6.082-1.754-7.625-4.36
		c-1.543,2.606-4.376,4.36-7.625,4.36s-6.082-1.754-7.625-4.36c-1.328,2.243-3.612,3.846-6.296,4.25
		C14.245,71.452,30.319,86.88,50,86.88s35.755-15.428,36.796-34.849C84.112,51.627,81.828,50.024,80.5,47.781z"/>
	<path fill="#231F20" d="M60.171,27.76c0.234-2.474-1.583-4.67-4.057-4.905c-2.476-0.233-4.672,1.583-4.904,4.058l-0.002-0.001
		c0,0-0.752,3.146,3.51,10.708C60.318,30.989,60.171,27.76,60.171,27.76z"/>
	<path fill="#231F20" d="M37.349,37.228c0,0,1.892,2.623,10.402,4.33c-1.366-8.57-3.909-10.566-3.909-10.566
		c-1.722-1.792-4.571-1.849-6.364-0.129c-1.793,1.724-1.851,4.573-0.127,6.364L37.349,37.228z"/>
</g>
</svg>
