<?xml version="1.0" encoding="utf-8"?>
<!-- Generator: Adobe Illustrator 16.0.0, SVG Export Plug-In . SVG Version: 6.00 Build 0)  -->
<!DOCTYPE svg PUBLIC "-//W3C//DTD SVG 1.1//EN" "http://www.w3.org/Graphics/SVG/1.1/DTD/svg11.dtd">
<svg version="1.1" id="Ebene_1" xmlns="http://www.w3.org/2000/svg" xmlns:xlink="http://www.w3.org/1999/xlink" x="0px" y="0px"
	 width="100px" height="100px" viewBox="0 0 100 100" enable-background="new 0 0 100 100" xml:space="preserve">
<circle fill="#B2B2B2" cx="108.855" cy="1784.052" r="50"/>
<polygon fill="#231F20" points="138.195,1773.602 119.305,1773.602 119.305,1754.711 98.404,1754.711 98.404,1773.602 
	79.516,1773.602 79.516,1794.502 98.404,1794.502 98.404,1813.392 119.305,1813.392 119.305,1794.502 138.195,1794.502 "/>
<circle fill="#B2B2B2" cx="50" cy="50" r="50"/>
<g>
	<path fill-rule="evenodd" clip-rule="evenodd" d="M81.228,36.683c-0.022-1.243-0.475-2.354-1.299-3.302
		c-1.488-1.711-3.486-2.505-5.603-3.029c-3.365-0.835-6.789-0.982-10.239-0.722c-3.46,0.261-6.864,0.754-10.083,2.163
		c-1.76,0.771-3.635,1.066-5.515,0.627c-1.434-0.335-2.802-0.94-4.214-1.377c-5.328-1.648-10.769-2.185-16.307-1.507
		c-2.08,0.255-4.1,0.782-5.926,1.883c-2.219,1.338-3.355,3.281-3.268,5.89c0.101,2.978,0.933,5.765,2.364,8.358
		c2.645,4.793,6.31,8.451,11.731,9.926c4.277,1.163,8.283,0.631,11.742-2.416c0.66-0.582,1.346-1.155,2.092-1.615
		c2.251-1.387,4.533-1.347,6.748,0.087c0.776,0.503,1.492,1.108,2.193,1.716c2.228,1.935,4.828,2.794,7.762,2.847
		c1.078-0.146,2.172-0.225,3.234-0.448C75.195,53.965,81.385,45.144,81.228,36.683z M43.857,45.096
		c-1.73,1.553-3.84,2.076-6.09,2.14c-2.305-0.056-4.437-0.582-6.182-2.158c-2.267-2.047-2.27-4.885,0.023-6.909
		c2.104-1.856,4.646-2.332,7.354-2.059c1.811,0.184,3.482,0.787,4.866,2.025C46.135,40.198,46.156,43.034,43.857,45.096z
		 M68.385,45.108c-2.108,1.849-4.648,2.316-7.357,2.04c-1.545-0.158-2.984-0.65-4.267-1.557c-3.09-2.186-3.063-5.837,0.062-7.971
		c1.51-1.031,3.405-1.579,6.092-1.578c1.638,0.04,3.746,0.562,5.48,2.111C70.701,40.213,70.712,43.067,68.385,45.108z"/>
	<path fill-rule="evenodd" clip-rule="evenodd" d="M76.779,52.117c-1.342,1.007-2.621,1.998-3.938,2.936
		c-0.359,0.255-0.524,0.48-0.521,0.937c0.023,3.113,0.012,6.228,0.012,9.342c0,3.578-0.002,7.157,0.002,10.735
		c0.002,1.057,0.521,1.863,1.393,2.214c1.526,0.613,3.049-0.503,3.051-2.255c0.006-7.088,0.002-14.176,0.002-21.264
		C76.779,53.88,76.779,52.999,76.779,52.117z"/>
</g>
</svg>
