<?xml version="1.0" encoding="utf-8"?>
<!-- Generator: Adobe Illustrator 16.0.0, SVG Export Plug-In . SVG Version: 6.00 Build 0)  -->
<!DOCTYPE svg PUBLIC "-//W3C//DTD SVG 1.1//EN" "http://www.w3.org/Graphics/SVG/1.1/DTD/svg11.dtd">
<svg version="1.1" id="Ebene_1" xmlns="http://www.w3.org/2000/svg" xmlns:xlink="http://www.w3.org/1999/xlink" x="0px" y="0px"
	 width="100px" height="100px" viewBox="0 0 100 100" enable-background="new 0 0 100 100" xml:space="preserve">
<circle fill="#B2B2B2" cx="50" cy="50" r="50"/>
<g>
	<path fill="#231F20" d="M76.438,54.725c-0.002-2.164-0.791-4.029-2.303-5.569c-1.603-1.632-3.585-2.4-5.859-2.405
		c-4.357-0.008-8.715-0.004-13.071,0c-0.679,0-1.356,0-2.034,0.042c-4.159,0.26-7.455,3.781-7.455,7.963
		c0,8.32,0.003,16.643,0.005,24.963c0,0.174,0,0.348,0,0.557c10.272,0,20.475,0,30.721,0c0-0.172,0-0.317,0-0.465
		C76.439,71.447,76.443,63.086,76.438,54.725z"/>
	<path fill="#231F20" d="M41.635,29.675c0-0.536-0.001-0.537-0.523-0.537c-5.686,0-11.37,0-17.056,0c-0.158,0-0.315,0-0.495,0
		c0,8.018,0,15.978,0,23.993c0.181,0.01,0.327,0.021,0.474,0.021c5.699,0,11.397-0.004,17.097,0.011
		c0.424,0.001,0.514-0.129,0.513-0.53C41.632,44.98,41.635,37.327,41.635,29.675z M30.669,33.255c0-0.078,0.021-0.156,0.035-0.253
		c1.245,0,2.473,0,3.729,0c0,3.363,0,6.708,0,10.073c-0.092,0.016-0.183,0.042-0.273,0.042c-1.045,0.003-2.09-0.004-3.135,0.006
		c-0.255,0.003-0.362-0.066-0.362-0.343C30.67,39.605,30.667,36.431,30.669,33.255z M34.437,49.272c-0.435,0-0.851,0-1.266,0
		c-0.72,0-1.438-0.001-2.157,0.001c-0.189,0-0.351-0.005-0.349-0.27c0.009-1.221,0.008-2.442,0.013-3.663
		c0-0.037,0.028-0.073,0.048-0.12c1.229,0,2.458,0,3.711,0C34.437,46.565,34.437,47.888,34.437,49.272z"/>
	<path fill="#231F20" d="M61.002,42.267c4.91,0.001,8.76-3.817,8.76-8.689c0-4.77-3.839-8.628-8.521-8.698
		c-4.698-0.07-8.837,3.676-8.858,8.662C52.361,38.351,56.244,42.265,61.002,42.267z"/>
</g>
</svg>
