<?xml version="1.0" encoding="utf-8"?>
<!-- Generator: Adobe Illustrator 16.0.0, SVG Export Plug-In . SVG Version: 6.00 Build 0)  -->
<!DOCTYPE svg PUBLIC "-//W3C//DTD SVG 1.1//EN" "http://www.w3.org/Graphics/SVG/1.1/DTD/svg11.dtd">
<svg version="1.1" id="Ebene_1" xmlns="http://www.w3.org/2000/svg" xmlns:xlink="http://www.w3.org/1999/xlink" x="0px" y="0px"
	 width="100px" height="100px" viewBox="0 0 100 100" enable-background="new 0 0 100 100" xml:space="preserve">
<circle fill="#B2B2B2" cx="108.855" cy="1784.053" r="50"/>
<polygon fill="#231F20" points="138.195,1773.602 119.305,1773.602 119.305,1754.711 98.404,1754.711 98.404,1773.602 
	79.516,1773.602 79.516,1794.502 98.404,1794.502 98.404,1813.393 119.305,1813.393 119.305,1794.502 138.195,1794.502 "/>
<circle fill="#B2B2B2" cx="50" cy="50" r="50"/>
<g>
	<path fill-rule="evenodd" clip-rule="evenodd" fill="#231F20" d="M53.219,54.445c0-9.464,0-18.928,0-28.392
		c0-0.509-0.002-0.51-0.516-0.51c-2.258,0-4.516,0-6.775,0c-0.611,0-0.611,0-0.611,0.615c0,9.425,0,18.85,0,28.275
		c0,0.191,0,0.383,0,0.623c-1.207,0-2.359,0-3.529,0c0,4.52,0,8.99,0,13.516c1.176,0,2.328,0,3.537,0c0,1.951,0,3.852,0,5.758
		c2.654,0,5.256,0,7.908,0c0-1.932,0-3.828,0-5.779c1.203,0,2.355,0,3.506,0c0-4.525,0-8.994,0-13.512c-1.186,0-2.34,0-3.52,0
		C53.219,54.809,53.219,54.627,53.219,54.445z"/>
	<path fill-rule="evenodd" clip-rule="evenodd" fill="#231F20" d="M77.59,32.551c-0.875,0-1.75-0.017-2.625,0.008
		c-0.359,0.01-0.465-0.098-0.461-0.459c0.016-2.036,0-4.073,0.014-6.109c0.002-0.33-0.076-0.458-0.434-0.455
		c-2.35,0.015-4.701,0.015-7.051,0c-0.355-0.002-0.434,0.118-0.432,0.451c0.014,2.023,0.008,4.047,0.008,6.07
		c0,0.151,0,0.302,0,0.507c-1.213,0-2.365,0-3.525,0c0,4.527,0,8.998,0,13.523c1.18,0,2.334,0,3.525,0c0,0.234,0,0.414,0,0.595
		c0,9.048,0,18.095,0,27.142c0,0.541,0,0.541,0.557,0.543c2.258,0,4.516,0,6.775,0c0.568,0,0.568-0.002,0.568-0.574
		c0-8.969,0-17.938,0-26.906c0-0.803,0-0.803,0.809-0.803c0.896,0,1.795,0,2.717,0c0-4.546,0-9.018,0-13.533
		C77.869,32.551,77.73,32.551,77.59,32.551z"/>
	<path fill-rule="evenodd" clip-rule="evenodd" fill="#231F20" d="M35.041,47.159c-0.6,0.027-1.201,0.007-1.803,0.007
		c-0.426,0-0.852,0-1.326,0c0-7.229,0-14.4,0-21.591c-2.637,0-5.227,0-7.85,0c0,7.195,0,14.358,0,21.591
		c-1.076,0-2.092,0.019-3.107-0.009c-0.402-0.011-0.5,0.111-0.5,0.505c0.016,4.178,0.01,8.355,0.01,12.533
		c0,0.066,0.006,0.131,0,0.195c-0.025,0.234,0.072,0.33,0.312,0.32c0.365-0.014,0.73-0.002,1.096-0.002c0.715,0,1.43,0,2.189,0
		c0,4.568,0,9.09,0,13.629c2.637,0,5.227,0,7.863,0c0-4.551,0-9.072,0-13.629c1.09,0,2.131-0.012,3.174,0.006
		c0.311,0.006,0.406-0.092,0.402-0.4c-0.016-1.162-0.006-2.324-0.006-3.486c0-3.066-0.006-6.135,0.006-9.204
		C35.504,47.268,35.404,47.142,35.041,47.159z"/>
</g>
</svg>
