<?xml version="1.0" encoding="utf-8"?>
<!-- Generator: Adobe Illustrator 16.0.0, SVG Export Plug-In . SVG Version: 6.00 Build 0)  -->
<!DOCTYPE svg PUBLIC "-//W3C//DTD SVG 1.1//EN" "http://www.w3.org/Graphics/SVG/1.1/DTD/svg11.dtd">
<svg version="1.1" id="Ebene_1" xmlns="http://www.w3.org/2000/svg" xmlns:xlink="http://www.w3.org/1999/xlink" x="0px" y="0px"
	 width="100px" height="100px" viewBox="0 0 100 100" enable-background="new 0 0 100 100" xml:space="preserve">
<circle fill="#B2B2B2" cx="50" cy="50" r="50"/>
<g>
	<path fill="#231F20" d="M50.485,19.697c-7.505-0.261-14.364,5.63-14.389,13.882C36.073,41.476,42.44,47.5,49.991,47.518
		c7.616,0.022,13.882-6.188,13.929-13.777C63.967,25.951,57.762,19.95,50.485,19.697z M58.471,33.609
		c-0.59,0.004-1.18,0.019-1.77-0.006c-0.316-0.013-0.467,0.095-0.57,0.398c-0.576,1.669-1.166,3.334-1.773,4.992
		c-0.135,0.369-0.321,0.736-0.561,1.045c-0.525,0.677-1.396,0.672-1.863-0.043c-0.315-0.484-0.547-1.044-0.721-1.6
		c-0.391-1.249-0.722-2.518-1.079-3.778c-0.056-0.195-0.119-0.388-0.216-0.699c-0.104,0.312-0.176,0.51-0.234,0.711
		c-0.38,1.315-0.747,2.635-1.143,3.945c-0.127,0.42-0.288,0.839-0.5,1.222c-0.47,0.846-1.283,0.992-1.97,0.305
		c-0.396-0.396-0.754-0.894-0.952-1.412c-0.526-1.388-0.953-2.813-1.431-4.222c-0.354-1.045-0.071-0.832-1.144-0.856
		c-0.369-0.008-0.737,0.005-1.106-0.003c-0.663-0.013-1.181-0.509-1.181-1.126c-0.002-0.617,0.506-1.127,1.166-1.151
		c0.424-0.016,0.849-0.003,1.306-0.003c-0.084-0.512-0.165-0.972-0.233-1.434c-0.103-0.702,0.187-1.268,0.771-1.532
		c0.572-0.259,1.24-0.117,1.625,0.493c0.341,0.538,0.569,1.156,0.781,1.762c0.244,0.698,0.212,0.71,0.97,0.71
		c0.383,0,0.767-0.015,1.149,0.005c0.248,0.013,0.354-0.093,0.458-0.308c0.195-0.409,0.389-0.836,0.671-1.185
		c0.586-0.725,1.377-0.712,1.942,0.021c0.269,0.345,0.472,0.747,0.658,1.144c0.109,0.229,0.224,0.338,0.488,0.328
		c0.529-0.021,1.062-0.028,1.592,0.002c0.322,0.019,0.426-0.119,0.506-0.401c0.168-0.594,0.354-1.185,0.578-1.759
		c0.183-0.463,0.549-0.756,1.043-0.875c0.773-0.188,1.539,0.344,1.541,1.141c0.002,0.611-0.115,1.224-0.186,1.887
		c0.445,0,0.914-0.004,1.381,0.001c0.754,0.008,1.299,0.505,1.289,1.167C59.744,33.145,59.215,33.605,58.471,33.609z"/>
	<path fill="#231F20" d="M26.656,63.859c-3.688-0.006-6.696,2.92-6.703,6.521c-0.007,3.785,2.909,6.764,6.634,6.775
		c3.667,0.013,6.651-2.956,6.655-6.617C33.246,66.842,30.311,63.866,26.656,63.859z"/>
	<path fill="#231F20" d="M73.453,63.859c-3.709-0.004-6.693,2.949-6.695,6.627c-0.002,3.691,2.965,6.664,6.656,6.67
		c3.668,0.007,6.633-2.959,6.633-6.633C80.047,66.822,77.121,63.865,73.453,63.859z"/>
	<path fill="#231F20" d="M50.015,63.859c-3.711,0-6.646,2.938-6.645,6.658c0,3.68,2.948,6.633,6.625,6.639
		c3.663,0.008,6.657-2.969,6.663-6.619C56.666,66.839,53.703,63.861,50.015,63.859z"/>
	<path fill="#231F20" d="M73.035,61.868c0.824-0.688,0.953-1.966,0.229-2.821c-2.604-3.068-5.227-6.122-7.846-9.178
		c-0.398-0.466-0.932-0.651-1.545-0.689c-0.799,0.036-1.445,0.372-1.803,1.12c-0.369,0.771-0.295,1.54,0.262,2.195
		c2.605,3.067,5.221,6.127,7.846,9.177C70.93,62.543,72.15,62.604,73.035,61.868z"/>
	<path fill="#231F20" d="M37.449,49.08c-0.841-0.714-2.155-0.61-2.9,0.258c-2.593,3.02-5.176,6.047-7.761,9.072
		c-0.327,0.383-0.516,0.822-0.493,1.305c-0.001,0.896,0.484,1.626,1.265,1.93c0.79,0.309,1.692,0.099,2.265-0.533
		c0.188-0.207,0.364-0.426,0.546-0.639c2.406-2.812,4.814-5.619,7.215-8.436C38.4,51.08,38.333,49.832,37.449,49.08z"/>
	<path fill="#231F20" d="M52.016,52.479c-0.006-1.146-0.883-2.032-2.001-2.036c-1.139-0.004-2.021,0.892-2.021,2.062
		c-0.003,2.401-0.002,4.806-0.001,7.207c0.002,1.192,0.85,2.065,2.005,2.069c1.153,0.006,2.017-0.864,2.022-2.053
		c0.006-1.192,0-2.388,0-3.58C52.018,54.925,52.023,53.701,52.016,52.479z"/>
	<path fill="#231F20" d="M52.799,34.725c0.033,0.005,0.066,0.009,0.098,0.014c0.117-0.35,0.236-0.698,0.367-1.09
		c-0.295,0-0.527,0-0.82,0C52.572,34.042,52.686,34.384,52.799,34.725z"/>
	<path fill="#231F20" d="M46.934,34.658c0.036-0.005,0.072-0.01,0.108-0.015c0.1-0.324,0.198-0.649,0.305-0.998
		c-0.284,0-0.505,0-0.779,0C46.702,34.016,46.818,34.337,46.934,34.658z"/>
</g>
</svg>
