<?xml version="1.0" encoding="utf-8"?>
<!-- Generator: Adobe Illustrator 16.0.0, SVG Export Plug-In . SVG Version: 6.00 Build 0)  -->
<!DOCTYPE svg PUBLIC "-//W3C//DTD SVG 1.1//EN" "http://www.w3.org/Graphics/SVG/1.1/DTD/svg11.dtd">
<svg version="1.1" id="Ebene_1" xmlns="http://www.w3.org/2000/svg" xmlns:xlink="http://www.w3.org/1999/xlink" x="0px" y="0px"
	 width="100px" height="100px" viewBox="0 0 100 100" enable-background="new 0 0 100 100" xml:space="preserve">
<circle fill="#B2B2B2" cx="50" cy="50" r="50"/>
<g>
	<rect x="47.271" y="42.013" fill="#231F20" width="7.063" height="1.957"/>
	<path fill="#231F20" d="M63.455,25.962c-5.395,0-10.221,1.855-13.455,4.776c-3.236-2.921-8.061-4.776-13.456-4.776
		c-5.395,0-10.22,1.855-13.455,4.776v43.301c3.235-2.92,8.061-4.776,13.455-4.776c5.396,0,10.22,1.856,13.456,4.776
		c3.234-2.92,8.061-4.776,13.455-4.776s10.22,1.856,13.455,4.776V30.738C73.675,27.817,68.85,25.962,63.455,25.962z M61.906,58.649
		H39.699V43.97h4.91v-4.619h12.387v4.619h4.91V58.649z"/>
</g>
</svg>
