<?xml version="1.0" encoding="utf-8"?>
<!-- Generator: Adobe Illustrator 16.0.0, SVG Export Plug-In . SVG Version: 6.00 Build 0)  -->
<!DOCTYPE svg PUBLIC "-//W3C//DTD SVG 1.1//EN" "http://www.w3.org/Graphics/SVG/1.1/DTD/svg11.dtd">
<svg version="1.1" id="Ebene_1" xmlns="http://www.w3.org/2000/svg" xmlns:xlink="http://www.w3.org/1999/xlink" x="0px" y="0px"
	 width="100px" height="100px" viewBox="0 0 100 100" enable-background="new 0 0 100 100" xml:space="preserve">
<circle fill="#B2B2B2" cx="108.855" cy="1784.052" r="50"/>
<polygon fill="#231F20" points="138.195,1773.602 119.305,1773.602 119.305,1754.711 98.404,1754.711 98.404,1773.602 
	79.516,1773.602 79.516,1794.502 98.404,1794.502 98.404,1813.392 119.305,1813.392 119.305,1794.502 138.195,1794.502 "/>
<circle fill="#B2B2B2" cx="50.116" cy="50.017" r="50"/>
<g>
	<polygon fill="#231F20" points="71.193,40.641 62.748,40.641 62.748,62.784 54.338,62.784 54.338,40.641 45.894,40.641 
		45.894,62.784 37.483,62.784 37.483,40.641 29.039,40.641 29.039,62.784 22.009,62.784 22.009,72 78.223,72 78.223,62.784 
		71.193,62.784 	"/>
	<polygon fill="#231F20" points="50.116,18.51 21.262,32.794 21.262,35.511 78.97,35.511 78.97,32.794 	"/>
</g>
</svg>
