<?xml version="1.0" encoding="utf-8"?>
<!-- Generator: Adobe Illustrator 16.0.0, SVG Export Plug-In . SVG Version: 6.00 Build 0)  -->
<!DOCTYPE svg PUBLIC "-//W3C//DTD SVG 1.1//EN" "http://www.w3.org/Graphics/SVG/1.1/DTD/svg11.dtd">
<svg version="1.1" id="Ebene_1" xmlns="http://www.w3.org/2000/svg" xmlns:xlink="http://www.w3.org/1999/xlink" x="0px" y="0px"
	 width="100px" height="100px" viewBox="0 0 100 100" enable-background="new 0 0 100 100" xml:space="preserve">
<circle fill="#B2B2B2" cx="108.855" cy="1784.051" r="50"/>
<polygon fill="#231F20" points="138.195,1773.601 119.305,1773.601 119.305,1754.71 98.404,1754.71 98.404,1773.601 
	79.516,1773.601 79.516,1794.501 98.404,1794.501 98.404,1813.391 119.305,1813.391 119.305,1794.501 138.195,1794.501 "/>
<circle fill="#B2B2B2" cx="50" cy="50" r="50"/>
<g>
	<path fill="#231F20" d="M41.344,49.084c-1.987-2.12-3.957-4.258-5.939-6.383c-0.467-0.501-0.934-1.003-1.399-1.504
		c-1.197-1.286-3.212-1.359-4.5-0.162c-0.673,0.627-1.014,1.479-1.014,2.331c0,0.777,0.281,1.556,0.853,2.168
		c0,0,4.717,5.069,4.706,5.069l0.062,0.063c0.541,0.576,0.514,1.482-0.062,2.024c-0.575,0.543-1.482,0.516-2.024-0.061l-4.927-5.232
		c-0.123-0.133-0.216-0.281-0.28-0.439l-0.199-0.198V30.414c0-1.759-1.426-3.184-3.184-3.184c-1.759,0-3.183,1.425-3.183,3.184
		V48.08c0,0.844,0.335,1.653,0.932,2.25l9.37,9.371V80.59h14.308V55.428c0.188-1.438-0.177-2.77-1.149-3.792
		C42.912,50.796,42.138,49.93,41.344,49.084z"/>
	<path fill="#231F20" d="M76.563,27.23c-1.757,0-3.184,1.425-3.184,3.184v16.347l-0.198,0.198c-0.065,0.158-0.156,0.307-0.279,0.439
		l-4.928,5.232c-0.542,0.576-1.449,0.604-2.024,0.061c-0.576-0.542-0.604-1.448-0.062-2.024l0.061-0.063
		c-0.011,0,4.705-5.069,4.705-5.069c0.571-0.612,0.854-1.391,0.854-2.168c0-0.853-0.341-1.704-1.015-2.331
		c-1.286-1.197-3.302-1.124-4.499,0.162c-0.467,0.501-0.932,1.003-1.398,1.504c-1.982,2.125-3.952,4.263-5.941,6.383
		c-0.793,0.846-1.568,1.712-2.368,2.552c-0.972,1.022-1.337,2.354-1.147,3.792V80.59h14.306V59.701l9.37-9.371
		c0.598-0.597,0.932-1.406,0.932-2.25V30.414C79.746,28.655,78.322,27.23,76.563,27.23z"/>
	<circle fill="#231F20" cx="50" cy="33.53" r="8.452"/>
</g>
</svg>
