<?xml version="1.0" encoding="utf-8"?>
<!-- Generator: Adobe Illustrator 16.0.0, SVG Export Plug-In . SVG Version: 6.00 Build 0)  -->
<!DOCTYPE svg PUBLIC "-//W3C//DTD SVG 1.1//EN" "http://www.w3.org/Graphics/SVG/1.1/DTD/svg11.dtd">
<svg version="1.1" id="Ebene_1" xmlns="http://www.w3.org/2000/svg" xmlns:xlink="http://www.w3.org/1999/xlink" x="0px" y="0px"
	 width="100px" height="100px" viewBox="0 0 100 100" enable-background="new 0 0 100 100" xml:space="preserve">
<circle fill="#B2B2B2" cx="108.855" cy="1784.051" r="50"/>
<polygon fill="#231F20" points="138.195,1773.602 119.305,1773.602 119.305,1754.711 98.404,1754.711 98.404,1773.602 
	79.516,1773.602 79.516,1794.502 98.404,1794.502 98.404,1813.391 119.305,1813.391 119.305,1794.502 138.195,1794.502 "/>
<circle fill="#B2B2B2" cx="50" cy="50" r="50"/>
<g>
	<path fill-rule="evenodd" clip-rule="evenodd" fill="#231F20" d="M40.056,61.286c-2.384-2.564-4.765-5.132-7.151-7.693
		c-1.144-1.229-2.858-1.504-4.284-0.704c-1.373,0.771-2.034,2.376-1.635,3.929c0.25,0.975,0.97,1.613,1.61,2.308
		c1.438,1.562,2.893,3.108,4.326,4.675c0.466,0.509,0.524,1.141,0.199,1.706c-0.317,0.551-0.828,0.888-1.436,0.75
		c-0.437-0.099-0.887-0.393-1.205-0.721c-1.658-1.711-3.277-3.46-4.91-5.196c-0.407-0.434-0.628-0.909-0.626-1.542
		c0.022-5.403,0.017-10.807,0.008-16.21c-0.001-0.481-0.024-0.976-0.137-1.44c-0.422-1.736-2.046-2.802-3.853-2.571
		c-1.655,0.211-2.931,1.685-2.932,3.423c-0.006,6.242,0.005,12.483-0.01,18.726c-0.002,1.13,0.375,2.052,1.176,2.848
		c3.173,3.15,6.325,6.322,9.496,9.476c0.284,0.282,0.416,0.561,0.413,0.972c-0.019,2.701-0.01,5.403-0.01,8.104
		c0,0.222,0,0.443,0,0.729c0.217,0.018,0.362,0.04,0.507,0.04c4.788,0.002,9.577-0.005,14.365,0.011
		c0.458,0.002,0.561-0.162,0.561-0.582c0.001-4.788,0.022-9.576,0.027-14.364c0.001-1.246-0.454-2.324-1.303-3.236
		C42.189,63.575,41.121,62.432,40.056,61.286z"/>
	<path fill-rule="evenodd" clip-rule="evenodd" fill="#231F20" d="M81.971,42.162c-0.002-1.316-0.508-2.407-1.66-3.104
		c-1.143-0.688-2.342-0.713-3.508-0.061c-1.17,0.655-1.75,1.694-1.752,3.034c-0.006,5.59-0.01,11.179,0.008,16.769
		c0.002,0.542-0.145,0.98-0.496,1.356c-1.783,1.903-3.566,3.805-5.365,5.693c-0.385,0.404-0.885,0.538-1.436,0.372
		c-1.156-0.348-1.443-1.646-0.568-2.59c1.633-1.762,3.279-3.511,4.908-5.277c1.387-1.506,1.332-3.672-0.105-5.006
		c-1.422-1.316-3.562-1.208-4.955,0.283c-3.469,3.717-6.928,7.443-10.387,11.169c-0.664,0.716-1.096,1.562-1.172,2.539
		c-0.055,0.682,0,1.372,0,2.059c0,4.248,0,8.496,0,12.744c0,0.22,0,0.439,0,0.75c0.27,0,0.455,0,0.639,0
		c4.713,0,9.426-0.008,14.141,0.011c0.518,0.002,0.66-0.149,0.656-0.659c-0.021-2.721,0.002-5.44-0.02-8.161
		c-0.004-0.47,0.143-0.79,0.473-1.117c3.146-3.124,6.271-6.271,9.418-9.396c0.789-0.782,1.184-1.704,1.184-2.797
		C81.979,54.57,81.98,48.366,81.971,42.162z"/>
	<path fill-rule="evenodd" clip-rule="evenodd" fill="#231F20" d="M38.688,51.849c0.236,0.018,0.382,0.037,0.526,0.037
		c7.19,0.002,14.381-0.002,21.571,0.009c0.416,0.001,0.541-0.124,0.541-0.54c-0.014-4.135,0.02-8.271-0.018-12.405
		c-0.029-3.184-2.686-5.751-5.867-5.754c-3.596-0.002-7.19-0.001-10.786,0c-3.4,0-5.965,2.564-5.967,5.973
		c-0.003,3.986-0.001,7.973-0.001,11.959C38.688,51.348,38.688,51.569,38.688,51.849z"/>
	<path fill-rule="evenodd" clip-rule="evenodd" fill="#231F20" d="M49.99,29.899c3.567,0,6.428-2.861,6.418-6.416
		c-0.01-3.538-2.857-6.386-6.391-6.388c-3.576-0.002-6.456,2.846-6.458,6.388C43.556,27.038,46.425,29.9,49.99,29.899z"/>
</g>
</svg>
