<?xml version="1.0" encoding="utf-8"?>
<!-- Generator: Adobe Illustrator 16.0.0, SVG Export Plug-In . SVG Version: 6.00 Build 0)  -->
<!DOCTYPE svg PUBLIC "-//W3C//DTD SVG 1.1//EN" "http://www.w3.org/Graphics/SVG/1.1/DTD/svg11.dtd">
<svg version="1.1" id="Ebene_1" xmlns="http://www.w3.org/2000/svg" xmlns:xlink="http://www.w3.org/1999/xlink" x="0px" y="0px"
	 width="100px" height="100px" viewBox="0 0 100 100" enable-background="new 0 0 100 100" xml:space="preserve">
<circle fill="#B2B2B2" cx="108.855" cy="1784.051" r="50"/>
<polygon fill="#231F20" points="138.195,1773.601 119.305,1773.601 119.305,1754.71 98.404,1754.71 98.404,1773.601 
	79.516,1773.601 79.516,1794.501 98.404,1794.501 98.404,1813.391 119.305,1813.391 119.305,1794.501 138.195,1794.501 "/>
<circle fill="#B2B2B2" cx="50" cy="50" r="50"/>
<g>
	<path fill="#231F20" d="M61.299,37.454c0-3.256-2.639-5.896-5.896-5.896H44.596c-3.257,0-5.896,2.64-5.896,5.896v12.771h22.6
		V37.454z"/>
	<circle fill="#231F20" cx="49.999" cy="21.825" r="6.387"/>
	<path fill="#231F20" d="M40.695,60.423c-2.137-2.279-4.254-4.577-6.385-6.861c-0.502-0.539-1.004-1.078-1.505-1.617
		c-1.287-1.383-3.452-1.461-4.837-0.174c-0.724,0.674-1.09,1.589-1.09,2.506c0,0.835,0.303,1.672,0.917,2.33
		c0,0,5.069,5.449,5.059,5.449l0.065,0.068c0.582,0.619,0.553,1.594-0.066,2.176c-0.619,0.584-1.594,0.555-2.177-0.064l-5.296-5.625
		c-0.133-0.143-0.232-0.303-0.302-0.473l-0.214-0.213V40.353c0-1.891-1.532-3.422-3.422-3.422c-1.891,0-3.422,1.531-3.422,3.422
		v18.99c0,0.907,0.36,1.777,1.002,2.419l10.072,10.073v9.455h15.381V67.241c0.201-1.546-0.19-2.977-1.236-4.076
		C42.381,62.263,41.549,61.332,40.695,60.423z"/>
	<path fill="#231F20" d="M78.555,36.931c-1.889,0-3.422,1.531-3.422,3.422v17.572l-0.213,0.213c-0.07,0.17-0.168,0.33-0.301,0.473
		l-5.297,5.625c-0.583,0.619-1.558,0.648-2.177,0.064c-0.619-0.582-0.648-1.557-0.065-2.176l0.064-0.068
		c-0.011,0,5.059-5.449,5.059-5.449c0.613-0.658,0.917-1.495,0.917-2.33c0-0.917-0.366-1.832-1.091-2.506
		c-1.383-1.287-3.549-1.209-4.836,0.174c-0.502,0.539-1.002,1.078-1.504,1.617c-2.131,2.284-4.248,4.582-6.387,6.861
		c-0.852,0.909-1.686,1.84-2.545,2.742c-1.045,1.1-1.438,2.53-1.234,4.076V81.29h15.379v-9.455l10.072-10.073
		c0.643-0.642,1.002-1.512,1.002-2.419v-18.99C81.977,38.462,80.445,36.931,78.555,36.931z"/>
</g>
</svg>
