<?xml version="1.0" encoding="utf-8"?>
<!-- Generator: Adobe Illustrator 16.0.0, SVG Export Plug-In . SVG Version: 6.00 Build 0)  -->
<!DOCTYPE svg PUBLIC "-//W3C//DTD SVG 1.1//EN" "http://www.w3.org/Graphics/SVG/1.1/DTD/svg11.dtd">
<svg version="1.1" id="Ebene_1" xmlns="http://www.w3.org/2000/svg" xmlns:xlink="http://www.w3.org/1999/xlink" x="0px" y="0px"
	 width="100px" height="100px" viewBox="0 0 100 100" enable-background="new 0 0 100 100" xml:space="preserve">
<circle fill="#B2B2B2" cx="108.855" cy="1784.051" r="50"/>
<polygon fill="#231F20" points="138.195,1773.602 119.305,1773.602 119.305,1754.711 98.404,1754.711 98.404,1773.602 
	79.516,1773.602 79.516,1794.502 98.404,1794.502 98.404,1813.391 119.305,1813.391 119.305,1794.502 138.195,1794.502 "/>
<circle fill="#B2B2B2" cx="50" cy="50" r="50"/>
<g>
	<path fill-rule="evenodd" clip-rule="evenodd" fill="#231F20" d="M32.815,51.709c-0.987-1.052-2.25-1.342-3.613-0.87
		s-2.138,1.474-2.299,2.917c-0.131,1.168,0.331,2.107,1.121,2.942c1.631,1.724,3.239,3.468,4.849,5.212
		c0.619,0.671,0.6,1.568-0.02,2.161c-0.604,0.579-1.533,0.569-2.126-0.056c-1.768-1.861-3.525-3.732-5.277-5.607
		c-0.339-0.363-0.521-0.781-0.52-1.32c0.019-5.538,0.01-11.076,0.013-16.615c0.001-1.092-0.283-2.076-1.118-2.82
		c-1.093-0.977-2.362-1.207-3.703-0.637c-1.423,0.605-2.095,1.756-2.095,3.295c-0.002,6.226,0.003,12.451-0.005,18.676
		c-0.001,1.094,0.382,1.989,1.157,2.76c3.188,3.168,6.356,6.354,9.541,9.523c0.252,0.25,0.365,0.496,0.363,0.855
		c-0.014,2.807-0.008,5.613-0.008,8.42c0,0.578,0.001,0.58,0.588,0.58c4.763,0,9.524,0,14.287,0c0.161,0,0.322,0,0.553,0
		c0-0.237,0-0.399,0-0.562c0-4.345,0-8.688,0.002-13.032c0-0.209,0.007-0.418,0.029-0.625c0.17-1.508-0.217-2.842-1.256-3.961
		C39.797,59.195,36.32,55.438,32.815,51.709z"/>
	<path fill-rule="evenodd" clip-rule="evenodd" fill="#231F20" d="M81.974,40.111c-0.003-2.191-2.059-3.796-4.196-3.294
		c-1.642,0.386-2.675,1.726-2.676,3.501c-0.004,5.555-0.012,11.107,0.013,16.662c0.003,0.607-0.201,1.064-0.584,1.473
		c-1.714,1.83-3.434,3.654-5.156,5.475c-0.664,0.703-1.583,0.75-2.221,0.132c-0.619-0.6-0.603-1.505,0.04-2.196
		c1.654-1.783,3.307-3.568,4.965-5.348c0.604-0.648,0.951-1.404,0.984-2.291c0.055-1.443-0.785-2.764-2.089-3.309
		c-1.364-0.57-2.881-0.256-3.899,0.836c-3.48,3.733-6.953,7.473-10.429,11.209c-0.615,0.662-1.062,1.428-1.171,2.321
		c-0.09,0.733-0.055,1.483-0.056,2.228c-0.004,4.329-0.002,8.658-0.002,12.988c0,0.189,0,0.379,0,0.593
		c0.183,0.015,0.312,0.032,0.443,0.032c4.837,0.002,9.674-0.002,14.511,0.009c0.368,0.001,0.483-0.102,0.482-0.477
		c-0.015-2.821-0.002-5.644-0.016-8.465c-0.002-0.37,0.097-0.634,0.364-0.899c3.208-3.189,6.402-6.393,9.603-9.59
		c0.696-0.695,1.094-1.509,1.093-2.511C81.974,52.83,81.979,46.471,81.974,40.111z"/>
	<path fill-rule="evenodd" clip-rule="evenodd" fill="#231F20" d="M66.703,48.521c0.451,0.002,0.541-0.15,0.538-0.564
		c-0.019-2.06-0.007-4.119-0.01-6.18c-0.003-2.071-1.351-3.423-3.417-3.427c-1.702-0.003-3.405,0.032-5.105-0.012
		c-1.271-0.032-2.361,0.274-3.252,1.446c-0.172-0.968-0.39-1.793-0.455-2.629c-0.198-2.543-2.357-4.607-4.899-4.609
		c-3.12-0.004-6.24-0.003-9.36-0.001c-2.347,0.001-4.43,1.741-4.845,4.056c-0.071,0.395-0.064,0.805-0.146,1.197
		c-0.568,2.729-1.152,5.455-1.729,8.182c-0.165,0.783-0.321,1.566-0.491,2.396c0.22,0.01,0.38,0.023,0.54,0.023
		c7.115,0.038,14.23,0.08,21.346,0.107C59.18,48.523,62.941,48.504,66.703,48.521z"/>
	<path fill-rule="evenodd" clip-rule="evenodd" fill="#231F20" d="M45.402,29.766c2.994,0.004,5.449-2.44,5.453-5.43
		c0.005-3.023-2.443-5.477-5.457-5.469c-3.006,0.008-5.421,2.436-5.421,5.449C39.979,27.332,42.397,29.762,45.402,29.766z"/>
	<path fill-rule="evenodd" clip-rule="evenodd" fill="#231F20" d="M61.076,36.066c2.28,0,4.095-1.811,4.096-4.087
		c0-2.272-1.821-4.093-4.096-4.093c-2.27,0-4.114,1.837-4.111,4.092C56.969,34.244,58.802,36.067,61.076,36.066z"/>
</g>
</svg>
