<?xml version="1.0" encoding="utf-8"?>
<!-- Generator: Adobe Illustrator 16.0.0, SVG Export Plug-In . SVG Version: 6.00 Build 0)  -->
<!DOCTYPE svg PUBLIC "-//W3C//DTD SVG 1.1//EN" "http://www.w3.org/Graphics/SVG/1.1/DTD/svg11.dtd">
<svg version="1.1" id="Ebene_1" xmlns="http://www.w3.org/2000/svg" xmlns:xlink="http://www.w3.org/1999/xlink" x="0px" y="0px"
	 width="100px" height="100px" viewBox="0 0 100 100" enable-background="new 0 0 100 100" xml:space="preserve">
<circle fill="#B2B2B2" cx="108.855" cy="1784.051" r="50"/>
<polygon fill="#231F20" points="138.195,1773.602 119.305,1773.602 119.305,1754.711 98.404,1754.711 98.404,1773.602 
	79.516,1773.602 79.516,1794.502 98.404,1794.502 98.404,1813.391 119.305,1813.391 119.305,1794.502 138.195,1794.502 "/>
<circle fill="#B2B2B2" cx="49.383" cy="50" r="50"/>
<g>
	<path fill="#231F20" d="M37.796,43.134h23.177V25.861h5.938v-1.65l-17.527-8.676l-17.525,8.676v1.65h5.938V43.134z M46.087,29.759
		h6.593v6.593h-6.593V29.759z"/>
	<path fill="#231F20" d="M40.078,57.611c-2.137-2.279-4.254-4.577-6.385-6.861c-0.502-0.539-1.004-1.078-1.504-1.617
		c-1.287-1.383-3.453-1.461-4.837-0.174c-0.724,0.674-1.091,1.589-1.091,2.506c0,0.835,0.304,1.672,0.918,2.33
		c0,0,5.068,5.449,5.059,5.449l0.064,0.068c0.582,0.619,0.553,1.594-0.066,2.176c-0.619,0.584-1.594,0.555-2.176-0.064l-5.297-5.625
		c-0.133-0.143-0.232-0.303-0.301-0.473l-0.214-0.213V37.541c0-1.891-1.532-3.422-3.422-3.422c-1.891,0-3.422,1.531-3.422,3.422
		v18.99c0,0.906,0.36,1.777,1.001,2.419l10.073,10.073v9.455h15.38V64.43c0.201-1.546-0.189-2.977-1.236-4.076
		C41.764,59.451,40.932,58.521,40.078,57.611z"/>
	<path fill="#231F20" d="M77.938,34.119c-1.89,0-3.422,1.531-3.422,3.422v17.572l-0.213,0.213c-0.07,0.17-0.169,0.33-0.302,0.473
		l-5.297,5.625c-0.582,0.619-1.558,0.648-2.177,0.064c-0.618-0.582-0.647-1.557-0.065-2.176l0.063-0.068
		c-0.01,0,5.06-5.449,5.06-5.449c0.614-0.658,0.918-1.495,0.918-2.33c0-0.917-0.366-1.832-1.091-2.506
		c-1.385-1.287-3.551-1.209-4.837,0.174c-0.501,0.539-1.003,1.078-1.505,1.617c-2.131,2.284-4.248,4.582-6.385,6.861
		c-0.854,0.908-1.687,1.84-2.545,2.742c-1.047,1.1-1.438,2.529-1.236,4.076v14.049h15.38v-9.455L80.357,58.95
		c0.643-0.642,1.002-1.513,1.002-2.419v-18.99C81.359,35.65,79.828,34.119,77.938,34.119z"/>
</g>
</svg>
