<?xml version="1.0" encoding="utf-8"?>
<!-- Generator: Adobe Illustrator 16.0.0, SVG Export Plug-In . SVG Version: 6.00 Build 0)  -->
<!DOCTYPE svg PUBLIC "-//W3C//DTD SVG 1.1//EN" "http://www.w3.org/Graphics/SVG/1.1/DTD/svg11.dtd">
<svg version="1.1" id="Ebene_1" xmlns="http://www.w3.org/2000/svg" xmlns:xlink="http://www.w3.org/1999/xlink" x="0px" y="0px"
	 width="100px" height="100px" viewBox="0 0 100 100" enable-background="new 0 0 100 100" xml:space="preserve">
<circle fill="#B2B2B2" cx="108.855" cy="1784.051" r="50"/>
<polygon fill="#231F20" points="138.195,1773.601 119.305,1773.601 119.305,1754.71 98.404,1754.71 98.404,1773.601 
	79.516,1773.601 79.516,1794.501 98.404,1794.501 98.404,1813.391 119.305,1813.391 119.305,1794.501 138.195,1794.501 "/>
<circle fill="#B2B2B2" cx="50" cy="50" r="50"/>
<g>
	<path fill="#231F20" d="M58.841,48.693H41.16c-5.327,0-9.646,4.318-9.646,9.644V79.23h36.971V58.337
		C68.485,53.012,64.167,48.693,58.841,48.693z"/>
	<path fill="#231F20" d="M39.552,32.77c0,5.771,4.678,10.449,10.448,10.449S60.448,38.54,60.448,32.77
		c0-0.105-0.013-0.209-0.016-0.314h3.023l0.121-4.397c-0.371-6.948-6.105-12.472-13.146-12.472s-12.776,5.523-13.146,12.472h-2.809
		v4.397h5.092C39.565,32.561,39.552,32.664,39.552,32.77z"/>
</g>
</svg>
