<?xml version="1.0" encoding="utf-8"?>
<!-- Generator: Adobe Illustrator 16.0.0, SVG Export Plug-In . SVG Version: 6.00 Build 0)  -->
<!DOCTYPE svg PUBLIC "-//W3C//DTD SVG 1.1//EN" "http://www.w3.org/Graphics/SVG/1.1/DTD/svg11.dtd">
<svg version="1.1" id="Ebene_1" xmlns="http://www.w3.org/2000/svg" xmlns:xlink="http://www.w3.org/1999/xlink" x="0px" y="0px"
	 width="100px" height="100px" viewBox="0 0 100 100" enable-background="new 0 0 100 100" xml:space="preserve">
<circle fill="#B2B2B2" cx="108.855" cy="1784.051" r="50"/>
<polygon fill="#231F20" points="138.195,1773.601 119.305,1773.601 119.305,1754.71 98.404,1754.71 98.404,1773.601 
	79.516,1773.601 79.516,1794.501 98.404,1794.501 98.404,1813.391 119.305,1813.391 119.305,1794.501 138.195,1794.501 "/>
<circle fill="#B2B2B2" cx="50" cy="50" r="50"/>
<g>
	<path fill="#231F20" d="M53.854,42.534c-0.586-0.023-1.195,0.073-1.637,0.22c-1.785,0.71-2.104,3.521-0.685,4.769
		c1.271,1.148,3.545,0.758,4.599-0.465c1.051-1.223,0.636-2.908-0.439-3.889C55.248,42.802,54.563,42.607,53.854,42.534z"/>
	<path fill="#231F20" d="M70.249,58.599V28.411H29.747v30.188H19.371v2.883L50,76.644l30.628-15.162v-2.883H70.249z M43.628,56.912
		c-0.464,0.368-1.368,0.343-1.909,0.146c-0.585-0.194-0.61-0.855-0.61-1.394c-0.219-4.279-0.146-8.339-0.146-12.691
		c-0.097,0.293-1.787,0.562-2.055,0.562c-0.856,0.099-1.663-0.098-1.76-1.101c-0.123-1.028,0.561-1.59,1.513-1.885
		c1.029-0.342,2.033-0.758,3.058-1.05c0.221-0.048,0.418-0.123,0.614-0.147c0.487-0.123,1.393-0.123,1.662,0.439
		c0.269,0.661,0.147,1.812,0.147,2.519v12.499C44.143,55.495,44.313,56.426,43.628,56.912z M53.292,57.207
		c-1.491,0-2.911-0.269-4.06-1.273c-0.855-0.78-1.687-2.079-0.366-2.86c0.856-0.515,1.346,0.123,1.932,0.661
		c0.734,0.612,1.638,0.758,2.568,0.758c2.153,0,3.765-2.3,3.447-4.477c-0.952,0.564-2.25,0.882-3.349,0.882
		c-3.496,0-5.796-2.103-5.796-5.381c0-3.4,2.47-5.943,6.113-5.943c2.079,0,3.399,0.612,4.572,1.811
		c1.199,1.271,1.761,3.178,1.761,6.554C60.115,53.438,57.696,57.207,53.292,57.207z"/>
</g>
</svg>
