<?xml version="1.0" encoding="utf-8"?>
<!-- Generator: Adobe Illustrator 16.0.0, SVG Export Plug-In . SVG Version: 6.00 Build 0)  -->
<!DOCTYPE svg PUBLIC "-//W3C//DTD SVG 1.1//EN" "http://www.w3.org/Graphics/SVG/1.1/DTD/svg11.dtd">
<svg version="1.1" id="Ebene_1" xmlns="http://www.w3.org/2000/svg" xmlns:xlink="http://www.w3.org/1999/xlink" x="0px" y="0px"
	 width="100px" height="100px" viewBox="0 0 100 100" enable-background="new 0 0 100 100" xml:space="preserve">
<circle fill="#B2B2B2" cx="108.855" cy="1784.051" r="50"/>
<polygon fill="#231F20" points="138.195,1773.602 119.305,1773.602 119.305,1754.711 98.404,1754.711 98.404,1773.602 
	79.516,1773.602 79.516,1794.502 98.404,1794.502 98.404,1813.391 119.305,1813.391 119.305,1794.502 138.195,1794.502 "/>
<circle fill="#B2B2B2" cx="50" cy="50" r="50"/>
<g>
	<path fill="#231F20" d="M45.726,47.373c-0.396-0.478-0.9-0.887-1.412-1.245c-0.875-0.61-1.89-0.831-2.945-0.952
		c-2.2-0.252-4.812,0.776-5.837,2.979c-0.578,1.242-1.138,2.494-1.669,3.757c-0.985,2.34-1.936,4.696-2.923,7.035
		c-0.103,0.242-0.337,0.457-0.562,0.607c-0.402,0.271-0.841,0.489-1.27,0.718c-2.083,1.109-4.184,2.19-6.249,3.335
		c-1.037,0.574-1.497,1.976-1.203,3.144c0.359,1.433,1.8,2.723,3.579,2.198c0,3.436,0,6.867,0,10.298c0.315,0,0.584,0,0.906,0
		c0-3.568,0-7.121,0-10.676c1.214-0.613,2.443-1.196,3.66-1.804c1.613-0.804,3.234-1.593,4.822-2.446
		c0.472-0.253,0.928-0.634,1.236-1.067c0.335-0.475,0.494-1.076,0.722-1.624c0.525-1.261,1.046-2.523,1.587-3.831
		c0.124,0.089,0.16,0.103,0.181,0.131c2.487,3.188,4.977,6.374,7.447,9.575c0.108,0.14,0.13,0.439,0.06,0.61
		c-1.551,3.716-3.102,7.432-4.684,11.133h10.312c0.362-0.918,0.723-1.837,1.1-2.748c1.288-3.115,2.677-6.188,3.962-9.306
		c0.324-0.786,0.549-1.66,0.597-2.505c0.123-2.237-0.648-4.215-2.06-5.938C51.972,54.951,48.859,51.152,45.726,47.373z"/>
	<path fill="#231F20" d="M33.467,44.815c3.037,0.232,5.957-2.777,5.892-5.971c-0.073-3.612-2.725-6.44-6.228-6.524
		c-2.904-0.07-6.115,2.554-6.229,6.182C26.769,42.726,30.542,44.91,33.467,44.815z"/>
	<path fill="#231F20" d="M76.419,39.091c0-3.172-2.363-5.541-5.541-5.545c-3.229-0.004-6.458-0.004-9.686,0
		c-3.189,0.006-5.541,2.353-5.545,5.535c-0.007,3.677,0.007,7.356-0.013,11.033c-0.002,0.479,0.106,0.63,0.609,0.628
		c3.261-0.024,6.521-0.013,9.783-0.013c3.276,0,6.553-0.008,9.831,0.011c0.433,0.002,0.575-0.111,0.573-0.563
		C76.412,46.481,76.42,42.786,76.419,39.091z"/>
	<path fill="#231F20" d="M65.971,30.531c3.168,0.035,5.82-2.524,5.946-5.567c0.129-3.13-2.237-6.128-5.855-6.211
		c-3.182-0.073-5.901,2.62-5.928,5.854C60.11,27.853,62.711,30.495,65.971,30.531z"/>
</g>
</svg>
