<?xml version="1.0" encoding="utf-8"?>
<!-- Generator: Adobe Illustrator 16.0.0, SVG Export Plug-In . SVG Version: 6.00 Build 0)  -->
<!DOCTYPE svg PUBLIC "-//W3C//DTD SVG 1.1//EN" "http://www.w3.org/Graphics/SVG/1.1/DTD/svg11.dtd">
<svg version="1.1" id="Ebene_1" xmlns="http://www.w3.org/2000/svg" xmlns:xlink="http://www.w3.org/1999/xlink" x="0px" y="0px"
	 width="100px" height="100px" viewBox="0 0 100 100" enable-background="new 0 0 100 100" xml:space="preserve">
<circle fill="#B2B2B2" cx="108.855" cy="1784.051" r="50"/>
<polygon fill="#231F20" points="138.195,1773.601 119.305,1773.601 119.305,1754.71 98.404,1754.71 98.404,1773.601 
	79.516,1773.601 79.516,1794.501 98.404,1794.501 98.404,1813.391 119.305,1813.391 119.305,1794.501 138.195,1794.501 "/>
<circle fill="#B2B2B2" cx="50" cy="50" r="50"/>
<g>
	<path fill="#231F20" d="M32.96,60.781c3.878,1.166,8.711-0.512,11.674-2.299c1.525-0.918,2.941-2.088,4.441-3.326
		c2.354-1.943,4.787-3.953,7.734-4.977c4.598-1.597,9.567-0.76,14.772,2.487c0.06,0.037,0.124,0.076,0.185,0.113
		c-1.006-6.829-5.158-12.622-10.927-15.896v-8.846c0-4.988-4.059-9.047-9.048-9.047h-6.418c-4.988,0-9.047,4.059-9.047,9.047v10.755
		c-5.066,4.029-8.317,10.243-8.317,17.219c0,0.209,0.009,0.414,0.016,0.623l0.196-0.094C29.261,58.723,30.854,60.148,32.96,60.781z
		 M42.327,28.038c0-1.68,1.367-3.047,3.047-3.047h6.418c1.681,0,3.048,1.367,3.048,3.047v6.531c-1.558-0.35-3.169-0.555-4.832-0.555
		c-2.702,0-5.289,0.489-7.681,1.381V28.038z"/>
	<path fill="#231F20" d="M71.044,56.898c-0.312-0.191-0.618-0.381-0.917-0.566c-4.419-2.756-8.371-3.473-12.079-2.184
		c-2.412,0.838-4.527,2.584-6.765,4.43c-1.521,1.258-3.095,2.557-4.817,3.596c-2.77,1.672-6.666,3.137-10.493,3.137
		c-1.257,0-2.507-0.158-3.709-0.52c-1.163-0.35-2.211-0.869-3.144-1.543c2.688,9.111,11.112,15.762,21.096,15.762
		c11.947,0,21.665-9.527,21.982-21.398C71.81,57.367,71.425,57.131,71.044,56.898z"/>
</g>
</svg>
