<?xml version="1.0" encoding="utf-8"?>
<!-- Generator: Adobe Illustrator 16.0.0, SVG Export Plug-In . SVG Version: 6.00 Build 0)  -->
<!DOCTYPE svg PUBLIC "-//W3C//DTD SVG 1.1//EN" "http://www.w3.org/Graphics/SVG/1.1/DTD/svg11.dtd">
<svg version="1.1" id="Ebene_1" xmlns="http://www.w3.org/2000/svg" xmlns:xlink="http://www.w3.org/1999/xlink" x="0px" y="0px"
	 width="100px" height="100px" viewBox="0 0 100 100" enable-background="new 0 0 100 100" xml:space="preserve">
<circle fill="#B2B2B2" cx="108.855" cy="1784.051" r="50"/>
<polygon fill="#231F20" points="138.195,1773.602 119.305,1773.602 119.305,1754.711 98.404,1754.711 98.404,1773.602 
	79.516,1773.602 79.516,1794.502 98.404,1794.502 98.404,1813.391 119.305,1813.391 119.305,1794.502 138.195,1794.502 "/>
<circle fill="#B2B2B2" cx="50" cy="50" r="50"/>
<g>
	<path fill-rule="evenodd" clip-rule="evenodd" fill="#231F20" d="M86.059,47.434c0.001-0.461-0.101-0.608-0.59-0.605
		c-4.448,0.02-8.896,0.012-13.344,0.012c-0.328,0-0.655,0-0.983,0c-3.933-0.011-7.865-0.011-11.798-0.037
		c-1.457-0.009-2.731,0.418-3.802,1.412c-4.229,3.928-8.46,7.853-12.679,11.793c-0.894,0.834-1.308,1.905-1.185,3.125
		c0.161,1.599,1.002,2.747,2.516,3.31c1.515,0.563,2.887,0.229,4.067-0.861c2.053-1.895,4.091-3.804,6.148-5.69
		c0.708-0.649,1.719-0.597,2.356,0.069c0.652,0.682,0.652,1.728-0.05,2.394c-2.103,1.999-4.219,3.985-6.34,5.965
		c-0.438,0.408-0.938,0.612-1.59,0.609c-6.274-0.028-12.548-0.019-18.822-0.014c-0.325,0.001-0.659,0.016-0.974,0.091
		c-1.901,0.458-3.188,2.27-2.966,4.146c0.243,2.049,1.851,3.487,3.905,3.487c7.069,0.001,14.14-0.003,21.21,0.004
		c1.157,0.001,2.115-0.405,2.931-1.224c3.603-3.615,7.218-7.217,10.817-10.834c0.275-0.277,0.548-0.391,0.939-0.39
		c6.539,0.012,13.078,0.009,19.618,0.008c0.601,0,0.602-0.001,0.602-0.616C86.049,58.202,86.043,52.818,86.059,47.434z"/>
	<path fill-rule="evenodd" clip-rule="evenodd" fill="#231F20" d="M32.033,54.412c3.182,0,6.364-0.007,9.547,0.009
		c0.42,0.002,0.558-0.107,0.556-0.547c-0.018-3.588-0.01-7.176-0.011-10.764c0-3.081-2.295-5.381-5.381-5.385
		c-3.136-0.005-6.271-0.005-9.406,0c-3.097,0.005-5.381,2.284-5.385,5.374c-0.005,3.571,0.007,7.144-0.012,10.716
		c-0.002,0.464,0.104,0.611,0.592,0.608C25.699,54.401,28.866,54.412,32.033,54.412z"/>
	<path fill-rule="evenodd" clip-rule="evenodd" fill="#231F20" d="M31.978,34.797c3.076,0.034,5.653-2.452,5.775-5.407
		c0.125-3.039-2.173-5.951-5.686-6.031c-3.091-0.071-5.731,2.544-5.756,5.684C26.287,32.196,28.812,34.761,31.978,34.797z"/>
</g>
</svg>
