<?xml version="1.0" encoding="utf-8"?>
<!-- Generator: Adobe Illustrator 16.0.0, SVG Export Plug-In . SVG Version: 6.00 Build 0)  -->
<!DOCTYPE svg PUBLIC "-//W3C//DTD SVG 1.1//EN" "http://www.w3.org/Graphics/SVG/1.1/DTD/svg11.dtd">
<svg version="1.1" id="Ebene_1" xmlns="http://www.w3.org/2000/svg" xmlns:xlink="http://www.w3.org/1999/xlink" x="0px" y="0px"
	 width="100px" height="100px" viewBox="0 0 100 100" enable-background="new 0 0 100 100" xml:space="preserve">
<circle fill="#B2B2B2" cx="108.855" cy="1784.051" r="50"/>
<polygon fill="#231F20" points="138.195,1773.601 119.305,1773.601 119.305,1754.71 98.404,1754.71 98.404,1773.601 
	79.516,1773.601 79.516,1794.501 98.404,1794.501 98.404,1813.391 119.305,1813.391 119.305,1794.501 138.195,1794.501 "/>
<circle fill="#B2B2B2" cx="50" cy="50" r="50"/>
<g>
	<path fill="#231F20" d="M59.898,45.958c-1.74-0.228-3.35,0.213-4.586,1.391c-1.016,0.967-2.062,1.903-3.087,2.863
		c-2.563,2.405-5.149,4.788-7.72,7.184c-0.605,0.566-1.213,1.129-1.819,1.693c-1.558,1.449-1.645,3.885-0.195,5.441
		c0.758,0.816,1.787,1.229,2.819,1.229c0.939,0,1.881-0.342,2.622-1.033c0,0,6.13-5.703,6.13-5.691l0.077-0.072
		c0.697-0.656,1.794-0.623,2.45,0.074c0.655,0.695,0.623,1.793-0.074,2.449l-6.33,5.959c-0.158,0.148-0.34,0.262-0.531,0.338
		l-0.238,0.24H29.643c-2.127,0-3.85,1.725-3.85,3.852s1.723,3.85,3.85,3.85H51.01c1.021,0,2.001-0.404,2.723-1.127l11.334-11.334
		h20.768V45.958H59.898z"/>
	<path fill="#231F20" d="M41.857,42.069c0-2.9-2.351-5.253-5.253-5.253h-9.631c-2.901,0-5.254,2.353-5.254,5.253v11.38h20.138
		V42.069z"/>
	<circle fill="#231F20" cx="31.789" cy="28.142" r="5.691"/>
</g>
</svg>
