<?xml version="1.0" encoding="utf-8"?>
<!-- Generator: Adobe Illustrator 16.0.0, SVG Export Plug-In . SVG Version: 6.00 Build 0)  -->
<!DOCTYPE svg PUBLIC "-//W3C//DTD SVG 1.1//EN" "http://www.w3.org/Graphics/SVG/1.1/DTD/svg11.dtd">
<svg version="1.1" id="Ebene_1" xmlns="http://www.w3.org/2000/svg" xmlns:xlink="http://www.w3.org/1999/xlink" x="0px" y="0px"
	 width="100px" height="100px" viewBox="0 0 100 100" enable-background="new 0 0 100 100" xml:space="preserve">
<circle fill="#B2B2B2" cx="50" cy="50" r="50"/>
<path fill="#231F20" d="M68.867,36.59c-5.832,0-10.781,3.729-12.627,8.929c-1.967-0.818-4.076-1.248-6.24-1.248
	s-4.273,0.43-6.24,1.248c-1.846-5.199-6.795-8.929-12.627-8.929c-7.406,0-13.41,6.004-13.41,13.41s6.004,13.41,13.41,13.41
	s13.41-6.004,13.41-13.41c0-0.312-0.025-0.617-0.046-0.924c1.711-0.823,3.579-1.256,5.503-1.256s3.792,0.433,5.503,1.256
	c-0.021,0.307-0.046,0.612-0.046,0.924c0,7.406,6.004,13.41,13.41,13.41s13.41-6.004,13.41-13.41S76.273,36.59,68.867,36.59z"/>
</svg>
