<?xml version="1.0" encoding="utf-8"?>
<!-- Generator: Adobe Illustrator 16.0.0, SVG Export Plug-In . SVG Version: 6.00 Build 0)  -->
<!DOCTYPE svg PUBLIC "-//W3C//DTD SVG 1.1//EN" "http://www.w3.org/Graphics/SVG/1.1/DTD/svg11.dtd">
<svg version="1.1" id="Ebene_1" xmlns="http://www.w3.org/2000/svg" xmlns:xlink="http://www.w3.org/1999/xlink" x="0px" y="0px"
	 width="100px" height="100px" viewBox="0 0 100 100" enable-background="new 0 0 100 100" xml:space="preserve">
<circle fill="#B2B2B2" cx="50" cy="50" r="50"/>
<g>
	<path fill="#231F20" d="M58.898,44.959c-1.74-0.228-3.35,0.213-4.586,1.391c-1.016,0.967-2.062,1.903-3.088,2.863
		c-2.562,2.404-5.148,4.787-7.719,7.185c-0.605,0.565-1.213,1.129-1.82,1.692c-1.557,1.449-1.645,3.885-0.195,5.442
		c0.758,0.815,1.787,1.228,2.82,1.228c0.939,0,1.881-0.342,2.621-1.032c0,0,6.131-5.704,6.131-5.692l0.076-0.072
		c0.697-0.656,1.795-0.623,2.451,0.074c0.654,0.696,0.623,1.793-0.074,2.449l-6.33,5.959c-0.158,0.149-0.34,0.262-0.531,0.339
		l-0.238,0.24H28.643c-2.127,0-3.85,1.725-3.85,3.851c0,2.127,1.723,3.85,3.85,3.85H50.01c1.021,0,2-0.404,2.723-1.127
		l11.334-11.334h20.768V44.959H58.898z"/>
	<path fill="#231F20" d="M47.201,41.287c0-8.022-6.504-14.526-14.527-14.526s-14.527,6.504-14.527,14.526
		c0,8.023,6.504,14.527,14.527,14.527S47.201,49.311,47.201,41.287z M26.492,43.325h0.027l3.181-3.561v-7.855h5.021v7.855h-0.09
		l3.18,3.561h0.029v5.34H26.492V43.325z"/>
</g>
</svg>
