<?xml version="1.0" encoding="utf-8"?>
<!-- Generator: Adobe Illustrator 16.0.0, SVG Export Plug-In . SVG Version: 6.00 Build 0)  -->
<!DOCTYPE svg PUBLIC "-//W3C//DTD SVG 1.1//EN" "http://www.w3.org/Graphics/SVG/1.1/DTD/svg11.dtd">
<svg version="1.1" id="Ebene_1" xmlns="http://www.w3.org/2000/svg" xmlns:xlink="http://www.w3.org/1999/xlink" x="0px" y="0px"
	 width="100px" height="100px" viewBox="0 0 100 100" enable-background="new 0 0 100 100" xml:space="preserve">
<circle fill="#B2B2B2" cx="50" cy="50" r="50"/>
<g>
	<path fill-rule="evenodd" clip-rule="evenodd" fill="#231F20" d="M83.344,44.724c0-0.544-0.001-0.544-0.538-0.544
		c-8.218,0-16.436,0-24.653-0.001c-0.467,0-0.934-0.02-1.4-0.035c-1.466-0.049-2.774,0.362-3.86,1.363
		c-1.837,1.691-3.657,3.398-5.484,5.099c-2.439,2.271-4.896,4.523-7.312,6.817c-1.33,1.262-1.516,3.313-0.521,4.841
		c1.005,1.546,2.938,2.155,4.671,1.496c0.801-0.304,1.365-0.906,1.968-1.464c1.814-1.678,3.622-3.363,5.435-5.045
		c0.59-0.547,1.419-0.635,2.077-0.229c0.652,0.401,0.955,1.185,0.749,1.921c-0.138,0.49-0.506,0.8-0.855,1.129
		c-1.935,1.82-3.864,3.645-5.799,5.464c-0.502,0.472-1.045,0.813-1.795,0.711c-0.447-0.062-0.909-0.011-1.364-0.011
		c-5.831,0-11.662-0.004-17.493,0.002c-2.471,0.002-4.291,2.275-3.773,4.688c0.391,1.82,1.952,3.064,3.863,3.066
		c6.987,0.002,13.976-0.006,20.964,0.006c1.294,0.004,2.354-0.438,3.266-1.354c3.59-3.613,7.2-7.206,10.795-10.814
		c0.216-0.217,0.425-0.312,0.735-0.311c6.594,0.009,13.188,0.006,19.781,0.006c0.159,0,0.317,0,0.546,0c0-0.21,0-0.367,0-0.523
		C83.344,55.574,83.344,50.149,83.344,44.724z"/>
	<path fill-rule="evenodd" clip-rule="evenodd" fill="#231F20" d="M45.738,40.575c0.007-8.026-6.491-14.562-14.486-14.571
		c-7.974-0.009-14.51,6.471-14.595,14.321c-0.087,7.933,6.207,14.691,14.365,14.757C39.207,55.146,45.73,48.667,45.738,40.575z
		 M25.062,42.955c0.002-0.187,0.08-0.413,0.202-0.553c0.889-1.02,1.792-2.026,2.703-3.026c0.194-0.213,0.283-0.427,0.281-0.721
		c-0.011-2.349,0.001-4.699-0.013-7.048c-0.002-0.329,0.095-0.417,0.417-0.413c1.391,0.017,2.78,0.007,4.17,0.008
		c0.12,0,0.24,0.012,0.383,0.02c0.007,0.144,0.018,0.264,0.018,0.383c0.001,2.35,0.014,4.699-0.013,7.048
		c-0.004,0.366,0.101,0.607,0.335,0.862c0.872,0.952,1.728,1.918,2.581,2.888c0.098,0.111,0.195,0.272,0.196,0.41
		c0.013,1.636,0.008,3.272,0.006,4.908c0,0.046-0.02,0.092-0.033,0.158c-3.741,0-7.474,0-11.242,0c0-0.145,0-0.265,0-0.384
		C25.054,45.981,25.046,44.468,25.062,42.955z"/>
</g>
</svg>
