<?xml version="1.0" encoding="utf-8"?>
<!-- Generator: Adobe Illustrator 16.0.0, SVG Export Plug-In . SVG Version: 6.00 Build 0)  -->
<!DOCTYPE svg PUBLIC "-//W3C//DTD SVG 1.1//EN" "http://www.w3.org/Graphics/SVG/1.1/DTD/svg11.dtd">
<svg version="1.1" id="Ebene_1" xmlns="http://www.w3.org/2000/svg" xmlns:xlink="http://www.w3.org/1999/xlink" x="0px" y="0px"
	 width="100px" height="100px" viewBox="0 0 100 100" enable-background="new 0 0 100 100" xml:space="preserve">
<circle fill="#B2B2B2" cx="108.855" cy="1784.052" r="50"/>
<polygon fill="#231F20" points="138.195,1773.602 119.305,1773.602 119.305,1754.711 98.404,1754.711 98.404,1773.602 
	79.516,1773.602 79.516,1794.502 98.404,1794.502 98.404,1813.392 119.305,1813.392 119.305,1794.502 138.195,1794.502 "/>
<circle fill="#B2B2B2" cx="50.116" cy="49.714" r="50"/>
<path fill="#231F20" d="M63.57,25.676c-5.395,0-10.221,1.855-13.455,4.776c-3.235-2.921-8.061-4.776-13.455-4.776
	s-10.221,1.855-13.455,4.776v43.301c3.234-2.92,8.061-4.776,13.455-4.776s10.22,1.856,13.455,4.776
	c3.234-2.92,8.06-4.776,13.455-4.776s10.221,1.856,13.455,4.776V30.452C73.791,27.531,68.965,25.676,63.57,25.676z"/>
</svg>
