<?xml version="1.0" encoding="utf-8"?>
<!-- Generator: Adobe Illustrator 16.0.0, SVG Export Plug-In . SVG Version: 6.00 Build 0)  -->
<!DOCTYPE svg PUBLIC "-//W3C//DTD SVG 1.1//EN" "http://www.w3.org/Graphics/SVG/1.1/DTD/svg11.dtd">
<svg version="1.1" id="Ebene_1" xmlns="http://www.w3.org/2000/svg" xmlns:xlink="http://www.w3.org/1999/xlink" x="0px" y="0px"
	 width="100px" height="100px" viewBox="0 0 100 100" enable-background="new 0 0 100 100" xml:space="preserve">
<circle fill="#B2B2B2" cx="108.855" cy="1784.053" r="50"/>
<polygon fill="#231F20" points="138.195,1773.602 119.305,1773.602 119.305,1754.711 98.404,1754.711 98.404,1773.602 
	79.516,1773.602 79.516,1794.502 98.404,1794.502 98.404,1813.393 119.305,1813.393 119.305,1794.502 138.195,1794.502 "/>
<circle fill="#B2B2B2" cx="50" cy="50" r="50"/>
<path fill-rule="evenodd" clip-rule="evenodd" fill="#231F20" d="M83.58,58.833c0.27,0,0.61,0,0.982,0c0,3.191,0,6.357,0,9.56
	c-0.143,0.006-0.278,0.019-0.414,0.019c-9.231,0.001-18.463-0.001-27.694,0.008c-0.358,0.001-0.481-0.081-0.479-0.461
	c0.015-2.895,0.008-5.789,0.009-8.683c0-0.126,0.011-0.252,0.019-0.416c0.368,0,0.718,0,1.003,0
	c0.067-0.297,0.088-0.551,0.183-0.774c2.816-6.676,5.64-13.348,8.462-20.021c0.054-0.127,0.099-0.257,0.168-0.438
	c-0.167-0.008-0.3-0.02-0.433-0.02c-4.017-0.001-8.033,0.005-12.05-0.01c-0.398-0.001-0.485,0.118-0.483,0.496
	c0.016,2.958,0.009,5.917,0.009,8.875c0,0.165,0,0.329,0,0.534c-0.153,0.01-0.276,0.024-0.398,0.024
	c-1.695,0.001-3.392-0.009-5.087,0.009c-0.347,0.003-0.428-0.109-0.427-0.437c0.012-2.984,0.007-5.967,0.007-8.951
	c0-0.162,0-0.325,0-0.514c-4.328,0-8.606,0-12.948,0c0.066,0.172,0.118,0.32,0.18,0.465c2.836,6.709,5.674,13.417,8.505,20.127
	c0.071,0.169,0.068,0.369,0.107,0.596c0.153,0.008,0.374,0.021,0.613,0.034c0,3.18,0,6.337,0,9.536
	c-0.143,0.007-0.278,0.021-0.413,0.021c-9.244,0.001-18.488-0.001-27.733,0.008c-0.354,0.001-0.451-0.102-0.45-0.45
	c0.013-2.895,0.007-5.788,0.008-8.684c0-0.137,0.014-0.273,0.022-0.441c0.513,0,0.993,0,1.396,0c0.052-0.259,0.058-0.482,0.14-0.674
	c3.351-7.943,6.71-15.882,10.062-23.825c0.081-0.192,0.124-0.414,0.131-0.624c0.018-0.548,0.024-1.097-0.001-1.644
	c-0.016-0.317,0.106-0.411,0.396-0.379c0.113,0.013,0.229,0.002,0.344,0.002c6.362,0,12.726,0,19.088,0c0.555,0,0.556,0,0.556-0.561
	c0-2.499,0-4.999,0-7.498c0-0.162,0-0.324,0-0.511c1.982,0,3.913,0,5.905,0c0,0.169,0,0.329,0,0.489c0,2.512,0,5.024,0,7.536
	c0,0.544,0,0.545,0.53,0.545c6.427,0,12.854,0,19.279,0c0.687,0,0.623-0.028,0.584,0.6c-0.073,1.168,0.173,2.236,0.638,3.321
	c3.217,7.515,6.386,15.051,9.563,22.582C83.531,58.384,83.534,58.595,83.58,58.833z M76.402,56.69
	c-2.036-4.813-4.051-9.578-6.105-14.436c-2.054,4.858-4.068,9.622-6.104,14.436C68.287,56.69,72.309,56.69,76.402,56.69z
	 M29.524,42.255c-2.054,4.859-4.069,9.625-6.101,14.43c4.095,0,8.123,0,12.203,0C33.591,51.872,31.575,47.104,29.524,42.255z"/>
</svg>
