<?xml version="1.0" encoding="utf-8"?>
<!-- Generator: Adobe Illustrator 16.0.0, SVG Export Plug-In . SVG Version: 6.00 Build 0)  -->
<!DOCTYPE svg PUBLIC "-//W3C//DTD SVG 1.1//EN" "http://www.w3.org/Graphics/SVG/1.1/DTD/svg11.dtd">
<svg version="1.1" id="Ebene_1" xmlns="http://www.w3.org/2000/svg" xmlns:xlink="http://www.w3.org/1999/xlink" x="0px" y="0px"
	 width="100px" height="100px" viewBox="0 0 100 100" enable-background="new 0 0 100 100" xml:space="preserve">
<circle fill="#B2B2B2" cx="108.855" cy="1784.053" r="50"/>
<polygon fill="#231F20" points="138.195,1773.602 119.305,1773.602 119.305,1754.711 98.404,1754.711 98.404,1773.602 
	79.516,1773.602 79.516,1794.502 98.404,1794.502 98.404,1813.393 119.305,1813.393 119.305,1794.502 138.195,1794.502 "/>
<circle fill="#B2B2B2" cx="50" cy="50" r="50"/>
<g>
	<path fill-rule="evenodd" clip-rule="evenodd" fill="#231F20" d="M67.927,36.868c0-0.707,0-1.347,0-2.068
		c-1.338,0-2.58,0.016-3.822-0.009c-0.403-0.008-0.491,0.146-0.486,0.508c0.013,0.89-0.015,1.779-0.014,2.669
		c0.005,8.542,0.013,17.084,0.021,25.627c0,0.08,0.008,0.162-0.001,0.242c-0.046,0.369,0.131,0.471,0.479,0.465
		c1.083-0.016,2.168-0.025,3.251,0.005c0.45,0.013,0.571-0.132,0.569-0.575c-0.017-3.479-0.01-6.957-0.009-10.436
		c0-0.646,0-0.648,0.667-0.648c5.809,0,11.616,0,17.425,0c0.642,0,0.644-0.002,0.644-0.627c0-4.854,0-9.707,0-14.561
		c0-0.175,0-0.35,0-0.593C80.393,36.868,74.188,36.868,67.927,36.868z"/>
	<path fill-rule="evenodd" clip-rule="evenodd" fill="#231F20" d="M35.759,52.66c0.501,0.002,0.618-0.143,0.616-0.628
		c-0.018-4.836-0.011-9.673-0.011-14.509c0-0.662-0.001-0.663-0.655-0.663c-5.759,0-11.517,0-17.275,0c-0.146,0-0.292-0.009-0.437,0
		c-0.268,0.019-0.381-0.09-0.371-0.366c0.014-0.42-0.016-0.842,0.008-1.261c0.02-0.345-0.114-0.444-0.448-0.439
		c-1.115,0.017-2.232,0.021-3.348-0.001c-0.372-0.007-0.463,0.124-0.462,0.476c0.002,2.021-0.028,4.043-0.027,6.064
		c0.007,7.457,0.022,14.913,0.034,22.37c0,0.174,0,0.348,0,0.562c0.229,0.013,0.403,0.03,0.577,0.031
		c1.035,0.002,2.071-0.02,3.105,0.01c0.443,0.013,0.575-0.12,0.573-0.57c-0.019-3.478-0.01-6.955-0.01-10.433
		c0-0.653,0.001-0.655,0.661-0.655C24.113,52.648,29.937,52.643,35.759,52.66z"/>
	<path fill-rule="evenodd" clip-rule="evenodd" fill="#231F20" d="M65.943,72.523c1.369,1.449,2.718,2.877,4.105,4.346
		c1.69-1.647,3.339-3.255,4.959-4.835c-1.436-1.435-2.815-2.812-4.213-4.207C69.21,69.361,67.59,70.93,65.943,72.523z"/>
	<path fill-rule="evenodd" clip-rule="evenodd" fill="#231F20" d="M21.112,71.213c1.642,1.688,3.247,3.339,4.804,4.941
		c1.438-1.438,2.825-2.824,4.225-4.224c-1.521-1.564-3.083-3.171-4.684-4.817C24.02,68.47,22.593,69.816,21.112,71.213z"/>
	<path fill-rule="evenodd" clip-rule="evenodd" fill="#231F20" d="M65.28,19.059c-2.156-0.926-4.271-1.834-6.446-2.768
		c-0.779,1.896-1.52,3.699-2.27,5.523c2.12,0.909,4.188,1.796,6.289,2.696C63.664,22.69,64.456,20.91,65.28,19.059z"/>
	<path fill-rule="evenodd" clip-rule="evenodd" fill="#231F20" d="M31.467,80.008c2.18,0.939,4.303,1.854,6.456,2.781
		c0.78-1.898,1.521-3.699,2.269-5.52c-2.106-0.91-4.16-1.797-6.267-2.705C33.111,76.365,32.305,78.152,31.467,80.008z"/>
	<path fill-rule="evenodd" clip-rule="evenodd" fill="#231F20" d="M75.659,27.836c-1.647-1.686-3.266-3.342-4.795-4.908
		c-1.462,1.43-2.856,2.794-4.267,4.173c1.562,1.6,3.136,3.211,4.731,4.844C72.777,30.57,74.192,29.228,75.659,27.836z"/>
	<path fill-rule="evenodd" clip-rule="evenodd" fill="#231F20" d="M55.829,77.501c0.713,1.858,1.409,3.676,2.139,5.577
		c2.206-0.883,4.337-1.736,6.506-2.605c-0.787-1.893-1.534-3.688-2.291-5.509C60.042,75.818,57.954,76.652,55.829,77.501z"/>
	<path fill-rule="evenodd" clip-rule="evenodd" fill="#231F20" d="M30.825,26.609c-1.369-1.443-2.711-2.856-4.107-4.328
		c-1.686,1.647-3.333,3.256-4.914,4.801c1.403,1.454,2.767,2.867,4.143,4.293C27.583,29.777,29.192,28.204,30.825,26.609z"/>
	<path fill-rule="evenodd" clip-rule="evenodd" fill="#231F20" d="M38.958,16.457c-0.127-0.344-0.294-0.336-0.583-0.219
		c-1.913,0.776-3.832,1.539-5.747,2.309c-0.101,0.04-0.191,0.104-0.323,0.176c0.766,1.828,1.521,3.634,2.278,5.444
		c2.146-0.859,4.224-1.691,6.317-2.53c-0.028-0.098-0.045-0.175-0.072-0.248C40.203,19.745,39.569,18.105,38.958,16.457z"/>
	<path fill-rule="evenodd" clip-rule="evenodd" fill="#231F20" d="M44.425,84.161c2.35,0,4.637,0,6.946,0c0-1.935,0-3.882,0-5.901
		c-2.263,0-4.487,0-6.786,0C44.532,80.2,44.479,82.145,44.425,84.161z"/>
	<path fill-rule="evenodd" clip-rule="evenodd" fill="#231F20" d="M51.92,14.958c-2.149-0.021-4.3-0.046-6.449-0.067
		c-0.026,0-0.053,0.03-0.046,0.025c0,1.969,0,3.914,0,5.933c2.275,0,4.467,0,6.74,0c0.054-1.853,0.105-3.708,0.164-5.563
		C52.339,14.975,52.146,14.96,51.92,14.958z"/>
</g>
</svg>
