<?xml version="1.0" encoding="utf-8"?>
<!-- Generator: Adobe Illustrator 16.0.0, SVG Export Plug-In . SVG Version: 6.00 Build 0)  -->
<!DOCTYPE svg PUBLIC "-//W3C//DTD SVG 1.1//EN" "http://www.w3.org/Graphics/SVG/1.1/DTD/svg11.dtd">
<svg version="1.1" id="Ebene_1" xmlns="http://www.w3.org/2000/svg" xmlns:xlink="http://www.w3.org/1999/xlink" x="0px" y="0px"
	 width="100px" height="100px" viewBox="0 0 100 100" enable-background="new 0 0 100 100" xml:space="preserve">
<circle fill="#B2B2B2" cx="50" cy="50" r="50"/>
<g>
	<path fill="#231F20" d="M40.695,60.423c-2.137-2.279-4.254-4.577-6.385-6.861c-0.502-0.539-1.004-1.078-1.504-1.617
		c-1.287-1.383-3.453-1.461-4.837-0.174c-0.724,0.674-1.091,1.589-1.091,2.506c0,0.835,0.304,1.672,0.918,2.33
		c0,0,5.068,5.449,5.059,5.449l0.064,0.068c0.582,0.619,0.553,1.594-0.066,2.176c-0.619,0.584-1.594,0.555-2.176-0.064l-5.297-5.625
		c-0.133-0.143-0.232-0.303-0.301-0.473l-0.214-0.213V40.353c0-1.891-1.532-3.422-3.422-3.422c-1.891,0-3.422,1.531-3.422,3.422
		v18.99c0,0.907,0.36,1.777,1.001,2.419l10.073,10.073v9.455h15.38V67.241c0.201-1.546-0.189-2.977-1.236-4.076
		C42.381,62.263,41.549,61.332,40.695,60.423z"/>
	<path fill="#231F20" d="M78.556,36.931c-1.89,0-3.422,1.531-3.422,3.422v17.572l-0.214,0.213c-0.069,0.17-0.168,0.33-0.301,0.473
		l-5.297,5.625c-0.582,0.619-1.557,0.648-2.176,0.064c-0.619-0.582-0.648-1.557-0.066-2.176l0.064-0.068
		c-0.01,0,5.059-5.449,5.059-5.449c0.614-0.658,0.918-1.495,0.918-2.33c0-0.917-0.367-1.832-1.091-2.506
		c-1.384-1.287-3.55-1.209-4.837,0.174c-0.501,0.539-1.002,1.078-1.504,1.617c-2.131,2.284-4.248,4.582-6.386,6.861
		c-0.853,0.909-1.686,1.84-2.545,2.742c-1.046,1.1-1.438,2.53-1.235,4.076V81.29h15.379v-9.455l10.073-10.073
		c0.642-0.642,1.002-1.512,1.002-2.419v-18.99C81.978,38.462,80.445,36.931,78.556,36.931z"/>
	<path fill="#231F20" d="M59.795,34.731l2.25-4.279l-5.201-0.455c-0.614-0.054-1.229-0.076-1.842-0.117
		c-0.614-0.031-1.229-0.081-1.842-0.094c-1.229-0.035-2.457-0.092-3.687-0.085c-0.919-0.014-1.84,0.005-2.761,0.021
		c0.082-0.218,0.168-0.435,0.248-0.653c0.661-1.793,1.291-3.6,1.891-5.422c0.589-1.828,1.16-3.663,1.667-5.529
		c0.269-0.926,0.48-1.879,0.724-2.817c0.237-0.94,0.439-1.898,0.623-2.864c-0.635,0.75-1.252,1.51-1.834,2.287
		c-0.576,0.779-1.184,1.543-1.734,2.335c-1.131,1.568-2.198,3.167-3.248,4.774c-1.037,1.613-2.047,3.24-3.023,4.883
		c-0.979,1.641-1.918,3.301-2.846,4.967l-2.289,4.11l5.086,0.415c1.227,0.101,2.453,0.232,3.682,0.291
		c1.227,0.08,2.455,0.141,3.684,0.168c0.852,0.037,1.704,0.044,2.556,0.048c-0.073,0.196-0.154,0.388-0.228,0.583
		c-0.651,1.816-1.285,3.641-1.86,5.492c-0.584,1.848-1.11,3.723-1.595,5.617c-0.24,0.947-0.455,1.907-0.655,2.873
		c-0.215,0.961-0.388,1.939-0.535,2.932c0.665-0.75,1.306-1.511,1.903-2.292c0.613-0.774,1.212-1.555,1.783-2.348
		c1.143-1.587,2.242-3.193,3.284-4.827c1.05-1.63,2.043-3.287,3.017-4.952C57.97,38.12,58.9,36.435,59.795,34.731z"/>
</g>
</svg>
