<?xml version="1.0" encoding="utf-8"?>
<!-- Generator: Adobe Illustrator 16.0.0, SVG Export Plug-In . SVG Version: 6.00 Build 0)  -->
<!DOCTYPE svg PUBLIC "-//W3C//DTD SVG 1.1//EN" "http://www.w3.org/Graphics/SVG/1.1/DTD/svg11.dtd">
<svg version="1.1" id="Ebene_1" xmlns="http://www.w3.org/2000/svg" xmlns:xlink="http://www.w3.org/1999/xlink" x="0px" y="0px"
	 width="100px" height="100px" viewBox="0 0 100 100" enable-background="new 0 0 100 100" xml:space="preserve">
<circle fill="#B2B2B2" cx="50" cy="50" r="50"/>
<g>
	<path fill-rule="evenodd" clip-rule="evenodd" fill="#231F20" d="M67.846,60.457c0-0.525-0.015-1.053-0.046-1.577
		c-0.235-3.881-3.052-7.306-6.813-8.321c-0.41-0.111-0.615-0.047-0.836,0.346c-5.224,9.31-10.464,18.61-15.7,27.913
		c-0.074,0.133-0.14,0.271-0.258,0.501c0.271,0.013,0.45,0.028,0.63,0.028c7.464,0.001,14.927,0.001,22.391,0.001
		c0.634,0,0.635-0.002,0.635-0.635C67.849,72.628,67.85,66.543,67.846,60.457z"/>
	<path fill-rule="evenodd" clip-rule="evenodd" fill="#231F20" d="M55.189,50.249c-0.25,0-0.402,0-0.556,0
		c-4.442,0-8.885-0.001-13.327,0.002c-0.324,0-0.652,0.004-0.973,0.047c-4.774,0.645-8.177,4.528-8.18,9.342
		c-0.005,6.361-0.002,12.724-0.002,19.085c0,0.183,0,0.365,0,0.572c0.169,0.02,0.288,0.047,0.408,0.047
		c1.981,0.003,3.963-0.005,5.943,0.009c0.31,0.002,0.432-0.162,0.56-0.389c5.293-9.407,10.589-18.813,15.884-28.221
		C55.024,50.607,55.086,50.46,55.189,50.249z"/>
	<path fill-rule="evenodd" clip-rule="evenodd" fill="#231F20" d="M39.893,35.069c0.26,5.947,5.142,10.246,11.079,9.754
		c4.146-0.343,7.828-3.445,8.791-7.528c0.613-2.6,0.274-5.259,0.254-7.922c-0.133-0.01-0.269-0.028-0.403-0.028
		c-6.438-0.001-12.877,0.001-19.315-0.008c-0.299,0-0.479,0.097-0.649,0.337c-1.114,1.581-2.243,3.151-3.366,4.726
		c-0.074,0.105-0.131,0.223-0.239,0.408c1.322,0,2.556,0,3.818,0C39.878,34.947,39.89,35.008,39.893,35.069z"/>
	<path fill-rule="evenodd" clip-rule="evenodd" fill="#231F20" d="M39.678,25.501c0.159,0.382,0.365,0.483,0.76,0.482
		c6.349-0.013,12.696-0.009,19.044-0.009c0.181,0,0.361,0,0.566,0c0-1.805,0-3.547,0-5.329c-7.497,0-14.949,0-22.447,0
		c0.062,0.174,0.103,0.305,0.156,0.429C38.399,22.55,39.06,24.017,39.678,25.501z"/>
</g>
</svg>
