<?xml version="1.0" encoding="utf-8"?>
<!-- Generator: Adobe Illustrator 16.0.0, SVG Export Plug-In . SVG Version: 6.00 Build 0)  -->
<!DOCTYPE svg PUBLIC "-//W3C//DTD SVG 1.1//EN" "http://www.w3.org/Graphics/SVG/1.1/DTD/svg11.dtd">
<svg version="1.1" id="Ebene_1" xmlns="http://www.w3.org/2000/svg" xmlns:xlink="http://www.w3.org/1999/xlink" x="0px" y="0px"
	 width="100px" height="100px" viewBox="0 0 100 100" enable-background="new 0 0 100 100" xml:space="preserve">
<circle fill="#B2B2B2" cx="108.855" cy="1784.052" r="50"/>
<polygon fill="#231F20" points="138.195,1773.602 119.305,1773.602 119.305,1754.711 98.404,1754.711 98.404,1773.602 
	79.516,1773.602 79.516,1794.502 98.404,1794.502 98.404,1813.392 119.305,1813.392 119.305,1794.502 138.195,1794.502 "/>
<circle fill="#B2B2B2" cx="50.003" cy="49.764" r="50"/>
<path fill="#231F20" d="M27.601,26.858V72.67h44.804V26.858H27.601z M40.24,54.639h-6.85v-6.85h6.85V54.639z M40.24,43.919h-6.85
	v-6.85h6.85V43.919z M53.428,54.639h-6.85v-6.85h6.85V54.639z M53.428,43.919h-6.85v-6.85h6.85V43.919z M66.615,54.639h-6.85v-6.85
	h6.85V54.639z M66.615,43.919h-6.85v-6.85h6.85V43.919z"/>
</svg>
