<?xml version="1.0" encoding="utf-8"?>
<!-- Generator: Adobe Illustrator 16.0.0, SVG Export Plug-In . SVG Version: 6.00 Build 0)  -->
<!DOCTYPE svg PUBLIC "-//W3C//DTD SVG 1.1//EN" "http://www.w3.org/Graphics/SVG/1.1/DTD/svg11.dtd">
<svg version="1.1" id="Ebene_1" xmlns="http://www.w3.org/2000/svg" xmlns:xlink="http://www.w3.org/1999/xlink" x="0px" y="0px"
	 width="100px" height="100px" viewBox="0 0 100 100" enable-background="new 0 0 100 100" xml:space="preserve">
<circle fill="#B2B2B2" cx="108.855" cy="1784.052" r="50"/>
<polygon fill="#231F20" points="138.195,1773.602 119.305,1773.602 119.305,1754.711 98.404,1754.711 98.404,1773.602 
	79.516,1773.602 79.516,1794.502 98.404,1794.502 98.404,1813.392 119.305,1813.392 119.305,1794.502 138.195,1794.502 "/>
<circle fill="#B2B2B2" cx="50.003" cy="49.625" r="50"/>
<g>
	<circle fill="#231F20" cx="34.058" cy="66.755" r="5.641"/>
	<circle fill="#231F20" cx="65.949" cy="66.755" r="5.641"/>
	<path fill="#231F20" d="M19.224,33.132v33.624h6.686c0-4.494,3.655-8.149,8.148-8.149c4.493,0,8.149,3.655,8.149,8.149h15.594
		c0-4.494,3.655-8.149,8.148-8.149c4.492,0,8.148,3.655,8.148,8.149h6.685V33.132H19.224z M75.051,49.943h-9.102V39.387h9.102
		V49.943z"/>
</g>
</svg>
