<?xml version="1.0" encoding="utf-8"?>
<!-- Generator: Adobe Illustrator 16.0.0, SVG Export Plug-In . SVG Version: 6.00 Build 0)  -->
<!DOCTYPE svg PUBLIC "-//W3C//DTD SVG 1.1//EN" "http://www.w3.org/Graphics/SVG/1.1/DTD/svg11.dtd">
<svg version="1.1" id="Ebene_1" xmlns="http://www.w3.org/2000/svg" xmlns:xlink="http://www.w3.org/1999/xlink" x="0px" y="0px"
	 width="100px" height="100px" viewBox="0 0 100 100" enable-background="new 0 0 100 100" xml:space="preserve">
<circle fill="#B2B2B2" cx="108.855" cy="1784.053" r="50"/>
<polygon fill="#231F20" points="138.195,1773.602 119.305,1773.602 119.305,1754.711 98.404,1754.711 98.404,1773.602 
	79.516,1773.602 79.516,1794.502 98.404,1794.502 98.404,1813.393 119.305,1813.393 119.305,1794.502 138.195,1794.502 "/>
<circle fill="#B2B2B2" cx="50.003" cy="49.625" r="50"/>
<g>
	<path fill-rule="evenodd" clip-rule="evenodd" fill="#231F20" d="M80.406,30.367c-0.138,0.011-0.276,0.001-0.415,0.001
		c-19.999,0-39.997,0-59.995,0c-0.111,0-0.224,0.012-0.333-0.002c-0.355-0.046-0.441,0.121-0.44,0.454
		c0.007,10.915,0.007,21.829-0.001,32.744c0,0.346,0.105,0.447,0.448,0.444c1.956-0.015,3.911-0.007,5.866-0.008
		c0.134-0.001,0.267-0.017,0.402-0.026c0.047-0.451,0.066-0.868,0.138-1.275c0.794-4.526,4.861-7.426,9.396-6.707
		c3.637,0.575,6.603,3.904,6.691,7.541c0.01,0.4,0.14,0.477,0.502,0.476c4.896-0.011,9.791-0.007,14.687-0.008
		c0.146-0.001,0.292-0.019,0.434-0.028c0.097-4.633,3.694-7.726,7.301-8.059c1.959-0.181,3.782,0.24,5.404,1.374
		c2.317,1.62,3.456,3.893,3.572,6.688c2.247,0,4.448,0,6.711,0c0-0.215,0-0.404,0-0.595c0-10.804,0-21.607,0-32.411
		c0-0.083-0.007-0.167,0.001-0.25C80.802,30.445,80.669,30.347,80.406,30.367z M74.95,47.129c-2.99,0-5.96,0-8.958,0
		c0-3.478,0-6.934,0-10.422c3.012,0,5.971,0,8.958,0C74.95,40.189,74.95,43.644,74.95,47.129z"/>
	<path fill-rule="evenodd" clip-rule="evenodd" fill="#231F20" d="M34.11,58.31c-3.156-0.006-5.674,2.511-5.674,5.671
		c0,3.144,2.507,5.659,5.64,5.66c3.122,0.001,5.662-2.527,5.675-5.648C39.764,60.882,37.217,58.315,34.11,58.31z"/>
	<path fill-rule="evenodd" clip-rule="evenodd" fill="#231F20" d="M65.937,58.31c-3.135-0.001-5.71,2.575-5.684,5.687
		c0.027,3.129,2.566,5.65,5.684,5.645c3.129-0.006,5.649-2.535,5.647-5.665C71.581,60.842,69.06,58.311,65.937,58.31z"/>
</g>
</svg>
