<?xml version="1.0" encoding="utf-8"?>
<!-- Generator: Adobe Illustrator 16.0.0, SVG Export Plug-In . SVG Version: 6.00 Build 0)  -->
<!DOCTYPE svg PUBLIC "-//W3C//DTD SVG 1.1//EN" "http://www.w3.org/Graphics/SVG/1.1/DTD/svg11.dtd">
<svg version="1.1" id="Ebene_1" xmlns="http://www.w3.org/2000/svg" xmlns:xlink="http://www.w3.org/1999/xlink" x="0px" y="0px"
	 width="100px" height="100px" viewBox="0 0 100 100" enable-background="new 0 0 100 100" xml:space="preserve">
<circle fill="#B2B2B2" cx="50" cy="50" r="50"/>
<g>
	<path d="M71.159,45.392c-2.861,0-5.652,0-8.535,0c0,7.36,0,14.679,0,21.999c-2.804,0-5.515,0-8.294,0c0-7.35,0-14.654,0-21.995
		c-2.859,0-5.649,0-8.519,0c0,7.364,0,14.685,0,22.003c-2.797,0-5.511,0-8.307,0c0-7.357,0-14.678,0-21.986
		c-2.873,0-5.662,0-8.519,0c0,7.363,0,14.667,0,22.041c-2.345,0-4.62,0-6.932,0c0,3.092,0,6.115,0,9.188c18.725,0,37.394,0,56.056,0
		c0-3.084,0-6.123,0-9.23c-2.334,0-4.608,0-6.95,0C71.159,60.037,71.159,52.73,71.159,45.392z"/>
	<path d="M77.648,36.873c-9.043-4.42-18.053-8.903-27.066-13.379c-0.355-0.176-0.621-0.181-0.978-0.003
		c-5.741,2.854-11.491,5.69-17.238,8.534c-3.515,1.738-7.029,3.479-10.538,5.232c-0.216,0.107-0.519,0.321-0.532,0.503
		c-0.057,0.82-0.025,1.648-0.025,2.508c19.237,0,38.399,0,57.645,0c0-0.493-0.061-0.916,0.009-1.317
		C79.123,37.852,78.627,37.352,77.648,36.873z"/>
</g>
</svg>
