<?xml version="1.0" encoding="utf-8"?>
<!-- Generator: Adobe Illustrator 16.0.0, SVG Export Plug-In . SVG Version: 6.00 Build 0)  -->
<!DOCTYPE svg PUBLIC "-//W3C//DTD SVG 1.1//EN" "http://www.w3.org/Graphics/SVG/1.1/DTD/svg11.dtd">
<svg version="1.1" id="Ebene_1" xmlns="http://www.w3.org/2000/svg" xmlns:xlink="http://www.w3.org/1999/xlink" x="0px" y="0px"
	 width="100px" height="100px" viewBox="0 0 100 100" enable-background="new 0 0 100 100" xml:space="preserve">
<circle fill="#B2B2B2" cx="50" cy="50" r="50"/>
<g>
	<path fill="#231F20" d="M55.919,52.483c0.287-0.837,0.524-1.547,0.801-2.392h-1.581C55.422,50.937,55.656,51.646,55.919,52.483z"/>
	<path fill="#231F20" d="M43.717,52.326c0.227-0.755,0.455-1.44,0.715-2.234H42.92C43.188,50.886,43.439,51.571,43.717,52.326z"/>
	<path fill="#231F20" d="M50,21.099c-15.962,0-28.901,12.938-28.901,28.9c0,15.964,12.939,28.902,28.901,28.902
		s28.902-12.938,28.902-28.902C78.902,34.037,65.962,21.099,50,21.099z M67.906,50.092H63.11c-0.15,0.419-0.288,0.802-0.406,1.131
		c-1.156,3.205-1.946,5.836-3.208,9.149c-0.789,1.945-1.474,4.102-3.577,4.102c-2.419,0.054-3.314-3.889-3.944-6.045
		c-0.895-3.051-1.576-5.631-2.156-7.681c-0.632,2.05-1.209,4.366-2.156,7.363c-0.578,2.104-1.525,6.573-3.945,6.362
		c-3.314-0.157-4.839-5.891-5.68-8.781c-0.49-1.603-1.157-3.563-1.802-5.601h-4.141c-1.349,0-2.442-1.094-2.442-2.442
		c0-1.348,1.094-2.44,2.442-2.44h2.751c-0.271-1.126-0.482-2.208-0.596-3.191c-0.314-2.735,3.104-4.681,5.26-1.893
		c0.898,1.104,1.417,3.125,1.948,5.084h4.567c0.554-1.487,1.301-3.077,2.319-3.718c2.564-1.666,4.191,1.18,5.163,3.718h4.74
		c0.467-1.726,0.967-3.758,1.668-4.928c1-1.578,3.523-2.261,4.943-0.21c0.648,0.908,0.375,2.959-0.191,5.138h3.238
		c1.349,0,2.443,1.093,2.443,2.44C70.35,48.998,69.255,50.092,67.906,50.092z"/>
</g>
</svg>
