<?xml version="1.0" encoding="utf-8"?>
<!-- Generator: Adobe Illustrator 16.0.0, SVG Export Plug-In . SVG Version: 6.00 Build 0)  -->
<!DOCTYPE svg PUBLIC "-//W3C//DTD SVG 1.1//EN" "http://www.w3.org/Graphics/SVG/1.1/DTD/svg11.dtd">
<svg version="1.1" id="Ebene_1" xmlns="http://www.w3.org/2000/svg" xmlns:xlink="http://www.w3.org/1999/xlink" x="0px" y="0px"
	 width="100px" height="100px" viewBox="0 0 100 100" enable-background="new 0 0 100 100" xml:space="preserve">
<circle fill="#B2B2B2" cx="50" cy="50" r="50"/>
<g>
	<path fill="#231F20" d="M52.844,31.915c0.139-0.402,0.253-0.743,0.385-1.149H52.47C52.605,31.172,52.719,31.513,52.844,31.915z"/>
	<path fill="#231F20" d="M46.98,31.84c0.109-0.363,0.219-0.692,0.344-1.074h-0.727C46.727,31.147,46.848,31.477,46.98,31.84z"/>
	<path fill="#231F20" d="M50,16.832c-7.671,0-13.89,6.219-13.89,13.889c0,7.672,6.219,13.891,13.89,13.891s13.89-6.219,13.89-13.891
		C63.89,23.051,57.671,16.832,50,16.832z M58.605,30.766H56.3c-0.071,0.201-0.138,0.386-0.195,0.544
		c-0.556,1.54-0.935,2.805-1.541,4.396c-0.38,0.935-0.708,1.972-1.72,1.972c-1.162,0.025-1.593-1.869-1.895-2.905
		c-0.43-1.466-0.758-2.706-1.036-3.691c-0.305,0.985-0.582,2.099-1.036,3.539c-0.278,1.011-0.734,3.158-1.896,3.058
		c-1.593-0.076-2.326-2.831-2.729-4.221c-0.235-0.77-0.557-1.712-0.866-2.691h-1.99c-0.647,0-1.174-0.525-1.174-1.174
		c0-0.647,0.526-1.173,1.174-1.173h1.323c-0.131-0.541-0.232-1.061-0.287-1.533c-0.151-1.314,1.491-2.25,2.528-0.909
		c0.432,0.529,0.681,1.501,0.936,2.442h2.195c0.266-0.715,0.625-1.479,1.114-1.786c1.232-0.801,2.015,0.566,2.481,1.786h2.278
		c0.225-0.829,0.465-1.806,0.802-2.368c0.48-0.758,1.693-1.086,2.375-0.101c0.312,0.437,0.181,1.422-0.092,2.469h1.557
		c0.648,0,1.174,0.525,1.174,1.173C59.779,30.24,59.254,30.766,58.605,30.766z"/>
	<circle fill="#231F20" cx="26.577" cy="67.649" r="6.625"/>
	<circle fill="#231F20" cx="50" cy="67.649" r="6.625"/>
	<circle fill="#231F20" cx="73.423" cy="67.649" r="6.625"/>
	<path fill="#231F20" d="M52,56.895v-7.288c0-1.103-0.897-2-2-2s-2,0.897-2,2v7.288c0,1.103,0.897,2,2,2S52,57.997,52,56.895z"/>
	<path fill="#231F20" d="M34.591,46.447l-7.822,9.146c-0.348,0.406-0.516,0.923-0.475,1.456c0.042,0.533,0.288,1.018,0.694,1.364
		c0.361,0.31,0.823,0.48,1.3,0.48c0.585,0,1.139-0.255,1.52-0.699l7.822-9.146c0.348-0.406,0.516-0.923,0.475-1.456
		c-0.042-0.533-0.288-1.018-0.693-1.364C36.604,45.539,35.28,45.641,34.591,46.447z"/>
	<path fill="#231F20" d="M71.712,59.472c0.477,0,0.938-0.171,1.301-0.48c0.405-0.347,0.651-0.831,0.693-1.364
		c0.041-0.533-0.127-1.05-0.475-1.456l-7.822-9.146c-0.688-0.804-2.01-0.908-2.82-0.219c-0.405,0.347-0.651,0.831-0.693,1.364
		c-0.041,0.533,0.127,1.05,0.475,1.456l7.822,9.146C70.573,59.217,71.127,59.472,71.712,59.472z"/>
</g>
</svg>
