<?xml version="1.0" encoding="utf-8"?>
<!-- Generator: Adobe Illustrator 16.0.0, SVG Export Plug-In . SVG Version: 6.00 Build 0)  -->
<!DOCTYPE svg PUBLIC "-//W3C//DTD SVG 1.1//EN" "http://www.w3.org/Graphics/SVG/1.1/DTD/svg11.dtd">
<svg version="1.1" id="Ebene_1" xmlns="http://www.w3.org/2000/svg" xmlns:xlink="http://www.w3.org/1999/xlink" x="0px" y="0px"
	 width="100px" height="100px" viewBox="0 0 100 100" enable-background="new 0 0 100 100" xml:space="preserve">
<circle fill="#B2B2B2" cx="108.855" cy="1784.053" r="50"/>
<polygon fill="#231F20" points="138.195,1773.602 119.305,1773.602 119.305,1754.711 98.404,1754.711 98.404,1773.602 
	79.516,1773.602 79.516,1794.502 98.404,1794.502 98.404,1813.393 119.305,1813.393 119.305,1794.502 138.195,1794.502 "/>
<circle fill="#B2B2B2" cx="50.116" cy="50.107" r="50"/>
<g>
	<path fill-rule="evenodd" clip-rule="evenodd" fill="#231F20" d="M53.416,59.096c-3.538-6.126-7.041-12.193-10.581-18.322
		C36.454,51.827,30.11,62.815,23.74,73.847c16.162,0,32.237,0,48.368,0c-4.543-7.867-9.055-15.682-13.605-23.561
		C56.783,53.265,55.115,56.153,53.416,59.096z"/>
	<path fill-rule="evenodd" clip-rule="evenodd" fill="#231F20" d="M76.447,35.628c-0.408-3.346-3.703-5.926-7.033-5.419
		c-1.135,0.173-2.156,0.589-3.088,1.292c-0.053-0.098-0.092-0.167-0.125-0.238c-1.578-3.406-4.756-5.222-8.486-4.846
		c-4.574,0.46-7.938,5.004-7.068,9.549c0.771,4.03,4.082,6.754,8.24,6.762c3.703,0.009,7.406,0.006,11.111-0.002
		c0.414,0,0.832-0.031,1.24-0.098C74.697,42.056,76.838,38.841,76.447,35.628z"/>
</g>
</svg>
