<?xml version="1.0" encoding="utf-8"?>
<!-- Generator: Adobe Illustrator 16.0.0, SVG Export Plug-In . SVG Version: 6.00 Build 0)  -->
<!DOCTYPE svg PUBLIC "-//W3C//DTD SVG 1.1//EN" "http://www.w3.org/Graphics/SVG/1.1/DTD/svg11.dtd">
<svg version="1.1" id="Ebene_1" xmlns="http://www.w3.org/2000/svg" xmlns:xlink="http://www.w3.org/1999/xlink" x="0px" y="0px"
	 width="100px" height="100px" viewBox="0 0 100 100" enable-background="new 0 0 100 100" xml:space="preserve">
<circle fill="#B2B2B2" cx="50" cy="50" r="50"/>
<g>
	<path fill-rule="evenodd" clip-rule="evenodd" fill="#231F20" d="M61.229,45.322c-0.014-7.834-0.01-15.668-0.011-23.503
		c0-0.144-0.015-0.289-0.027-0.514c-3.751,2.582-7.43,5.114-11.182,7.698c0-2.598,0-5.098,0-7.672
		c-0.168,0.101-0.253,0.146-0.332,0.2c-3.516,2.421-7.028,4.846-10.55,7.258c-0.263,0.18-0.353,0.372-0.353,0.682
		c0.009,5.283,0.011,10.565-0.004,15.848c-0.001,0.43,0.123,0.529,0.538,0.528c7.127-0.013,14.254-0.013,21.381-0.001
		C61.103,45.85,61.229,45.753,61.229,45.322z"/>
	<path fill-rule="evenodd" clip-rule="evenodd" fill="#231F20" d="M35.01,52.146c-0.228,0.148-0.354,0.228-0.478,0.312
		c-3.469,2.389-6.936,4.781-10.411,7.162c-0.273,0.187-0.373,0.383-0.372,0.711c0.01,5.268,0.007,10.536,0.007,15.804
		c0,0.548,0.001,0.549,0.534,0.549c7.111,0.001,14.224,0.001,21.336,0c0.548,0,0.549,0,0.549-0.534c0-7.819,0-15.639,0-23.457
		c0-0.146,0-0.291,0-0.551c-3.755,2.585-7.419,5.107-11.165,7.686C35.01,57.238,35.01,54.752,35.01,52.146z"/>
	<path fill-rule="evenodd" clip-rule="evenodd" fill="#231F20" d="M76.244,52.682c0-0.145-0.001-0.289-0.001-0.541
		c-3.765,2.592-7.436,5.119-11.195,7.707c0-2.619,0-5.107,0-7.68c-0.188,0.121-0.313,0.196-0.434,0.279
		c-3.494,2.404-6.986,4.813-10.485,7.211c-0.24,0.164-0.31,0.344-0.31,0.617c0.007,5.312,0.009,10.623-0.004,15.936
		c-0.001,0.393,0.122,0.482,0.494,0.481c7.143-0.01,14.286-0.011,21.429,0.001c0.394,0.001,0.515-0.097,0.514-0.503
		C76.24,68.354,76.243,60.518,76.244,52.682z"/>
</g>
</svg>
