<?xml version="1.0" encoding="utf-8"?>
<!-- Generator: Adobe Illustrator 16.0.0, SVG Export Plug-In . SVG Version: 6.00 Build 0)  -->
<!DOCTYPE svg PUBLIC "-//W3C//DTD SVG 1.1//EN" "http://www.w3.org/Graphics/SVG/1.1/DTD/svg11.dtd">
<svg version="1.1" id="Ebene_1" xmlns="http://www.w3.org/2000/svg" xmlns:xlink="http://www.w3.org/1999/xlink" x="0px" y="0px"
	 width="100px" height="100px" viewBox="0 0 100 100" enable-background="new 0 0 100 100" xml:space="preserve">
<circle fill="#B2B2B2" cx="50" cy="50" r="50"/>
<path fill="#231F20" d="M81.381,54.522v-9.048h-6.463c-0.246-1.38-0.621-2.72-1.08-4.014l5.598-3.234l-4.518-7.837l-5.598,3.23
	c-0.896-1.062-1.883-2.045-2.941-2.942l3.23-5.596l-7.838-4.521l-3.236,5.6c-1.289-0.462-2.627-0.83-4.01-1.08v-6.461h-9.057v6.461
	c-1.373,0.25-2.715,0.618-4.008,1.08l-3.236-5.6l-7.834,4.526l3.227,5.591c-1.057,0.901-2.041,1.88-2.943,2.942l-5.588-3.23
	l-4.523,7.841l5.596,3.23c-0.459,1.296-0.826,2.634-1.08,4.014h-6.459v9.048l6.461,0.004c0.252,1.381,0.621,2.719,1.078,4.014
	l-5.596,3.23l4.523,7.837l5.59-3.23c0.902,1.059,1.885,2.043,2.947,2.942l-3.232,5.598l7.834,4.521l3.24-5.605
	c1.293,0.464,2.631,0.83,4.014,1.079v6.47h9.047v-6.47c1.383-0.249,2.721-0.615,4.01-1.079l3.236,5.607l7.838-4.528l-3.23-5.595
	c1.059-0.899,2.045-1.884,2.941-2.94l5.598,3.23l4.518-7.837l-5.598-3.234c0.459-1.296,0.826-2.634,1.08-4.016L81.381,54.522z
	 M60.042,55.766L60.042,55.766C60.041,61.312,55.545,65.808,50,65.808c-5.546,0-10.042-4.496-10.042-10.042
	c0,0-1.007-7.144,10.042-23.044C61.049,48.622,60.042,55.766,60.042,55.766z"/>
</svg>
