<?xml version="1.0" encoding="utf-8"?>
<!-- Generator: Adobe Illustrator 16.0.0, SVG Export Plug-In . SVG Version: 6.00 Build 0)  -->
<!DOCTYPE svg PUBLIC "-//W3C//DTD SVG 1.1//EN" "http://www.w3.org/Graphics/SVG/1.1/DTD/svg11.dtd">
<svg version="1.1" id="Ebene_1" xmlns="http://www.w3.org/2000/svg" xmlns:xlink="http://www.w3.org/1999/xlink" x="0px" y="0px"
	 width="100px" height="100px" viewBox="0 0 100 100" enable-background="new 0 0 100 100" xml:space="preserve">
<circle fill="#B2B2B2" cx="108.855" cy="1784.053" r="50"/>
<polygon fill="#231F20" points="138.195,1773.602 119.305,1773.602 119.305,1754.711 98.404,1754.711 98.404,1773.602 
	79.516,1773.602 79.516,1794.502 98.404,1794.502 98.404,1813.393 119.305,1813.393 119.305,1794.502 138.195,1794.502 "/>
<circle fill="#B2B2B2" cx="50.312" cy="49.714" r="50"/>
<path fill-rule="evenodd" clip-rule="evenodd" fill="#231F20" d="M74.163,36.115c-0.491,0.25-0.89,0.46-1.293,0.66
	c-7.068,3.503-14.136,7.005-21.204,10.507c-0.818,0.406-1.633,0.819-2.457,1.214c-0.212,0.102-0.302,0.215-0.302,0.463
	c0.008,6.442,0.006,12.884,0.007,19.327c0,0.094,0.012,0.188,0.021,0.321c2.258,0,4.495,0,6.764,0c0,3.51,0,6.979,0,10.477
	c-6.426,0-12.846,0-19.311,0c-0.009-0.164-0.023-0.326-0.023-0.487c-0.002-3.159,0.005-6.317-0.01-9.477
	c-0.002-0.391,0.089-0.52,0.501-0.515c2.036,0.021,4.073,0.01,6.109,0.01c0.163,0,0.325,0,0.535,0c0-15.888,0-31.73,0-47.697
	C53.75,25.998,63.912,31.034,74.163,36.115z"/>
</svg>
