<?xml version="1.0" encoding="utf-8"?>
<!-- Generator: Adobe Illustrator 16.0.0, SVG Export Plug-In . SVG Version: 6.00 Build 0)  -->
<!DOCTYPE svg PUBLIC "-//W3C//DTD SVG 1.1//EN" "http://www.w3.org/Graphics/SVG/1.1/DTD/svg11.dtd">
<svg version="1.1" id="Ebene_1" xmlns="http://www.w3.org/2000/svg" xmlns:xlink="http://www.w3.org/1999/xlink" x="0px" y="0px"
	 width="100px" height="100px" viewBox="0 0 100 100" enable-background="new 0 0 100 100" xml:space="preserve">
<circle fill="#B2B2B2" cx="108.855" cy="1784.052" r="50"/>
<polygon fill="#231F20" points="138.195,1773.602 119.305,1773.602 119.305,1754.711 98.404,1754.711 98.404,1773.602 
	79.516,1773.602 79.516,1794.502 98.404,1794.502 98.404,1813.392 119.305,1813.392 119.305,1794.502 138.195,1794.502 "/>
<circle fill="#B2B2B2" cx="50" cy="50" r="50"/>
<g>
	<path fill="#231F20" d="M53.451,51.696c0.197-0.572,0.359-1.057,0.547-1.633h-1.079C53.111,50.64,53.272,51.124,53.451,51.696z"/>
	<path fill="#231F20" d="M45.117,51.59c0.154-0.517,0.311-0.984,0.488-1.527h-1.033C44.756,50.605,44.928,51.073,45.117,51.59z"/>
	<path fill="#231F20" d="M49.409,30.259c-10.903,0-19.741,8.838-19.741,19.741c0,10.903,8.838,19.742,19.741,19.742
		S69.15,60.903,69.15,50C69.15,39.097,60.312,30.259,49.409,30.259z M61.64,50.063h-3.276c-0.102,0.286-0.196,0.547-0.277,0.772
		c-0.789,2.19-1.329,3.987-2.191,6.251c-0.539,1.328-1.006,2.801-2.443,2.801c-1.651,0.037-2.264-2.656-2.693-4.13
		c-0.611-2.083-1.077-3.845-1.473-5.245c-0.432,1.4-0.826,2.981-1.473,5.029c-0.396,1.437-1.043,4.489-2.695,4.346
		c-2.264-0.107-3.305-4.023-3.88-5.998c-0.335-1.094-0.79-2.435-1.229-3.826h-2.829c-0.921,0-1.669-0.747-1.669-1.668
		c0-0.921,0.748-1.667,1.669-1.667h1.879c-0.185-0.769-0.329-1.508-0.407-2.179c-0.215-1.868,2.12-3.197,3.594-1.293
		c0.613,0.754,0.967,2.135,1.33,3.473h3.119c0.379-1.016,0.889-2.101,1.585-2.539c1.751-1.138,2.862,0.806,3.526,2.539h3.238
		c0.318-1.178,0.66-2.567,1.139-3.365c0.684-1.078,2.407-1.544,3.377-0.143c0.443,0.62,0.256,2.021-0.13,3.508h2.211
		c0.921,0,1.669,0.746,1.669,1.667C63.309,49.316,62.561,50.063,61.64,50.063z"/>
	<path fill="#231F20" d="M49.285,21.266c0.266,0,0.529,0.003,0.793,0.011l3,0.081l0.16-5.998l-2.998-0.081
		c-0.318-0.008-0.637-0.013-0.955-0.013h-3.1l0.1,6H49.285z"/>
	<path fill="#231F20" d="M38.02,23.515c0.27-0.113,0.541-0.222,0.814-0.326l2.803-1.071l-2.143-5.604l-2.803,1.071
		c-0.332,0.127-0.66,0.258-0.986,0.395l-2.768,1.157l2.313,5.536L38.02,23.515z"/>
	<path fill="#231F20" d="M28.556,29.882c0.208-0.209,0.421-0.416,0.635-0.619l2.177-2.064l-4.128-4.354l-2.177,2.064
		c-0.256,0.243-0.51,0.49-0.759,0.74l-2.116,2.125l4.251,4.234L28.556,29.882z"/>
	<path fill="#231F20" d="M76.271,39.22c0.113,0.269,0.221,0.54,0.326,0.812l1.072,2.802l5.604-2.146l-1.072-2.802
		c-0.127-0.332-0.26-0.662-0.397-0.989l-1.161-2.766l-5.532,2.322L76.271,39.22z"/>
	<path fill="#231F20" d="M70.512,30.394l2.064,2.177l4.354-4.128l-2.064-2.177c-0.244-0.257-0.491-0.51-0.742-0.76l-2.129-2.115
		l-4.229,4.256l2.128,2.114C70.103,29.969,70.309,30.18,70.512,30.394z"/>
	<path fill="#231F20" d="M61.207,23.798l2.739,1.221l2.442-5.48l-2.74-1.222c-0.322-0.144-0.648-0.284-0.976-0.418l-2.774-1.142
		l-2.283,5.548l2.773,1.142C60.664,23.56,60.936,23.677,61.207,23.798z"/>
	<path fill="#231F20" d="M20.039,50.512c0-0.275,0.004-0.55,0.012-0.825l0.082-2.999l-5.998-0.165l-0.082,2.999
		c-0.009,0.329-0.014,0.659-0.014,1.04l3,0.017h-3v3l6-0.066V50.512z"/>
	<path fill="#231F20" d="M76.314,61.701c-0.113,0.271-0.229,0.54-0.35,0.807l-1.236,2.734l5.468,2.472l1.235-2.733
		c0.147-0.325,0.289-0.654,0.426-0.984l1.148-2.771l-5.545-2.295L76.314,61.701z"/>
	<path fill="#231F20" d="M60.495,77.532c-0.272,0.113-0.547,0.223-0.824,0.328l-2.802,1.074l2.148,5.603l2.801-1.073
		c0.329-0.127,0.656-0.256,0.979-0.391l2.771-1.152l-2.303-5.54L60.495,77.532z"/>
	<path fill="#231F20" d="M22.232,39.377c0.112-0.272,0.229-0.542,0.349-0.81l1.229-2.737l-5.475-2.458l-1.229,2.737
		c-0.146,0.326-0.287,0.653-0.423,0.984l-1.142,2.774l5.548,2.284L22.232,39.377z"/>
	<path fill="#231F20" d="M84.529,47.38h-6l0.001,3.131c0,0.295-0.005,0.589-0.013,0.884l-0.091,2.998l5.997,0.181l0.09-2.999
		c0.012-0.354,0.017-0.708,0.017-1.097L84.529,47.38z"/>
	<path fill="#231F20" d="M69.973,71.184c-0.21,0.209-0.422,0.414-0.637,0.617l-2.182,2.06l4.119,4.363l2.182-2.06
		c0.256-0.242,0.51-0.488,0.76-0.738l2.121-2.121l-4.242-4.242L69.973,71.184z"/>
	<path fill="#231F20" d="M49.285,79.758c-0.287,0-0.572-0.005-0.856-0.013l-2.999-0.084l-0.168,5.997l2.998,0.085
		c0.341,0.01,0.682,0.015,1.025,0.015h3.033l-0.033-6H49.285z"/>
	<path fill="#231F20" d="M28.017,70.586l-2.06-2.182l-4.362,4.119l2.06,2.182c0.244,0.258,0.49,0.512,0.741,0.763l2.124,2.118
		l4.238-4.247l-2.124-2.119C28.425,71.012,28.219,70.801,28.017,70.586z"/>
	<path fill="#231F20" d="M22.275,61.751c-0.111-0.27-0.221-0.541-0.324-0.815l-1.068-2.804l-5.607,2.135l1.068,2.804
		c0.125,0.331,0.258,0.661,0.393,0.987l1.154,2.77l5.539-2.307L22.275,61.751z"/>
	<path fill="#231F20" d="M37.316,77.205l-2.734-1.234l-2.469,5.469l2.734,1.234c0.326,0.147,0.656,0.29,0.988,0.427l2.774,1.142
		l2.284-5.548l-2.774-1.143C37.85,77.44,37.582,77.325,37.316,77.205z"/>
</g>
</svg>
