<?xml version="1.0" encoding="utf-8"?>
<!-- Generator: Adobe Illustrator 16.0.0, SVG Export Plug-In . SVG Version: 6.00 Build 0)  -->
<!DOCTYPE svg PUBLIC "-//W3C//DTD SVG 1.1//EN" "http://www.w3.org/Graphics/SVG/1.1/DTD/svg11.dtd">
<svg version="1.1" id="Ebene_1" xmlns="http://www.w3.org/2000/svg" xmlns:xlink="http://www.w3.org/1999/xlink" x="0px" y="0px"
	 width="100px" height="100px" viewBox="0 0 100 100" enable-background="new 0 0 100 100" xml:space="preserve">
<circle fill="#B2B2B2" cx="50" cy="50" r="50"/>
<path fill-rule="evenodd" clip-rule="evenodd" fill="#231F20" d="M43.688,45.558c4.174-1.7,8.32-1.697,12.441-0.016
	c0.448-0.846,0.842-1.632,1.273-2.396c0.837-1.482,1.95-2.727,3.292-3.777c1.739-1.361,3.705-2.236,5.862-2.6
	c1.015-0.171,2.078-0.066,3.12-0.062c0.471,0.002,0.944,0.049,1.414,0.1c1.626,0.176,3.105,0.771,4.513,1.583
	c1.401,0.808,2.649,1.803,3.664,3.058c1.065,1.318,1.847,2.797,2.366,4.425c0.357,1.12,0.491,2.26,0.605,3.417
	c0.14,1.431-0.134,2.807-0.424,4.188c-0.297,1.418-0.95,2.699-1.692,3.899c-0.841,1.359-1.967,2.518-3.289,3.455
	c-1.034,0.733-2.159,1.267-3.346,1.728c-1.232,0.479-2.498,0.625-3.781,0.754c-1.637,0.164-3.267-0.019-4.803-0.533
	c-1.649-0.552-3.218-1.292-4.593-2.457c-1.379-1.168-2.443-2.545-3.29-4.094c-0.773-1.414-1.255-2.95-1.397-4.576
	c-0.036-0.419-0.122-0.834-0.171-1.253c-0.024-0.211-0.028-0.427-0.019-0.639c0.032-0.762,0.027-0.741-0.711-1.025
	c-1.619-0.622-3.294-0.93-5.023-0.912c-1.753,0.019-3.412,0.494-5.031,1.119c-0.11,0.042-0.219,0.236-0.229,0.367
	c-0.083,1.09-0.033,2.203-0.239,3.267c-0.208,1.071-0.58,2.133-1.033,3.128c-0.558,1.225-1.256,2.398-2.231,3.349
	c-0.778,0.758-1.566,1.544-2.477,2.116c-1.053,0.662-2.207,1.217-3.388,1.605c-1.018,0.335-2.131,0.391-3.206,0.535
	c-1.372,0.184-2.723-0.016-4.04-0.388c-1.001-0.282-2.03-0.551-2.951-1.016c-2.487-1.255-4.376-3.134-5.696-5.624
	c-0.596-1.124-0.927-2.313-1.314-3.496c-0.085-0.258-0.107-0.544-0.113-0.817c-0.021-0.943-0.034-1.887-0.024-2.83
	c0.005-0.488,0.036-0.979,0.105-1.463c0.188-1.311,0.558-2.565,1.261-3.703c0.465-0.751,0.902-1.521,1.406-2.246
	c0.615-0.884,1.34-1.678,2.265-2.256c0.981-0.613,1.927-1.312,2.974-1.785c1.267-0.572,2.611-0.984,4.042-0.978
	c0.504,0.002,1.009-0.086,1.514-0.089c2.054-0.013,4.016,0.451,5.822,1.396c2.569,1.342,4.574,3.293,5.881,5.913
	c0.123,0.247,0.225,0.505,0.332,0.76C43.436,44.941,43.539,45.197,43.688,45.558z"/>
</svg>
