<?xml version="1.0" encoding="utf-8"?>
<!-- Generator: Adobe Illustrator 16.0.0, SVG Export Plug-In . SVG Version: 6.00 Build 0)  -->
<!DOCTYPE svg PUBLIC "-//W3C//DTD SVG 1.1//EN" "http://www.w3.org/Graphics/SVG/1.1/DTD/svg11.dtd">
<svg version="1.1" id="Ebene_1" xmlns="http://www.w3.org/2000/svg" xmlns:xlink="http://www.w3.org/1999/xlink" x="0px" y="0px"
	 width="100px" height="100px" viewBox="0 0 100 100" enable-background="new 0 0 100 100" xml:space="preserve">
<circle fill="#B2B2B2" cx="50" cy="50" r="50"/>
<path fill-rule="evenodd" clip-rule="evenodd" fill="#231F20" d="M49.971,78.889c-15.886,0.078-29.169-13.072-28.868-29.45
	c0.281-15.252,12.659-28.325,28.909-28.328c16.18-0.004,29.054,13.14,28.889,29.19C78.734,66.452,65.511,78.994,49.971,78.889z
	 M37.731,64.613c0.183,0.012,0.308,0.025,0.432,0.025c7.201,0,14.402-0.002,21.604,0.006c0.336,0.001,0.464-0.08,0.462-0.441
	c-0.012-3.257-0.003-6.514-0.017-9.77c0-0.188-0.089-0.414-0.214-0.555c-1.831-2.07-3.669-4.136-5.523-6.186
	c-0.314-0.348-0.457-0.656-0.453-1.167c0.04-4.885,0.024-9.77,0.022-14.655c0-0.148-0.013-0.297-0.021-0.451c-3.315,0-6.592,0-9.9,0
	c0,0.202,0,0.369,0,0.536c0,4.857-0.003,9.714,0.006,14.571c0.001,0.333-0.095,0.577-0.315,0.823
	c-1.953,2.17-3.897,4.347-5.83,6.534c-0.14,0.158-0.241,0.41-0.242,0.62c-0.015,3.215-0.01,6.429-0.01,9.644
	C37.731,64.287,37.731,64.425,37.731,64.613z"/>
</svg>
