<?xml version="1.0" encoding="utf-8"?>
<!-- Generator: Adobe Illustrator 16.0.0, SVG Export Plug-In . SVG Version: 6.00 Build 0)  -->
<!DOCTYPE svg PUBLIC "-//W3C//DTD SVG 1.1//EN" "http://www.w3.org/Graphics/SVG/1.1/DTD/svg11.dtd">
<svg version="1.1" id="Ebene_1" xmlns="http://www.w3.org/2000/svg" xmlns:xlink="http://www.w3.org/1999/xlink" x="0px" y="0px"
	 width="100px" height="100px" viewBox="0 0 100 100" enable-background="new 0 0 100 100" xml:space="preserve">
<circle fill="#B2B2B2" cx="50" cy="50" r="50"/>
<path fill="#231F20" d="M63.455,25.962c-5.395,0-10.221,1.855-13.455,4.776c-3.235-2.921-8.061-4.776-13.455-4.776
	s-10.221,1.855-13.455,4.776v43.301c3.234-2.92,8.061-4.776,13.455-4.776S46.765,71.119,50,74.039
	c3.234-2.92,8.061-4.776,13.455-4.776s10.221,1.856,13.455,4.776V30.738C73.676,27.817,68.85,25.962,63.455,25.962z M50,39.797
	c2.74,0,4.961,2.221,4.961,4.959c0,2.741-2.221,4.962-4.961,4.962s-4.961-2.221-4.961-4.962C45.039,42.018,47.26,39.797,50,39.797z
	 M56.943,58.204H43.057v-3.843c0-2.001,1.621-3.623,3.623-3.623h6.641c2.002,0,3.623,1.622,3.623,3.623V58.204z"/>
</svg>
