<?xml version="1.0" encoding="utf-8"?>
<!-- Generator: Adobe Illustrator 16.0.0, SVG Export Plug-In . SVG Version: 6.00 Build 0)  -->
<!DOCTYPE svg PUBLIC "-//W3C//DTD SVG 1.1//EN" "http://www.w3.org/Graphics/SVG/1.1/DTD/svg11.dtd">
<svg version="1.1" id="Ebene_1" xmlns="http://www.w3.org/2000/svg" xmlns:xlink="http://www.w3.org/1999/xlink" x="0px" y="0px"
	 width="100px" height="100px" viewBox="0 0 100 100" enable-background="new 0 0 100 100" xml:space="preserve">
<circle fill="#B2B2B2" cx="50" cy="50" r="50"/>
<g>
	<path fill-rule="evenodd" clip-rule="evenodd" fill="#231F20" d="M76.546,30.418c-1.302-1.087-2.729-1.971-4.283-2.646
		c-3.694-1.606-7.549-2.107-11.54-1.639c-3.483,0.409-6.688,1.553-9.537,3.627c-0.407,0.296-0.792,0.623-1.196,0.943
		c-1.237-1.093-2.588-1.99-4.068-2.68c-4.64-2.165-9.473-2.581-14.442-1.485c-2.967,0.654-5.663,1.915-8.009,3.876
		c-0.219,0.184-0.381,0.359-0.381,0.699c0.012,14.166,0.01,28.332,0.011,42.496c0,0.123,0.021,0.246,0.036,0.412
		c3.927-3.307,8.456-4.73,13.466-4.723c5.011,0.008,9.534,1.449,13.402,4.736c3.876-3.291,8.401-4.73,13.412-4.736
		c5.007-0.006,9.533,1.42,13.486,4.748c0-0.246,0-0.379,0-0.512c0-14.121-0.001-28.243,0.008-42.363
		C76.91,30.834,76.794,30.625,76.546,30.418z M61.835,58.59c-7.339,0-14.665,0-22.034,0c0-4.83,0-9.678,0-14.568
		C39.962,44.015,40.122,44,40.282,44c1.281-0.002,2.564-0.021,3.846,0.009c0.444,0.01,0.551-0.139,0.541-0.559
		c-0.025-1.147-0.009-2.296-0.009-3.444c0-0.176,0-0.353,0-0.575c0.201-0.01,0.359-0.025,0.518-0.025
		c3.757-0.001,7.514,0.007,11.27-0.011c0.435-0.002,0.518,0.149,0.511,0.536c-0.02,1.207,0.004,2.416-0.014,3.623
		c-0.005,0.355,0.116,0.457,0.464,0.451C58.704,43.989,60.002,44,61.299,44c0.161,0,0.322,0,0.536,0
		C61.835,48.899,61.835,53.727,61.835,58.59z"/>
	<path fill-rule="evenodd" clip-rule="evenodd" fill="#231F20" d="M47.294,43.962c2.364,0,4.693,0,7.039,0c0-0.658,0-1.277,0-1.931
		c-2.383,0-4.711,0-7.039,0C47.294,42.702,47.294,43.333,47.294,43.962z"/>
</g>
</svg>
