<?xml version="1.0" encoding="utf-8"?>
<!-- Generator: Adobe Illustrator 16.0.0, SVG Export Plug-In . SVG Version: 6.00 Build 0)  -->
<!DOCTYPE svg PUBLIC "-//W3C//DTD SVG 1.1//EN" "http://www.w3.org/Graphics/SVG/1.1/DTD/svg11.dtd">
<svg version="1.1" id="Ebene_1" xmlns="http://www.w3.org/2000/svg" xmlns:xlink="http://www.w3.org/1999/xlink" x="0px" y="0px"
	 width="100px" height="100px" viewBox="0 0 100 100" enable-background="new 0 0 100 100" xml:space="preserve">
<circle fill="#B2B2B2" cx="50" cy="50" r="50"/>
<path fill="#231F20" d="M65.186,22.588c-1.656,0-3,1.343-3,3v6.905c0,4.057-3.3,7.357-7.357,7.357H53V25.588c0-1.657-1.343-3-3-3
	c-1.656,0-3,1.343-3,3v14.263h-1.828c-4.057,0-7.357-3.301-7.357-7.357v-6.905c0-1.657-1.344-3-3-3s-3,1.343-3,3v6.905
	c0,7.365,5.992,13.357,13.357,13.357H47v6.389c-1.767,1.034-2.957,2.946-2.957,5.142v21.099c0,3.29,2.668,5.958,5.957,5.958
	c3.291,0,5.958-2.668,5.958-5.958V57.381c0-2.195-1.19-4.107-2.958-5.142v-6.389h1.828c7.365,0,13.357-5.992,13.357-13.357v-6.905
	C68.186,23.931,66.843,22.588,65.186,22.588z"/>
</svg>
