<?xml version="1.0" encoding="utf-8"?>
<!-- Generator: Adobe Illustrator 16.0.0, SVG Export Plug-In . SVG Version: 6.00 Build 0)  -->
<!DOCTYPE svg PUBLIC "-//W3C//DTD SVG 1.1//EN" "http://www.w3.org/Graphics/SVG/1.1/DTD/svg11.dtd">
<svg version="1.1" id="Ebene_1" xmlns="http://www.w3.org/2000/svg" xmlns:xlink="http://www.w3.org/1999/xlink" x="0px" y="0px"
	 width="100px" height="100px" viewBox="0 0 100 100" enable-background="new 0 0 100 100" xml:space="preserve">
<circle fill="#B2B2B2" cx="50" cy="50" r="50"/>
<g>
	<path fill="#231F20" d="M70.991,61.799c-11.896-7.48-17.295-6.726-17.295-6.726c-5.025,0-9.098,4.074-9.098,9.099
		c0,5.025,4.073,9.1,9.098,9.1c0,0,5.398,0.755,17.296-6.726l8.504,4.291V56.952L70.991,61.799z M49.749,65.638
		c-0.81,0-1.465-0.655-1.465-1.466c0-0.809,0.655-1.465,1.465-1.465s1.465,0.656,1.465,1.465
		C51.214,64.981,50.559,65.638,49.749,65.638z"/>
	<path fill="#231F20" d="M46.452,29.552c-1.442,2.498-2.84,4.917-4.264,7.385c-2.966-5.134-5.902-10.221-8.87-15.358
		c-5.349,9.266-10.667,18.476-16.006,27.724c13.547,0,27.022,0,40.543,0C54.048,42.708,50.266,36.156,46.452,29.552z"/>
</g>
</svg>
