<?xml version="1.0" encoding="utf-8"?>
<!-- Generator: Adobe Illustrator 16.0.0, SVG Export Plug-In . SVG Version: 6.00 Build 0)  -->
<!DOCTYPE svg PUBLIC "-//W3C//DTD SVG 1.1//EN" "http://www.w3.org/Graphics/SVG/1.1/DTD/svg11.dtd">
<svg version="1.1" id="Ebene_1" xmlns="http://www.w3.org/2000/svg" xmlns:xlink="http://www.w3.org/1999/xlink" x="0px" y="0px"
	 width="100px" height="100px" viewBox="0 0 100 100" enable-background="new 0 0 100 100" xml:space="preserve">
<circle fill="#B2B2B2" cx="108.855" cy="1784.053" r="50"/>
<polygon fill="#231F20" points="138.195,1773.602 119.305,1773.602 119.305,1754.711 98.404,1754.711 98.404,1773.602 
	79.516,1773.602 79.516,1794.502 98.404,1794.502 98.404,1813.393 119.305,1813.393 119.305,1794.502 138.195,1794.502 "/>
<circle fill="#B2B2B2" cx="50.235" cy="50.22" r="50"/>
<path fill-rule="evenodd" clip-rule="evenodd" fill="#231F20" d="M58.212,48.794c3.235,3.621,6.513,7.286,9.783,10.957
	c0.095,0.107,0.168,0.277,0.168,0.419c0.009,5.381,0.004,10.763,0.015,16.144c0.001,0.367-0.162,0.404-0.46,0.403
	c-2.325-0.008-4.65-0.004-6.976-0.004c-9.271,0-18.544,0-27.815,0c-0.629,0-0.629-0.001-0.629-0.626
	c-0.001-5.231,0.002-10.464-0.007-15.695c-0.001-0.334,0.094-0.565,0.322-0.818c3.207-3.568,6.402-7.147,9.584-10.738
	c0.153-0.174,0.217-0.481,0.218-0.727c0.011-7.08,0.009-14.16,0.009-21.24c0-0.88,0.009-1.76-0.004-2.639
	c-0.005-0.3,0.081-0.42,0.403-0.419c5.038,0.008,10.076,0.011,15.114-0.003c0.474-0.001,0.394,0.281,0.395,0.555
	c0,7.542,0,15.084,0,22.627c0,0.432,0.008,0.865-0.005,1.297C58.323,48.427,58.266,48.567,58.212,48.794z M45.507,56.767
	c-2.384-0.006-4.319,1.904-4.317,4.262c0.002,2.33,1.932,4.268,4.268,4.287c2.322,0.018,4.273-1.924,4.281-4.26
	C49.746,58.69,47.854,56.773,45.507,56.767z M56.336,71.179c1.613,0.008,2.95-1.314,2.939-2.91c-0.01-1.581-1.33-2.9-2.91-2.904
	c-1.604-0.006-2.944,1.326-2.94,2.92C53.43,69.871,54.737,71.172,56.336,71.179z"/>
</svg>
