<?xml version="1.0" encoding="utf-8"?>
<!-- Generator: Adobe Illustrator 16.0.0, SVG Export Plug-In . SVG Version: 6.00 Build 0)  -->
<!DOCTYPE svg PUBLIC "-//W3C//DTD SVG 1.1//EN" "http://www.w3.org/Graphics/SVG/1.1/DTD/svg11.dtd">
<svg version="1.1" id="Ebene_1" xmlns="http://www.w3.org/2000/svg" xmlns:xlink="http://www.w3.org/1999/xlink" x="0px" y="0px"
	 width="100px" height="100px" viewBox="0 0 100 100" enable-background="new 0 0 100 100" xml:space="preserve">
<circle fill="#B2B2B2" cx="108.855" cy="1784.052" r="50"/>
<polygon fill="#231F20" points="138.195,1773.602 119.305,1773.602 119.305,1754.711 98.404,1754.711 98.404,1773.602 
	79.516,1773.602 79.516,1794.502 98.404,1794.502 98.404,1813.392 119.305,1813.392 119.305,1794.502 138.195,1794.502 "/>
<circle fill="#B2B2B2" cx="50.235" cy="50.22" r="50"/>
<path fill="#231F20" d="M68.09,59.829L58.032,48.568h0.282V23.723H42.438v24.846L32.38,59.829h-0.09v16.888h35.888V59.829H68.09z
	 M45.461,65.334c-2.383,0-4.315-1.932-4.315-4.315s1.932-4.315,4.315-4.315s4.315,1.932,4.315,4.315S47.844,65.334,45.461,65.334z
	 M56.371,71.241c-1.631,0-2.953-1.322-2.953-2.954c0-1.631,1.322-2.953,2.953-2.953s2.953,1.322,2.953,2.953
	C59.324,69.919,58.002,71.241,56.371,71.241z"/>
</svg>
