<?xml version="1.0" encoding="utf-8"?>
<!-- Generator: Adobe Illustrator 16.0.0, SVG Export Plug-In . SVG Version: 6.00 Build 0)  -->
<!DOCTYPE svg PUBLIC "-//W3C//DTD SVG 1.1//EN" "http://www.w3.org/Graphics/SVG/1.1/DTD/svg11.dtd">
<svg version="1.1" id="Ebene_1" xmlns="http://www.w3.org/2000/svg" xmlns:xlink="http://www.w3.org/1999/xlink" x="0px" y="0px"
	 width="100px" height="100px" viewBox="0 0 100 100" enable-background="new 0 0 100 100" xml:space="preserve">
<circle fill="#B2B2B2" cx="108.855" cy="1784.053" r="50"/>
<polygon fill="#231F20" points="138.195,1773.602 119.305,1773.602 119.305,1754.711 98.404,1754.711 98.404,1773.602 
	79.516,1773.602 79.516,1794.502 98.404,1794.502 98.404,1813.393 119.305,1813.393 119.305,1794.502 138.195,1794.502 "/>
<circle fill="#B2B2B2" cx="50" cy="50" r="50"/>
<g>
	<path fill-rule="evenodd" clip-rule="evenodd" fill="#231F20" d="M35.489,53.187c-0.61-2.647-2.879-4.439-5.603-4.44
		c-3.386-0.001-6.771,0-10.156,0c-3.343,0.001-5.836,2.491-5.839,5.842c-0.004,3.857-0.002,7.714-0.001,11.571
		c0,0.563,0.001,0.564,0.572,0.564c6.868,0.001,13.735,0.001,20.603,0.001c0.164,0,0.328,0,0.537,0
		c0.011-0.179,0.021-0.288,0.021-0.398c0.002-4.023,0.005-8.047-0.004-12.07C35.618,53.899,35.569,53.535,35.489,53.187z"/>
	<path fill-rule="evenodd" clip-rule="evenodd" fill="#231F20" d="M86.091,55.188c-0.007-0.785-0.133-1.585-0.32-2.351
		c-0.59-2.418-2.673-3.96-4.937-3.999c-3.865-0.068-7.732-0.002-11.598,0.073c-1.309,0.024-2.388,0.731-3.261,1.659
		c-1.107,1.175-1.507,2.625-1.494,4.234c0.028,3.76,0.009,7.52,0.009,11.279c0,0.178,0,0.354,0,0.565c7.236,0,14.402,0,21.615,0
		c0-0.204,0-0.381,0-0.558C86.105,62.457,86.124,58.822,86.091,55.188z"/>
	<path fill-rule="evenodd" clip-rule="evenodd" fill="#231F20" d="M75.236,45.598c3.393,0.021,6.158-2.701,6.193-6.098
		c0.035-3.399-2.679-6.2-6.12-6.213c-3.46-0.013-6.154,2.687-6.196,6.14C69.072,42.798,71.848,45.576,75.236,45.598z"/>
	<path fill-rule="evenodd" clip-rule="evenodd" fill="#231F20" d="M24.762,45.598c3.405,0.001,6.198-2.792,6.171-6.172
		c-0.027-3.391-2.781-6.139-6.162-6.15c-3.387-0.012-6.169,2.781-6.16,6.184C18.619,42.851,21.37,45.597,24.762,45.598z"/>
	<path fill-rule="evenodd" clip-rule="evenodd" fill="#231F20" d="M49.036,42.001c-1.585-0.008-2.884,1.298-2.874,2.89
		c0.009,1.578,1.29,2.861,2.858,2.862c1.599,0.001,2.868-1.279,2.863-2.889C51.88,43.28,50.615,42.009,49.036,42.001z"/>
	<path fill-rule="evenodd" clip-rule="evenodd" fill="#231F20" d="M58.303,42.001c-1.561-0.027-2.865,1.242-2.898,2.819
		c-0.032,1.592,1.236,2.909,2.826,2.933c1.564,0.023,2.865-1.241,2.897-2.818C61.16,43.342,59.896,42.029,58.303,42.001z"/>
	<path fill-rule="evenodd" clip-rule="evenodd" fill="#231F20" d="M39.807,42.001c-1.584-0.013-2.875,1.281-2.874,2.881
		c0.001,1.582,1.268,2.861,2.842,2.871c1.598,0.01,2.866-1.266,2.865-2.88C42.639,43.28,41.39,42.014,39.807,42.001z"/>
</g>
</svg>
