<?xml version="1.0" encoding="utf-8"?>
<!-- Generator: Adobe Illustrator 16.0.0, SVG Export Plug-In . SVG Version: 6.00 Build 0)  -->
<!DOCTYPE svg PUBLIC "-//W3C//DTD SVG 1.1//EN" "http://www.w3.org/Graphics/SVG/1.1/DTD/svg11.dtd">
<svg version="1.1" id="Ebene_1" xmlns="http://www.w3.org/2000/svg" xmlns:xlink="http://www.w3.org/1999/xlink" x="0px" y="0px"
	 width="100px" height="100px" viewBox="0 0 100 100" enable-background="new 0 0 100 100" xml:space="preserve">
<circle fill="#B2B2B2" cx="108.855" cy="1784.053" r="50"/>
<polygon fill="#231F20" points="138.195,1773.602 119.305,1773.602 119.305,1754.711 98.404,1754.711 98.404,1773.602 
	79.516,1773.602 79.516,1794.502 98.404,1794.502 98.404,1813.393 119.305,1813.393 119.305,1794.502 138.195,1794.502 "/>
<circle fill="#B2B2B2" cx="50" cy="50" r="50"/>
<g>
	<path fill-rule="evenodd" clip-rule="evenodd" fill="#231F20" d="M53.732,48.343c-0.101-0.293-0.069-0.459,0.173-0.668
		c2.137-1.847,2.812-4.884,1.67-7.429c-1.165-2.597-3.862-4.165-6.659-3.764c-2.674,0.383-4.529,1.893-5.318,4.479
		c-0.792,2.598-0.096,4.876,1.918,6.717c0.233,0.213,0.269,0.371,0.168,0.663c-3.592,10.448-7.173,20.898-10.755,31.349
		c-0.048,0.139-0.082,0.282-0.137,0.475c0.201,0.012,0.348,0.027,0.495,0.027c1.818,0.002,3.638-0.009,5.456,0.01
		c0.344,0.004,0.483-0.119,0.588-0.428c0.79-2.337,1.601-4.668,2.388-7.007c0.095-0.281,0.208-0.387,0.516-0.386
		c3.651,0.012,7.303,0.011,10.954,0.001c0.283-0.001,0.405,0.081,0.497,0.354c0.792,2.352,1.609,4.694,2.4,7.045
		c0.107,0.317,0.257,0.423,0.592,0.42c1.832-0.017,3.665-0.008,5.498-0.008c0.132,0,0.265,0,0.459,0
		c-0.073-0.243-0.118-0.413-0.176-0.579C60.887,69.189,57.314,58.765,53.732,48.343z M45.726,66.932
		c1.323-3.86,2.633-7.682,3.983-11.619c1.349,3.938,2.657,7.759,3.98,11.619C51.009,66.932,48.395,66.932,45.726,66.932z"/>
	<path fill-rule="evenodd" clip-rule="evenodd" fill="#231F20" d="M35.659,55.388c-3.747-4.006-5.389-8.77-4.955-14.21
		c0.328-4.104,1.981-7.67,4.761-10.71c0.271-0.295,0.532-0.599,0.9-1.013c-1.284-1.251-2.528-2.479-3.792-3.684
		c-0.314-0.3-0.68-0.266-1.003,0.061c-0.429,0.434-0.847,0.881-1.232,1.354c-4.572,5.591-6.431,11.964-5.443,19.132
		c0.708,5.141,2.928,9.563,6.499,13.305c0.699,0.734,0.71,0.704,1.425,0.02c0.963-0.92,1.892-1.877,2.831-2.821
		C36.222,56.245,36.218,55.984,35.659,55.388z"/>
	<path fill-rule="evenodd" clip-rule="evenodd" fill="#231F20" d="M74.973,38.566c-0.851-4.862-3.032-9.068-6.458-12.624
		c-0.485-0.503-0.806-0.497-1.3-0.005c-0.982,0.98-1.966,1.96-2.942,2.946c-0.202,0.204-0.376,0.437-0.583,0.681
		c3.615,3.699,5.632,8.04,5.636,13.25c0.002,5.223-2.01,9.579-5.475,13.103c1.393,1.447,2.745,2.853,4.119,4.28
		c0.164-0.149,0.345-0.3,0.509-0.466c1.205-1.219,2.27-2.552,3.166-4.011C74.9,50.422,76.045,44.697,74.973,38.566z"/>
	<path fill-rule="evenodd" clip-rule="evenodd" fill="#231F20" d="M35.737,50.028c0.652,1.204,1.472,2.286,2.439,3.253
		c0.428,0.427,0.518,0.447,0.949,0.03c1.107-1.071,2.197-2.161,3.277-3.261c0.369-0.376,0.345-0.696,0-1.104
		c-0.089-0.106-0.188-0.205-0.277-0.31c-1.419-1.656-2.164-3.581-2.176-5.755c-0.013-2.332,0.808-4.366,2.369-6.1
		c0.48-0.533,0.479-0.81-0.021-1.314c-0.861-0.867-1.713-1.744-2.595-2.589c-1.127-1.08-0.872-1.242-2.06,0.074
		c-2.523,2.795-3.684,6.146-3.751,9.727C33.931,45.389,34.524,47.788,35.737,50.028z"/>
	<path fill-rule="evenodd" clip-rule="evenodd" fill="#231F20" d="M59.905,44.223c-0.273,1.759-1.025,3.296-2.232,4.609
		c-0.491,0.533-0.482,0.835,0.025,1.352c0.379,0.386,0.764,0.768,1.147,1.148c0.796,0.791,1.593,1.581,2.386,2.367
		c0.104-0.039,0.135-0.043,0.156-0.059c0.055-0.043,0.107-0.088,0.157-0.135c2.883-2.771,4.351-6.193,4.498-10.154
		c0.156-4.178-1.258-7.804-4.111-10.864c-0.439-0.471-0.781-0.481-1.237-0.028c-0.975,0.968-1.944,1.941-2.915,2.913
		c-0.636,0.636-0.632,0.823-0.053,1.491C59.566,38.984,60.339,41.431,59.905,44.223z"/>
</g>
</svg>
