<?xml version="1.0" encoding="utf-8"?>
<!-- Generator: Adobe Illustrator 16.0.0, SVG Export Plug-In . SVG Version: 6.00 Build 0)  -->
<!DOCTYPE svg PUBLIC "-//W3C//DTD SVG 1.1//EN" "http://www.w3.org/Graphics/SVG/1.1/DTD/svg11.dtd">
<svg version="1.1" id="Ebene_1" xmlns="http://www.w3.org/2000/svg" xmlns:xlink="http://www.w3.org/1999/xlink" x="0px" y="0px"
	 width="100px" height="100px" viewBox="0 0 100 100" enable-background="new 0 0 100 100" xml:space="preserve">
<circle fill="#B2B2B2" cx="108.855" cy="1784.053" r="50"/>
<polygon fill="#231F20" points="138.195,1773.602 119.305,1773.602 119.305,1754.711 98.404,1754.711 98.404,1773.602 
	79.516,1773.602 79.516,1794.502 98.404,1794.502 98.404,1813.393 119.305,1813.393 119.305,1794.502 138.195,1794.502 "/>
<circle fill="#B2B2B2" cx="50" cy="50" r="50"/>
<g>
	<path fill-rule="evenodd" clip-rule="evenodd" fill="#231F20" d="M50.008,53.415c-8.37-7.471-16.722-14.926-25.122-22.425
		c0,10.829,0,21.574,0,32.343c16.767,0,33.5,0,50.229,0c0-10.773,0-21.523,0-32.331C66.723,38.495,58.374,45.947,50.008,53.415z"/>
	<path fill-rule="evenodd" clip-rule="evenodd" fill="#231F20" d="M72.136,28.362c-14.779,0-29.484,0-44.256,0
		c7.403,6.61,14.756,13.174,22.128,19.755C57.38,41.536,64.732,34.972,72.136,28.362z"/>
</g>
</svg>
