<?xml version="1.0" encoding="utf-8"?>
<!-- Generator: Adobe Illustrator 16.0.0, SVG Export Plug-In . SVG Version: 6.00 Build 0)  -->
<!DOCTYPE svg PUBLIC "-//W3C//DTD SVG 1.1//EN" "http://www.w3.org/Graphics/SVG/1.1/DTD/svg11.dtd">
<svg version="1.1" id="Ebene_1" xmlns="http://www.w3.org/2000/svg" xmlns:xlink="http://www.w3.org/1999/xlink" x="0px" y="0px"
	 width="100px" height="100px" viewBox="0 0 100 100" enable-background="new 0 0 100 100" xml:space="preserve">
<circle fill="#B2B2B2" cx="108.855" cy="1784.053" r="50"/>
<polygon fill="#231F20" points="138.195,1773.602 119.305,1773.602 119.305,1754.711 98.404,1754.711 98.404,1773.602 
	79.516,1773.602 79.516,1794.502 98.404,1794.502 98.404,1813.393 119.305,1813.393 119.305,1794.502 138.195,1794.502 "/>
<circle fill="#B2B2B2" cx="50.387" cy="49.586" r="50"/>
<g>
	<path fill-rule="evenodd" clip-rule="evenodd" fill="#231F20" d="M86.225,58.01c0.002-0.281-0.088-0.348-0.356-0.344
		c-1.29,0.012-2.581,0.006-3.872,0.006c-0.121,0-0.242,0-0.409,0c0-4.873,0-9.706,0-14.547c-1.876,0-3.705,0-5.586,0
		c0,4.859,0,9.684,0,14.528c-1.835,0-3.639,0-5.488,0c0-4.852,0-9.684,0-14.522c-1.884,0-3.722,0-5.609,0c0,4.85,0,9.682,0,14.522
		c-1.847,0-3.643,0-5.484,0c0-4.85,0-9.681,0-14.513c-1.882,0-3.717,0-5.586,0c0,4.851,0,9.673,0,14.511
		c-0.115,0.01-0.195,0.02-0.277,0.02c-1.332,0.002-2.664,0.01-3.996-0.006c-0.281-0.002-0.35,0.086-0.348,0.355
		c0.014,1.207,0.006,2.416,0.006,3.623c0,0.613,0.01,1.229-0.004,1.842c-0.006,0.236,0.075,0.324,0.305,0.301
		c0.103-0.01,0.207-0.002,0.312-0.002c9.556,0,19.11,0,28.666,0c2.456,0,4.913-0.004,7.369,0.006c0.264,0,0.361-0.061,0.359-0.346
		C86.212,61.633,86.212,59.822,86.225,58.01z"/>
	<path fill-rule="evenodd" clip-rule="evenodd" fill="#231F20" d="M41.37,51.963c-0.196-2.821-2.607-5.079-5.435-5.082
		c-3.413-0.004-6.825-0.004-10.239,0c-2.964,0.003-5.455,2.494-5.457,5.457c-0.002,3.871,0,7.74,0,11.611c0,0.408,0,0.41,0.404,0.41
		c3.393,0,6.784,0,10.176,0c3.393,0,6.785,0,10.178,0c0.404,0,0.405,0,0.405-0.41c0.001-3.684,0.001-7.367-0.001-11.051
		C41.401,52.586,41.392,52.273,41.37,51.963z"/>
	<path fill-rule="evenodd" clip-rule="evenodd" fill="#231F20" d="M86.708,38.195c0.005-0.184-0.062-0.279-0.223-0.356
		c-0.713-0.342-1.421-0.693-2.129-1.044c-5.451-2.699-10.901-5.398-16.35-8.104c-0.205-0.102-0.363-0.11-0.574-0.006
		c-6.155,3.059-12.314,6.109-18.475,9.155c-0.176,0.086-0.25,0.178-0.243,0.374c0.014,0.385,0.003,0.77,0.004,1.155
		c0.001,0.401,0.001,0.402,0.41,0.402c12.387,0,24.773,0,37.159,0c0.123,0,0.246,0,0.416,0
		C86.704,39.211,86.695,38.703,86.708,38.195z"/>
	<path fill-rule="evenodd" clip-rule="evenodd" fill="#231F20" d="M21.919,37.328c-0.008,0.271,0.094,0.33,0.342,0.326
		c0.771-0.014,1.541,0,2.311-0.009c0.203-0.002,0.272,0.066,0.273,0.271c0.002,0.279,0.021,0.562,0.064,0.838
		c0.453,2.814,2.705,4.866,5.623,5.031c2.869,0.162,5.299-1.722,6.023-4.294c0.164-0.583,0.217-1.197,0.328-1.84
		c0.501,0,1.049,0,1.586,0c0.111-0.418,0.137-2.793,0.02-3.387c-0.598-3.024-2.35-5.093-5.301-5.961
		c-2.947-0.867-5.559-0.103-7.686,2.132c-1.219,1.281-1.835,2.853-1.975,4.669c-0.437,0-0.852,0.018-1.265-0.006
		c-0.285-0.017-0.353,0.089-0.345,0.356C21.938,36.079,21.938,36.704,21.919,37.328z"/>
	<path fill-rule="evenodd" clip-rule="evenodd" fill="#231F20" d="M17.812,36.569c-0.426,0.024-0.854,0.006-1.279,0.006
		c-0.436,0.001-0.436,0.001-0.436,0.444c0,5.276,0,10.552,0,15.829c0,0.141,0,0.283,0,0.449c-0.693,0-1.336,0-2,0
		c-0.011,0.113-0.025,0.205-0.025,0.295c-0.002,3.486,0,6.973-0.006,10.459c-0.001,0.25,0.084,0.316,0.324,0.312
		c1.104-0.01,2.207-0.004,3.31-0.004c0.47,0,0.47,0,0.47-0.473c0-8.938,0-17.877,0-26.816c0-0.042-0.005-0.084,0.001-0.125
		C18.207,36.67,18.11,36.552,17.812,36.569z"/>
</g>
</svg>
