<?xml version="1.0" encoding="utf-8"?>
<!-- Generator: Adobe Illustrator 16.0.0, SVG Export Plug-In . SVG Version: 6.00 Build 0)  -->
<!DOCTYPE svg PUBLIC "-//W3C//DTD SVG 1.1//EN" "http://www.w3.org/Graphics/SVG/1.1/DTD/svg11.dtd">
<svg version="1.1" id="Ebene_1" xmlns="http://www.w3.org/2000/svg" xmlns:xlink="http://www.w3.org/1999/xlink" x="0px" y="0px"
	 width="100px" height="100px" viewBox="0 0 100 100" enable-background="new 0 0 100 100" xml:space="preserve">
<circle fill="#B2B2B2" cx="108.855" cy="1784.053" r="50"/>
<polygon fill="#231F20" points="138.195,1773.602 119.305,1773.602 119.305,1754.711 98.404,1754.711 98.404,1773.602 
	79.516,1773.602 79.516,1794.502 98.404,1794.502 98.404,1813.393 119.305,1813.393 119.305,1794.502 138.195,1794.502 "/>
<circle fill="#B2B2B2" cx="50.31" cy="50.049" r="50"/>
<g>
	<path fill-rule="evenodd" clip-rule="evenodd" fill="#231F20" d="M78.247,67.134c1.763-2.262,3.496-4.488,5.259-6.748
		c-8.556-6.667-17.077-13.31-25.622-19.971c0.508-0.654,0.99-1.273,1.49-1.917c0.995,0.771,1.965,1.522,2.96,2.294
		c2.073-2.659,4.114-5.278,6.175-7.921c-5.413-4.217-10.788-8.406-16.196-12.62c-2.069,2.657-4.11,5.275-6.173,7.922
		c0.998,0.782,1.964,1.537,2.946,2.306c-2.761,3.542-5.493,7.048-8.245,10.58c-0.999-0.776-1.965-1.527-2.957-2.299
		c-2.077,2.666-4.115,5.283-6.173,7.924c5.425,4.228,10.797,8.416,16.192,12.621c2.076-2.664,4.115-5.283,6.172-7.924
		c-1.006-0.787-1.962-1.536-2.943-2.305c0.51-0.654,0.992-1.272,1.49-1.912C61.178,53.83,69.7,60.475,78.247,67.134z"/>
	<path fill-rule="evenodd" clip-rule="evenodd" fill="#231F20" d="M23.63,68.846c-0.394,0-0.518,0.096-0.516,0.503
		c0.017,3.301,0.017,6.6,0,9.899c-0.002,0.413,0.133,0.501,0.521,0.501c9.928-0.01,19.854-0.008,29.782-0.008
		c0.161,0,0.322-0.016,0.502-0.023c0-3.631,0-7.217,0-10.863c-0.192,0-0.33,0-0.465,0C43.513,68.854,33.571,68.856,23.63,68.846z"/>
</g>
</svg>
