<?xml version="1.0" encoding="utf-8"?>
<!-- Generator: Adobe Illustrator 16.0.0, SVG Export Plug-In . SVG Version: 6.00 Build 0)  -->
<!DOCTYPE svg PUBLIC "-//W3C//DTD SVG 1.1//EN" "http://www.w3.org/Graphics/SVG/1.1/DTD/svg11.dtd">
<svg version="1.1" id="Ebene_1" xmlns="http://www.w3.org/2000/svg" xmlns:xlink="http://www.w3.org/1999/xlink" x="0px" y="0px"
	 width="100px" height="100px" viewBox="0 0 100 100" enable-background="new 0 0 100 100" xml:space="preserve">
<circle fill="#B2B2B2" cx="108.855" cy="1784.053" r="50"/>
<polygon fill="#231F20" points="138.195,1773.602 119.305,1773.602 119.305,1754.711 98.404,1754.711 98.404,1773.602 
	79.516,1773.602 79.516,1794.502 98.404,1794.502 98.404,1813.393 119.305,1813.393 119.305,1794.502 138.195,1794.502 "/>
<circle fill="#B2B2B2" cx="50" cy="50" r="50"/>
<g>
	<path fill-rule="evenodd" clip-rule="evenodd" fill="#231F20" d="M64.654,35.938c0-5.344,0-10.637,0-16.016
		c-6.358,0-12.666,0-19.013,0c0-0.593-0.014-1.132,0.005-1.67c0.011-0.318-0.113-0.411-0.42-0.407
		c-1.186,0.014-2.371,0.004-3.557,0.008c-0.113,0-0.226,0.03-0.348,0.047c0,9.975,0,19.914,0,29.865c1.454,0,2.856,0,4.32,0
		c0-0.219,0-0.41,0-0.601c0-3.512-0.001-7.022,0-10.534c0-0.662,0-0.663,0.65-0.663c5.912,0,11.824,0,17.736-0.001
		C64.232,35.966,64.437,35.948,64.654,35.938z"/>
	<path fill-rule="evenodd" clip-rule="evenodd" fill="#231F20" d="M44.621,51.279c-5.958,0.016-11.915,0.01-17.872,0.01
		c-0.19,0-0.382,0-0.637,0c0-0.717,0-1.382,0-2.04c-1.48,0-2.896,0-4.295,0c0,9.983,0,19.925,0,29.903
		c1.279,0,2.523-0.02,3.766,0.01c0.44,0.01,0.55-0.127,0.548-0.555c-0.018-3.543-0.01-7.084-0.01-10.625c0-0.193,0-0.387,0-0.658
		c0.256,0,0.447,0,0.64,0c5.942,0,11.885,0.002,17.826,0c0.603,0,0.604,0,0.604-0.572c0.001-4.967-0.006-9.934,0.011-14.9
		C45.204,51.389,45.072,51.277,44.621,51.279z"/>
	<path fill-rule="evenodd" clip-rule="evenodd" fill="#231F20" d="M78.289,51.809c0-0.158-0.02-0.316-0.033-0.529
		c-6.35,0-12.657,0-19.036,0c0-0.719,0-1.381,0-2.052c-1.464,0-2.855,0-4.306,0c0,9.987,0,19.927,0,29.894c1.448,0,2.851,0,4.336,0
		c0-3.934,0-7.852,0-11.797c0.276,0,0.47,0,0.664,0c5.94,0,11.882-0.004,17.823,0.01c0.418,0,0.564-0.088,0.562-0.537
		C78.284,61.801,78.29,56.805,78.289,51.809z"/>
</g>
</svg>
