<?xml version="1.0" encoding="utf-8"?>
<!-- Generator: Adobe Illustrator 16.0.0, SVG Export Plug-In . SVG Version: 6.00 Build 0)  -->
<!DOCTYPE svg PUBLIC "-//W3C//DTD SVG 1.1//EN" "http://www.w3.org/Graphics/SVG/1.1/DTD/svg11.dtd">
<svg version="1.1" id="Ebene_1" xmlns="http://www.w3.org/2000/svg" xmlns:xlink="http://www.w3.org/1999/xlink" x="0px" y="0px"
	 width="100px" height="100px" viewBox="0 0 100 100" enable-background="new 0 0 100 100" xml:space="preserve">
<circle fill="#B2B2B2" cx="108.855" cy="1784.053" r="50"/>
<polygon fill="#231F20" points="138.195,1773.602 119.305,1773.602 119.305,1754.711 98.404,1754.711 98.404,1773.602 
	79.516,1773.602 79.516,1794.502 98.404,1794.502 98.404,1813.393 119.305,1813.393 119.305,1794.502 138.195,1794.502 "/>
<circle fill="#B2B2B2" cx="50" cy="50.168" r="50"/>
<g>
	<path fill-rule="evenodd" clip-rule="evenodd" fill="#231F20" d="M39.06,56.289c-2.088-2.242-4.156-4.506-6.271-6.724
		c-1.385-1.452-3.65-1.379-5.006,0.092c-1.198,1.3-1.199,3.325,0.024,4.657c1.688,1.838,3.398,3.658,5.091,5.492
		c0.612,0.664,0.583,1.566-0.043,2.158c-0.609,0.578-1.515,0.564-2.123-0.074c-1.768-1.859-3.523-3.73-5.275-5.604
		c-0.363-0.389-0.543-0.832-0.54-1.41c0.024-5.605,0.019-11.21,0.013-16.816c-0.003-2.354-2.259-3.99-4.499-3.276
		c-1.492,0.476-2.402,1.783-2.404,3.511c-0.006,6.161-0.001,12.321-0.004,18.481c0,1.141,0.396,2.09,1.215,2.902
		c3.19,3.166,6.36,6.354,9.546,9.527c0.224,0.223,0.32,0.445,0.319,0.762c-0.011,2.83,0.003,5.66-0.017,8.49
		c-0.002,0.428,0.12,0.531,0.537,0.531c4.787-0.016,9.574-0.01,14.361-0.01c0.15,0,0.302,0,0.529,0c0-0.24,0-0.416,0-0.594
		c0-4.314-0.001-8.631,0.001-12.945c0.001-0.221,0.017-0.443,0.036-0.664c0.134-1.494-0.221-2.828-1.27-3.947
		C41.868,59.322,40.467,57.803,39.06,56.289z"/>
	<path fill-rule="evenodd" clip-rule="evenodd" fill="#231F20" d="M81.973,38.06c0-0.248-0.015-0.502-0.069-0.742
		c-0.404-1.784-1.987-2.874-3.854-2.666c-1.662,0.186-2.943,1.679-2.944,3.438c-0.001,5.564-0.013,11.128,0.016,16.691
		c0.004,0.67-0.217,1.164-0.646,1.619c-0.571,0.605-1.141,1.213-1.71,1.818c-1.15,1.223-2.296,2.447-3.452,3.664
		c-0.471,0.496-1.124,0.627-1.714,0.369c-0.56-0.244-0.908-0.805-0.902-1.424c0.006-0.516,0.291-0.877,0.619-1.229
		c1.627-1.744,3.255-3.488,4.871-5.242c1.44-1.561,1.223-3.92-0.45-5.164c-1.222-0.909-3.278-1.01-4.79,0.645
		c-3.357,3.676-6.771,7.301-10.163,10.945c-0.68,0.729-1.173,1.568-1.252,2.568c-0.067,0.852-0.01,1.715-0.009,2.572
		c0,4.148,0,8.297,0,12.445c0,0.178,0,0.357,0,0.611c0.213,0,0.362,0,0.511,0c4.801,0,9.602-0.006,14.402,0.008
		c0.398,0.002,0.516-0.107,0.513-0.51c-0.017-2.734,0.005-5.467-0.021-8.201c-0.005-0.541,0.149-0.924,0.535-1.305
		c3.173-3.146,6.325-6.312,9.485-9.471c0.681-0.68,1.028-1.492,1.028-2.461C81.974,50.714,81.977,44.387,81.973,38.06z"/>
	<path fill-rule="evenodd" clip-rule="evenodd" fill="#231F20" d="M63.215,39.527c0.382,0.002,0.492-0.106,0.491-0.489
		c-0.015-2.94-0.016-5.881,0-8.821c0.002-0.396-0.131-0.482-0.5-0.48c-2.594,0.014-5.188,0.007-7.781,0.007
		c-0.162,0-0.323,0-0.533,0c0-2.947,0-5.837,0-8.736c-3.273,0-6.495,0-9.754,0c0,2.912,0,5.792,0,8.736c-0.229,0-0.394,0-0.558,0
		c-2.58,0-5.16,0.009-7.74-0.009c-0.403-0.003-0.513,0.114-0.51,0.513c0.016,2.927,0.008,5.853,0.009,8.78
		c0,0.149,0.017,0.297,0.028,0.505c2.938,0,5.842,0,8.786,0c0,2.954,0,5.846,0,8.75c3.266,0,6.487,0,9.751,0
		c0-2.925,0-5.818,0-8.764c0.203,0,0.366,0,0.529,0C58.027,39.519,60.621,39.512,63.215,39.527z"/>
</g>
</svg>
