<?xml version="1.0" encoding="utf-8"?>
<!-- Generator: Adobe Illustrator 16.0.0, SVG Export Plug-In . SVG Version: 6.00 Build 0)  -->
<!DOCTYPE svg PUBLIC "-//W3C//DTD SVG 1.1//EN" "http://www.w3.org/Graphics/SVG/1.1/DTD/svg11.dtd">
<svg version="1.1" id="Ebene_1" xmlns="http://www.w3.org/2000/svg" xmlns:xlink="http://www.w3.org/1999/xlink" x="0px" y="0px"
	 width="100px" height="100px" viewBox="0 0 100 100" enable-background="new 0 0 100 100" xml:space="preserve">
<circle fill="#B2B2B2" cx="108.855" cy="1784.053" r="50"/>
<polygon fill="#231F20" points="138.195,1773.602 119.305,1773.602 119.305,1754.711 98.404,1754.711 98.404,1773.602 
	79.516,1773.602 79.516,1794.502 98.404,1794.502 98.404,1813.393 119.305,1813.393 119.305,1794.502 138.195,1794.502 "/>
<circle fill="#B2B2B2" cx="50" cy="50" r="50"/>
<g>
	<path fill-rule="evenodd" clip-rule="evenodd" fill="#231F20" d="M63.564,64.934c0-3.8,0.002-7.599,0-11.398
		c-0.002-3.381-2.48-5.862-5.869-5.866c-3.326-0.003-6.652-0.004-9.979,0c-3.359,0.005-5.854,2.475-5.863,5.829
		c-0.012,3.849-0.004,7.697-0.002,11.545c0,0.172,0.018,0.345,0.027,0.531c7.238,0,14.424,0,21.656,0
		C63.545,65.348,63.564,65.141,63.564,64.934z"/>
	<path fill-rule="evenodd" clip-rule="evenodd" fill="#231F20" d="M48.424,42.801c1.271,1.231,2.809,1.803,4.574,1.742
		c2.68-0.093,5.756-2.201,5.916-6.286c0.469,0,0.908,0.025,1.342-0.015c0.131-0.012,0.35-0.2,0.354-0.313
		c0.035-0.944,0.119-1.899,0.018-2.833c-0.35-3.226-2.883-5.966-6.02-6.607c-3.32-0.678-6.613,0.766-8.303,3.633
		c-0.629,1.069-0.965,2.229-1.074,3.52c-0.555,0-1.082,0-1.602,0c0,0.894,0,1.72,0,2.619c0.979,0,1.932,0,2.926,0
		C46.584,40.065,47.168,41.583,48.424,42.801z"/>
	<path fill-rule="evenodd" clip-rule="evenodd" fill="#231F20" d="M39.725,37.398c-0.027-0.101-0.133-0.255-0.209-0.258
		c-0.613-0.021-1.229-0.012-1.9-0.012c0,5.737,0,11.404,0,17.119c-0.527,0-1.002,0.029-1.469-0.009
		c-0.475-0.039-0.605,0.129-0.602,0.6c0.018,3.393,0.01,6.786,0.01,10.179c0,0.174,0.016,0.35,0.023,0.551c1.385,0,2.73,0,4.158,0
		c0-0.252,0-0.461,0-0.67c0-9.021,0.002-18.042,0-27.062C39.736,37.69,39.762,37.536,39.725,37.398z"/>
	<path fill-rule="evenodd" clip-rule="evenodd" fill="#231F20" d="M85.059,46.792c-1.807-0.002-3.615,0.006-5.422-0.011
		c-0.395-0.003-0.398,0.203-0.402,0.492c-0.02,2.034-0.035,4.069-0.084,6.103c-0.01,0.393,0.092,0.505,0.477,0.508
		c1.008,0.008,2.016,0.064,3.023,0.084c0.84,0.016,1.678,0.003,2.596,0.003c0-2.364,0-4.733,0-7.15
		C85.184,46.81,85.121,46.792,85.059,46.792z"/>
	<path fill-rule="evenodd" clip-rule="evenodd" fill="#231F20" d="M23,27.099c1.467,1.484,2.859,2.895,4.266,4.315
		c1.602-1.561,3.234-3.151,4.912-4.784c-1.402-1.478-2.768-2.916-4.182-4.406C26.275,23.903,24.592,25.545,23,27.099z"/>
	<path fill-rule="evenodd" clip-rule="evenodd" fill="#231F20" d="M77.76,27.869c-1.68-1.718-3.314-3.391-4.834-4.945
		c-1.496,1.435-2.934,2.813-4.381,4.201c1.6,1.639,3.189,3.267,4.809,4.927C74.82,30.66,76.268,29.286,77.76,27.869z"/>
	<path fill-rule="evenodd" clip-rule="evenodd" fill="#231F20" d="M22.299,71.977c1.672,1.715,3.303,3.393,4.854,4.984
		c1.496-1.445,2.93-2.832,4.367-4.221c-1.598-1.639-3.188-3.268-4.811-4.932C25.252,69.188,23.801,70.557,22.299,71.977z"/>
	<path fill-rule="evenodd" clip-rule="evenodd" fill="#231F20" d="M58.344,21.751c2.162,0.926,4.262,1.825,6.396,2.739
		c0.818-1.838,1.623-3.645,2.467-5.544c-2.215-0.949-4.359-1.868-6.555-2.808C59.863,18.058,59.107,19.897,58.344,21.751z"/>
	<path fill-rule="evenodd" clip-rule="evenodd" fill="#231F20" d="M75.467,64.709c1.846,0.834,3.66,1.652,5.533,2.498
		c0.953-2.203,1.881-4.347,2.834-6.552c-1.932-0.799-3.76-1.555-5.609-2.319C77.299,60.478,76.391,62.574,75.467,64.709z"/>
	<path fill-rule="evenodd" clip-rule="evenodd" fill="#231F20" d="M32.826,80.916c2.199,0.951,4.355,1.881,6.559,2.834
		c0.787-1.91,1.545-3.752,2.311-5.613c-2.135-0.922-4.221-1.824-6.371-2.752C34.49,77.23,33.676,79.035,32.826,80.916z"/>
	<path fill-rule="evenodd" clip-rule="evenodd" fill="#231F20" d="M24.607,35.247c-1.846-0.828-3.664-1.643-5.541-2.484
		c-0.951,2.209-1.875,4.357-2.82,6.555c1.904,0.784,3.748,1.543,5.611,2.312C22.775,39.5,23.674,37.412,24.607,35.247z"/>
	<path fill-rule="evenodd" clip-rule="evenodd" fill="#231F20" d="M42.441,21.562c-0.721-1.881-1.434-3.744-2.168-5.667
		c-2.227,0.891-4.396,1.759-6.621,2.649c0.801,1.916,1.568,3.754,2.34,5.6C38.168,23.271,40.281,22.426,42.441,21.562z"/>
	<path fill-rule="evenodd" clip-rule="evenodd" fill="#231F20" d="M21.652,57.535c-1.898,0.725-3.746,1.43-5.668,2.162
		c0.891,2.232,1.76,4.412,2.641,6.623c1.918-0.797,3.744-1.558,5.602-2.33C23.359,61.816,22.51,59.686,21.652,57.535z"/>
	<path fill-rule="evenodd" clip-rule="evenodd" fill="#231F20" d="M57.598,78.371c0.729,1.896,1.436,3.744,2.174,5.67
		c2.24-0.896,4.406-1.764,6.615-2.648c-0.799-1.916-1.562-3.752-2.332-5.6C61.865,76.666,59.746,77.514,57.598,78.371z"/>
	<path fill-rule="evenodd" clip-rule="evenodd" fill="#231F20" d="M78.434,42.315c1.898-0.728,3.758-1.442,5.67-2.175
		c-0.9-2.24-1.771-4.409-2.658-6.619c-1.906,0.801-3.732,1.568-5.592,2.349C76.721,38.037,77.57,40.159,78.434,42.315z"/>
	<path fill-rule="evenodd" clip-rule="evenodd" fill="#231F20" d="M67.879,73.311c1.389,1.471,2.76,2.92,4.174,4.418
		c1.721-1.678,3.396-3.309,5.039-4.908c-1.453-1.455-2.854-2.857-4.277-4.285C71.186,70.111,69.551,71.693,67.879,73.311z"/>
	<path fill-rule="evenodd" clip-rule="evenodd" fill="#231F20" d="M53.102,79.668c0.004-0.426-0.154-0.504-0.539-0.504
		c-1.4,0-2.801-0.037-4.201-0.055c-0.711-0.008-1.424-0.002-2.195-0.002c-0.055,2.021-0.109,3.986-0.162,5.961
		c0.111,0.029,0.186,0.064,0.262,0.066c2.15,0.035,4.299,0.062,6.447,0.107c0.389,0.008,0.406-0.199,0.404-0.492
		C53.104,83.057,53.086,81.361,53.102,79.668z"/>
	<path fill-rule="evenodd" clip-rule="evenodd" fill="#231F20" d="M20.855,52.515c-0.004-1.351,0.023-2.702,0.035-4.053
		c0.006-0.763,0-1.526,0-2.355c-1.916-0.06-3.801-0.116-5.684-0.178c-0.293-0.01-0.346,0.151-0.35,0.399
		c-0.029,2.083-0.055,4.167-0.104,6.25c-0.008,0.396,0.139,0.496,0.512,0.488c1.709-0.037,3.418-0.061,5.127-0.066
		C20.764,53,20.855,52.867,20.855,52.515z"/>
	<path fill-rule="evenodd" clip-rule="evenodd" fill="#231F20" d="M54.033,14.758c-2.398,0-4.73,0-7.023,0c0,1.986,0,3.964,0,6.01
		c2.332,0,4.584,0,6.871,0C53.932,18.787,53.98,16.811,54.033,14.758z"/>
</g>
</svg>
