<?xml version="1.0" encoding="utf-8"?>
<!-- Generator: Adobe Illustrator 16.0.0, SVG Export Plug-In . SVG Version: 6.00 Build 0)  -->
<!DOCTYPE svg PUBLIC "-//W3C//DTD SVG 1.1//EN" "http://www.w3.org/Graphics/SVG/1.1/DTD/svg11.dtd">
<svg version="1.1" id="Ebene_1" xmlns="http://www.w3.org/2000/svg" xmlns:xlink="http://www.w3.org/1999/xlink" x="0px" y="0px"
	 width="100px" height="100px" viewBox="0 0 100 100" enable-background="new 0 0 100 100" xml:space="preserve">
<circle fill="#B2B2B2" cx="108.855" cy="1784.053" r="50"/>
<polygon fill="#231F20" points="138.195,1773.602 119.305,1773.602 119.305,1754.711 98.404,1754.711 98.404,1773.602 
	79.516,1773.602 79.516,1794.502 98.404,1794.502 98.404,1813.393 119.305,1813.393 119.305,1794.502 138.195,1794.502 "/>
<circle fill="#B2B2B2" cx="50" cy="50" r="50"/>
<g>
	<path fill-rule="evenodd" clip-rule="evenodd" fill="#231F20" d="M60.855,50.601c-0.396-0.108-0.576-0.033-0.777,0.324
		c-4.686,8.349-9.385,16.69-14.08,25.033c-0.625,1.108-1.248,2.217-1.928,3.423c0.275,0,0.453,0,0.631,0c7.475,0,14.949,0,22.424,0
		c0.613,0,0.613,0,0.613-0.599c0-6.393,0-12.785,0-19.179C67.738,55.389,64.918,51.715,60.855,50.601z"/>
	<path fill-rule="evenodd" clip-rule="evenodd" fill="#231F20" d="M55.09,50.301c-0.182-0.01-0.291-0.02-0.4-0.02
		c-4.354-0.001-8.709-0.004-13.062,0.004c-0.512,0-1.025,0.031-1.533,0.094c-4.508,0.561-8.039,4.533-8.047,9.07
		c-0.01,6.49-0.002,12.979-0.002,19.47c0,0.146,0.014,0.292,0.021,0.436c0.121,0.012,0.189,0.024,0.258,0.024
		c2.039,0.002,4.078-0.006,6.115,0.01c0.303,0.002,0.404-0.169,0.521-0.378c5.314-9.441,10.631-18.884,15.945-28.325
		C54.965,50.58,55.012,50.468,55.09,50.301z"/>
	<path fill-rule="evenodd" clip-rule="evenodd" fill="#231F20" d="M39.893,36.289c0.961,6.34,7.436,10.251,13.432,8.006
		c3.998-1.496,6.252-4.488,6.611-8.76c0.158-1.886,0.043-3.795,0.072-5.692c0.006-0.383-0.111-0.493-0.492-0.493
		c-6.434,0.012-12.865,0.01-19.297,0.002c-0.293,0-0.48,0.081-0.654,0.326c-1.125,1.598-2.266,3.184-3.4,4.774
		c-0.074,0.103-0.131,0.219-0.23,0.386c1.318,0,2.551,0,3.82,0C39.803,35.357,39.822,35.826,39.893,36.289z"/>
	<path fill-rule="evenodd" clip-rule="evenodd" fill="#231F20" d="M39.678,25.759c0.109,0.253,0.277,0.261,0.494,0.261
		c6.459-0.002,12.918-0.006,19.377,0.006c0.381,0.002,0.463-0.127,0.459-0.479c-0.018-1.469-0.023-2.938,0.002-4.406
		c0.01-0.435-0.135-0.529-0.543-0.528c-7.166,0.012-14.332,0.009-21.498,0.009c-0.146,0-0.293,0.014-0.477,0.023
		c0.037,0.127,0.051,0.207,0.082,0.278C38.277,22.535,38.986,24.143,39.678,25.759z"/>
</g>
</svg>
