<?xml version="1.0" encoding="utf-8"?>
<!-- Generator: Adobe Illustrator 16.0.0, SVG Export Plug-In . SVG Version: 6.00 Build 0)  -->
<!DOCTYPE svg PUBLIC "-//W3C//DTD SVG 1.1//EN" "http://www.w3.org/Graphics/SVG/1.1/DTD/svg11.dtd">
<svg version="1.1" id="Ebene_1" xmlns="http://www.w3.org/2000/svg" xmlns:xlink="http://www.w3.org/1999/xlink" x="0px" y="0px"
	 width="100px" height="100px" viewBox="0 0 100 100" enable-background="new 0 0 100 100" xml:space="preserve">
<circle fill="#B2B2B2" cx="108.855" cy="1784.053" r="50"/>
<polygon fill="#231F20" points="138.195,1773.602 119.305,1773.602 119.305,1754.711 98.404,1754.711 98.404,1773.602 
	79.516,1773.602 79.516,1794.502 98.404,1794.502 98.404,1813.393 119.305,1813.393 119.305,1794.502 138.195,1794.502 "/>
<circle fill="#B2B2B2" cx="50.136" cy="49.906" r="50"/>
<g>
	<path fill-rule="evenodd" clip-rule="evenodd" fill="#231F20" d="M50.083,52.242c9.481,0.037,17.149-7.63,17.149-17.079
		c0-9.484-7.609-17.168-17.076-17.152C40.398,18.029,33.226,25.87,33.02,34.72C32.802,44.092,40.268,52.203,50.083,52.242z
		 M39.646,32.317c0.505-0.02,1.011-0.004,1.542-0.004c-0.11-0.601-0.213-1.129-0.303-1.659c-0.154-0.91,0.217-1.668,0.969-1.999
		c0.71-0.312,1.539-0.125,2.02,0.662c0.439,0.721,0.697,1.556,0.996,2.356c0.264,0.709,0.034,0.63,0.839,0.638
		c0.583,0.005,1.167-0.01,1.751,0.005c0.257,0.007,0.378-0.088,0.488-0.323c0.234-0.499,0.467-1.012,0.795-1.449
		c0.709-0.946,1.737-0.953,2.46-0.019c0.334,0.433,0.586,0.938,0.818,1.436c0.127,0.271,0.266,0.365,0.557,0.357
		c0.686-0.02,1.371-0.021,2.057,0c0.303,0.009,0.424-0.093,0.512-0.386c0.242-0.808,0.486-1.621,0.818-2.393
		c0.312-0.727,1.191-1.128,1.881-0.972c0.783,0.178,1.287,0.771,1.254,1.611c-0.029,0.693-0.168,1.382-0.266,2.134
		c0.566,0,1.146-0.009,1.725,0.002c0.846,0.017,1.453,0.494,1.551,1.199c0.119,0.876-0.506,1.62-1.404,1.638
		c-0.803,0.017-1.605,0.02-2.408-0.004c-0.33-0.009-0.484,0.088-0.596,0.41c-0.676,1.971-1.371,3.935-2.072,5.896
		c-0.143,0.396-0.322,0.783-0.518,1.156c-0.307,0.581-0.73,1.027-1.449,1.039c-0.715,0.011-1.133-0.447-1.41-1.012
		c-0.287-0.585-0.523-1.203-0.711-1.828c-0.465-1.563-0.891-3.14-1.333-4.71c-0.042-0.148-0.099-0.292-0.241-0.445
		c-0.183,0.632-0.364,1.265-0.549,1.897c-0.405,1.384-0.791,2.774-1.23,4.147c-0.153,0.478-0.392,0.947-0.678,1.361
		c-0.459,0.666-1.126,0.832-1.793,0.366c-0.496-0.347-0.982-0.823-1.252-1.354c-0.491-0.968-0.848-2.008-1.206-3.038
		c-0.406-1.169-0.758-2.358-1.12-3.542c-0.076-0.249-0.193-0.349-0.463-0.341c-0.656,0.019-1.312,0.008-1.97,0.005
		c-0.895-0.002-1.536-0.563-1.564-1.364C38.111,32.967,38.726,32.354,39.646,32.317z"/>
	<path fill-rule="evenodd" clip-rule="evenodd" fill="#231F20" d="M75.402,71.613c-0.062-1.745-1.227-3.104-2.879-3.471
		c-0.588-0.131-1.215-0.127-1.824-0.132c-1.91-0.015-3.82,0.007-5.73-0.009c-2.623-0.021-4.096,2.061-4.016,4.017
		c0.074,1.82,0.016,3.646,0.016,5.469c0,0.156,0,0.312,0,0.492c4.83,0,9.607,0,14.414,0c0.021-0.073,0.045-0.114,0.045-0.154
		C75.426,75.754,75.477,73.682,75.402,71.613z"/>
	<path fill-rule="evenodd" clip-rule="evenodd" fill="#231F20" d="M35.36,68.01c-2.204-0.02-4.408-0.021-6.611,0
		c-2.313,0.024-3.911,1.666-3.916,3.983c-0.004,1.824-0.002,3.648,0,5.473c0,0.17,0.017,0.339,0.026,0.522c4.82,0,9.589,0,14.438,0
		c0-0.214,0-0.386,0-0.558c0-1.81,0.002-3.619,0-5.429C39.294,69.647,37.713,68.029,35.36,68.01z"/>
	<path fill-rule="evenodd" clip-rule="evenodd" fill="#231F20" d="M54.02,68.084c-2.574-0.137-5.166-0.124-7.742-0.01
		c-1.728,0.078-3.166,1.393-3.281,3.059c-0.154,2.262-0.038,4.541-0.038,6.838c4.812,0,9.59,0,14.375,0
		c0.016-0.088,0.037-0.144,0.037-0.199c0.002-2,0.049-4.001-0.01-5.998C57.303,69.757,55.971,68.189,54.02,68.084z"/>
	<path fill-rule="evenodd" clip-rule="evenodd" fill="#231F20" d="M64.104,61.855c0,2.283,1.799,4.083,4.08,4.084
		c2.277,0,4.1-1.805,4.109-4.07c0.01-2.278-1.84-4.128-4.117-4.119C65.91,57.759,64.104,59.579,64.104,61.855z"/>
	<path fill-rule="evenodd" clip-rule="evenodd" fill="#231F20" d="M32.04,65.939c2.287,0.01,4.121-1.797,4.143-4.08
		c0.021-2.228-1.835-4.096-4.081-4.109c-2.257-0.014-4.117,1.808-4.136,4.049C27.946,64.086,29.76,65.93,32.04,65.939z"/>
	<path fill-rule="evenodd" clip-rule="evenodd" fill="#231F20" d="M46.024,61.848c-0.006,2.256,1.819,4.084,4.081,4.092
		c2.284,0.006,4.139-1.824,4.137-4.085c0-2.249-1.836-4.093-4.085-4.104C47.884,57.738,46.031,59.576,46.024,61.848z"/>
	<path fill-rule="evenodd" clip-rule="evenodd" fill="#231F20" d="M53.688,36.512c0.143-0.419,0.285-0.837,0.451-1.321
		c-0.355,0-0.648,0-1,0c0.158,0.476,0.301,0.902,0.443,1.329C53.617,36.517,53.652,36.515,53.688,36.512z"/>
	<path fill-rule="evenodd" clip-rule="evenodd" fill="#231F20" d="M46.467,36.435c0.128-0.407,0.256-0.813,0.395-1.257
		c-0.327,0-0.598,0-0.954,0c0.168,0.457,0.316,0.861,0.465,1.266C46.404,36.441,46.436,36.438,46.467,36.435z"/>
</g>
</svg>
