<?xml version="1.0" encoding="utf-8"?>
<!-- Generator: Adobe Illustrator 16.0.0, SVG Export Plug-In . SVG Version: 6.00 Build 0)  -->
<!DOCTYPE svg PUBLIC "-//W3C//DTD SVG 1.1//EN" "http://www.w3.org/Graphics/SVG/1.1/DTD/svg11.dtd">
<svg version="1.1" id="Ebene_1" xmlns="http://www.w3.org/2000/svg" xmlns:xlink="http://www.w3.org/1999/xlink" x="0px" y="0px"
	 width="100px" height="100px" viewBox="0 0 100 100" enable-background="new 0 0 100 100" xml:space="preserve">
<circle fill="#B2B2B2" cx="108.855" cy="1784.052" r="50"/>
<polygon fill="#231F20" points="138.195,1773.602 119.305,1773.602 119.305,1754.711 98.404,1754.711 98.404,1773.602 
	79.516,1773.602 79.516,1794.502 98.404,1794.502 98.404,1813.392 119.305,1813.392 119.305,1794.502 138.195,1794.502 "/>
<circle fill="#B2B2B2" cx="50.198" cy="49.568" r="50"/>
<path fill="#231F20" d="M45.097,30.033c-1.108,0.02-1.992,0.934-1.972,2.042l0.08,4.62c0.047,2.713-2.123,4.96-4.836,5.008
	l-1.223,0.021l-0.166-9.541c-0.02-1.109-0.933-1.992-2.042-1.973c-1.108,0.02-1.991,0.933-1.972,2.042l0.166,9.542l-1.224,0.021
	c-2.714,0.047-4.96-2.123-5.008-4.837l-0.08-4.619c-0.02-1.109-0.934-1.992-2.042-1.973s-1.991,0.934-1.972,2.042l0.081,4.62
	c0.085,4.928,4.164,8.866,9.091,8.78l1.224-0.021l0.074,4.274c-1.17,0.713-1.944,2.006-1.919,3.475l0.246,14.115
	c0.039,2.201,1.854,3.955,4.055,3.916c2.201-0.038,3.955-1.854,3.917-4.055l-0.246-14.115c-0.025-1.469-0.844-2.734-2.039-3.406
	l-0.074-4.273l1.223-0.021c4.927-0.086,8.867-4.164,8.781-9.092l-0.08-4.619C47.12,30.896,46.205,30.014,45.097,30.033z"/>
<path fill="#231F20" d="M85.398,44.68l-9.357,5.551C62.674,42.146,56.69,43.09,56.69,43.09c-5.585,0.098-10.033,4.704-9.936,10.289
	c0.097,5.584,4.703,10.033,10.288,9.936l0,0c0,0,6.012,0.735,19.091-7.81l9.533,4.605L85.398,44.68z M52.508,54.906
	c-0.898,0.016-1.641-0.7-1.656-1.599c-0.016-0.9,0.701-1.642,1.6-1.657c0.9-0.016,1.641,0.7,1.656,1.601
	C54.123,54.149,53.408,54.891,52.508,54.906z"/>
</svg>
