<?xml version="1.0" encoding="utf-8"?>
<!-- Generator: Adobe Illustrator 16.0.0, SVG Export Plug-In . SVG Version: 6.00 Build 0)  -->
<!DOCTYPE svg PUBLIC "-//W3C//DTD SVG 1.1//EN" "http://www.w3.org/Graphics/SVG/1.1/DTD/svg11.dtd">
<svg version="1.1" id="Ebene_1" xmlns="http://www.w3.org/2000/svg" xmlns:xlink="http://www.w3.org/1999/xlink" x="0px" y="0px"
	 width="100px" height="100px" viewBox="0 0 100 100" enable-background="new 0 0 100 100" xml:space="preserve">
<circle fill="#B2B2B2" cx="50" cy="50" r="50"/>
<g>
	<path fill-rule="evenodd" clip-rule="evenodd" fill="#231F20" d="M84.696,44.189c-8.077-0.001-16.154,0-24.23-0.002
		c-0.499,0-0.999-0.012-1.497-0.041c-1.57-0.089-2.962,0.333-4.127,1.417c-1.98,1.842-3.962,3.684-5.94,5.527
		c-2.274,2.117-4.569,4.213-6.812,6.363c-1.583,1.519-1.477,4.109,0.153,5.57c1.508,1.353,3.731,1.359,5.228-0.014
		c2.053-1.885,4.088-3.791,6.13-5.688c0.785-0.73,1.805-0.741,2.489-0.022c0.671,0.704,0.611,1.767-0.146,2.482
		c-2.058,1.943-4.114,3.887-6.179,5.82c-0.45,0.422-0.948,0.657-1.623,0.654c-6.286-0.028-12.572-0.018-18.859-0.017
		c-2.24,0-3.97,1.699-3.964,3.893c0.007,2.171,1.734,3.858,3.955,3.858c7.05,0,14.1-0.003,21.149,0.003
		c1.159,0.001,2.13-0.397,2.948-1.218c3.627-3.635,7.263-7.262,10.886-10.9c0.256-0.257,0.513-0.356,0.873-0.355
		c6.536,0.01,13.072,0.007,19.609,0.007c0.19,0,0.382,0,0.638,0c0-0.267,0-0.459,0-0.651c0-5.328,0.001-10.658-0.001-15.987
		C85.375,44.129,85.482,44.19,84.696,44.189z"/>
	<path fill-rule="evenodd" clip-rule="evenodd" fill="#231F20" d="M47.773,40.629c0.005-8.069-6.469-14.62-14.448-14.623
		c-8.139-0.002-14.631,6.432-14.631,14.5c-0.113,7.721,6.19,14.565,14.509,14.586C41.208,55.115,47.769,48.593,47.773,40.629z
		 M32.798,41.95c-0.369,1.277-0.715,2.562-1.113,3.831c-0.16,0.51-0.388,1.013-0.67,1.466c-0.376,0.604-1.002,0.747-1.582,0.33
		c-0.402-0.29-0.801-0.681-1.016-1.118c-0.425-0.865-0.745-1.786-1.064-2.698c-0.33-0.941-0.615-1.897-0.902-2.853
		c-0.078-0.263-0.214-0.34-0.477-0.333c-0.582,0.016-1.166,0.02-1.748-0.007c-0.548-0.025-0.946-0.307-1.133-0.833
		c-0.166-0.467-0.011-1.015,0.411-1.297c0.216-0.144,0.504-0.219,0.768-0.247c0.412-0.043,0.831-0.02,1.247-0.027
		c0.024,0,0.048-0.025,0.091-0.049c-0.083-0.481-0.173-0.969-0.251-1.459c-0.111-0.696,0.197-1.305,0.794-1.588
		c0.578-0.275,1.191-0.121,1.678,0.427c0.546,0.615,0.738,1.393,0.929,2.155c0.103,0.413,0.259,0.578,0.693,0.541
		c0.481-0.041,0.971-0.022,1.456-0.004c0.249,0.009,0.362-0.089,0.463-0.311c0.183-0.402,0.368-0.813,0.626-1.167
		c0.636-0.873,1.525-0.884,2.175-0.023c0.28,0.371,0.449,0.825,0.698,1.223c0.078,0.123,0.252,0.255,0.387,0.262
		c0.596,0.028,1.193,0.002,1.79,0.017c0.251,0.006,0.36-0.079,0.433-0.326c0.199-0.676,0.375-1.371,0.671-2.005
		c0.496-1.06,1.833-1.248,2.43-0.34c0.212,0.323,0.235,0.811,0.231,1.222c-0.003,0.463-0.135,0.925-0.219,1.445
		c0.523,0,1.02-0.001,1.515,0c0.756,0.003,1.287,0.471,1.314,1.154c0.025,0.653-0.52,1.21-1.252,1.237
		c-0.666,0.024-1.333,0.023-1.998,0c-0.304-0.01-0.437,0.098-0.534,0.379c-0.604,1.741-1.22,3.478-1.85,5.21
		c-0.126,0.348-0.293,0.693-0.501,1c-0.578,0.851-1.569,0.86-2.111-0.012c-0.304-0.486-0.523-1.041-0.692-1.591
		c-0.42-1.364-0.787-2.744-1.177-4.117c-0.039-0.14-0.089-0.276-0.224-0.417C32.987,41.333,32.888,41.64,32.798,41.95z"/>
	<path fill-rule="evenodd" clip-rule="evenodd" fill="#231F20" d="M36.253,41.724c0.117-0.364,0.234-0.729,0.361-1.122
		c-0.306,0-0.547,0-0.841,0c0.134,0.398,0.256,0.761,0.378,1.123C36.185,41.725,36.219,41.725,36.253,41.724z"/>
	<path fill-rule="evenodd" clip-rule="evenodd" fill="#231F20" d="M30.011,41.64c0.036-0.002,0.072-0.004,0.108-0.006
		c0.104-0.333,0.21-0.666,0.321-1.02c-0.285,0-0.519,0-0.803,0C29.773,40.988,29.892,41.314,30.011,41.64z"/>
</g>
</svg>
