<?xml version="1.0" encoding="utf-8"?>
<!-- Generator: Adobe Illustrator 16.0.0, SVG Export Plug-In . SVG Version: 6.00 Build 0)  -->
<!DOCTYPE svg PUBLIC "-//W3C//DTD SVG 1.1//EN" "http://www.w3.org/Graphics/SVG/1.1/DTD/svg11.dtd">
<svg version="1.1" id="Ebene_1" xmlns="http://www.w3.org/2000/svg" xmlns:xlink="http://www.w3.org/1999/xlink" x="0px" y="0px"
	 width="100px" height="100px" viewBox="0 0 100 100" enable-background="new 0 0 100 100" xml:space="preserve">
<circle fill="#B2B2B2" cx="50" cy="50" r="50"/>
<g>
	<path fill="#231F20" d="M58.898,44.959c-1.74-0.228-3.35,0.213-4.586,1.391c-1.016,0.967-2.062,1.903-3.087,2.863
		c-2.563,2.404-5.149,4.787-7.72,7.185c-0.605,0.565-1.213,1.129-1.819,1.692c-1.558,1.449-1.645,3.885-0.195,5.442
		c0.758,0.815,1.787,1.228,2.819,1.228c0.939,0,1.881-0.342,2.622-1.032c0,0,6.13-5.704,6.13-5.692l0.077-0.072
		c0.697-0.656,1.794-0.623,2.45,0.074c0.655,0.696,0.623,1.793-0.074,2.449l-6.33,5.959c-0.158,0.149-0.34,0.262-0.531,0.339
		l-0.238,0.24H28.643c-2.127,0-3.85,1.725-3.85,3.851c0,2.127,1.723,3.85,3.85,3.85H50.01c1.021,0,2.001-0.404,2.723-1.127
		l11.334-11.334h20.768V44.959H58.898z"/>
	<circle fill="#231F20" cx="32.673" cy="41.623" r="2.254"/>
	<path fill="#231F20" d="M47.201,41.287c0-8.022-6.504-14.526-14.527-14.526s-14.527,6.504-14.527,14.526
		c0,8.023,6.504,14.527,14.527,14.527S47.201,49.311,47.201,41.287z M30.395,47.985L29.53,49.48l-2.092-1.207l0.863-1.494
		c-0.283-0.239-0.546-0.502-0.786-0.785l-1.493,0.863l-1.208-2.092l1.495-0.863c-0.123-0.346-0.222-0.703-0.288-1.072h-1.726v-2.416
		h1.725c0.067-0.369,0.165-0.725,0.289-1.07l-1.495-0.863l1.208-2.093l1.492,0.862c0.24-0.283,0.503-0.545,0.785-0.785l-0.861-1.493
		l2.092-1.208l0.863,1.494c0.346-0.123,0.703-0.221,1.071-0.287v-1.725h2.416v1.725c0.369,0.066,0.727,0.164,1.071,0.287
		l0.863-1.494l2.093,1.207l-0.862,1.493c0.282,0.24,0.545,0.503,0.785,0.786l1.493-0.862l1.208,2.092l-1.496,0.863
		c0.124,0.346,0.223,0.702,0.288,1.071h1.727v2.416h-1.727c-0.066,0.368-0.164,0.726-0.288,1.071l1.496,0.863l-1.208,2.093
		l-1.493-0.863c-0.24,0.283-0.503,0.545-0.785,0.785l0.862,1.494l-2.093,1.208l-0.863-1.497c-0.345,0.125-0.702,0.223-1.071,0.289
		V50h-2.415v-1.727C31.097,48.207,30.74,48.109,30.395,47.985z"/>
</g>
</svg>
