<?xml version="1.0" encoding="utf-8"?>
<!-- Generator: Adobe Illustrator 16.0.0, SVG Export Plug-In . SVG Version: 6.00 Build 0)  -->
<!DOCTYPE svg PUBLIC "-//W3C//DTD SVG 1.1//EN" "http://www.w3.org/Graphics/SVG/1.1/DTD/svg11.dtd">
<svg version="1.1" id="Ebene_1" xmlns="http://www.w3.org/2000/svg" xmlns:xlink="http://www.w3.org/1999/xlink" x="0px" y="0px"
	 width="100px" height="100px" viewBox="0 0 100 100" enable-background="new 0 0 100 100" xml:space="preserve">
<circle fill="#B2B2B2" cx="50" cy="50" r="50"/>
<g>
	<path fill="#231F20" d="M30.686,44.568l2.579-1.49c0.416,0.488,0.869,0.942,1.359,1.357l-1.491,2.582l3.614,2.086l1.494-2.586
		c0.597,0.214,1.214,0.383,1.852,0.498V50h4.174v-2.984c0.638-0.115,1.255-0.284,1.85-0.498l1.493,2.587l3.615-2.089l-1.49-2.581
		c0.488-0.415,0.943-0.869,1.357-1.356l2.582,1.49l2.084-3.615l-2.582-1.492c0.212-0.598,0.381-1.215,0.498-1.853l2.981,0.001
		v-4.174h-2.981c-0.113-0.637-0.286-1.255-0.498-1.852l2.582-1.492l-2.084-3.615l-2.582,1.49c-0.414-0.49-0.869-0.943-1.357-1.357
		l1.49-2.581l-3.615-2.086l-1.493,2.583c-0.595-0.213-1.212-0.383-1.85-0.498v-2.98h-4.178v2.98
		c-0.634,0.115-1.253,0.285-1.85,0.498l-1.492-2.583l-3.614,2.088l1.488,2.579c-0.487,0.416-0.941,0.867-1.357,1.357l-2.578-1.49
		l-2.087,3.617l2.582,1.49c-0.212,0.598-0.382,1.215-0.499,1.852h-2.979v4.174l2.98,0.002c0.116,0.637,0.287,1.254,0.498,1.852
		l-2.582,1.49L30.686,44.568z M42.178,31.628c2.151,0,3.897,1.744,3.897,3.896c0,2.15-1.746,3.896-3.897,3.896
		c-2.148,0-3.896-1.745-3.896-3.896C38.282,33.372,40.029,31.628,42.178,31.628z"/>
	<path fill="#231F20" d="M66.604,41.393l5.153,3.237L58.903,62.089l-9.803-9.475L29.839,77.042
		c-1.197,1.518-0.937,3.718,0.581,4.915c0.642,0.506,1.406,0.752,2.165,0.752c1.034,0,2.06-0.457,2.75-1.333l14.469-18.348
		l9.99,9.657l17.907-24.322l5.778,3.631l0.744-19.914L66.604,41.393z"/>
</g>
</svg>
