<?xml version="1.0" encoding="utf-8"?>
<!-- Generator: Adobe Illustrator 16.0.0, SVG Export Plug-In . SVG Version: 6.00 Build 0)  -->
<!DOCTYPE svg PUBLIC "-//W3C//DTD SVG 1.1//EN" "http://www.w3.org/Graphics/SVG/1.1/DTD/svg11.dtd">
<svg version="1.1" id="Ebene_1" xmlns="http://www.w3.org/2000/svg" xmlns:xlink="http://www.w3.org/1999/xlink" x="0px" y="0px"
	 width="100px" height="100px" viewBox="0 0 100 100" enable-background="new 0 0 100 100" xml:space="preserve">
<circle fill="#B2B2B2" cx="50" cy="50" r="50"/>
<g>
	<path fill-rule="evenodd" clip-rule="evenodd" fill="#231F20" d="M80.828,48.215c0-0.352-0.007-0.708-0.064-1.054
		c-0.585-3.469-3.348-5.794-6.869-5.794c-3.982,0-7.964-0.002-11.945,0.004c-0.439,0-0.881,0.027-1.317,0.08
		c-3.054,0.368-5.644,3.12-5.755,6.204c-0.072,2.01-0.024,4.025-0.032,6.038c-0.001,0.17-0.015,0.342-0.022,0.508
		c-3.232,0-6.414,0-9.638,0c0-0.203,0-0.376,0-0.549c0-1.822,0.008-3.644-0.002-5.466c-0.021-3.701-2.98-6.785-6.587-6.81
		c-4.275-0.03-8.551-0.027-12.827,0c-3.561,0.022-6.594,3.099-6.597,6.659c-0.006,9.55-0.002,19.1-0.001,28.651
		c0,0.155,0.016,0.31,0.024,0.459c8.684,0,17.315,0,26.007,0c0-4.74,0-9.446,0-14.188c0.221,0,0.381,0,0.542,0
		c2.851,0,5.701,0.01,8.552-0.011c0.447-0.003,0.563,0.119,0.562,0.566c-0.018,4.349-0.011,8.698-0.011,13.047
		c0,0.188,0,0.375,0,0.591c8.7,0,17.318,0,25.984,0c0-0.201,0-0.374,0-0.546C80.83,67.14,80.831,57.678,80.828,48.215z"/>
	<path fill-rule="evenodd" clip-rule="evenodd" fill="#231F20" d="M32.188,37.591c4.046-0.007,7.348-3.306,7.354-7.349
		c0.007-4.058-3.311-7.385-7.367-7.389c-4.12-0.003-7.369,3.311-7.363,7.512C24.818,34.317,28.166,37.598,32.188,37.591z"/>
	<path fill-rule="evenodd" clip-rule="evenodd" fill="#231F20" d="M67.84,37.591c4.064-0.002,7.346-3.277,7.349-7.333
		c0.003-4.101-3.252-7.389-7.327-7.405c-4.063-0.016-7.371,3.287-7.373,7.363C60.486,34.306,63.763,37.593,67.84,37.591z"/>
</g>
</svg>
