<?xml version="1.0" encoding="utf-8"?>
<!-- Generator: Adobe Illustrator 16.0.0, SVG Export Plug-In . SVG Version: 6.00 Build 0)  -->
<!DOCTYPE svg PUBLIC "-//W3C//DTD SVG 1.1//EN" "http://www.w3.org/Graphics/SVG/1.1/DTD/svg11.dtd">
<svg version="1.1" id="Ebene_1" xmlns="http://www.w3.org/2000/svg" xmlns:xlink="http://www.w3.org/1999/xlink" x="0px" y="0px"
	 width="100px" height="100px" viewBox="0 0 100 100" enable-background="new 0 0 100 100" xml:space="preserve">
<circle fill="#B2B2B2" cx="50" cy="50" r="50"/>
<path fill="#231F20" d="M77.291,23.018c-2.156-2.137-5.639-2.12-7.777,0.037L52.467,40.264c-0.398-0.104-0.797-0.21-1.194-0.314
	c-0.428-0.113-0.854-0.225-1.28-0.343c-0.521-0.144-1.037-0.302-1.559-0.438c-0.902-0.238-1.809-0.456-2.711-0.696
	c-1.225-0.325-2.442-0.673-3.666-0.997c-0.921-0.243-1.848-0.459-2.77-0.697c-1.426-0.369-2.852-0.748-4.277-1.125
	c-0.416-0.111-0.833-0.225-1.249-0.34c-0.548-0.152-1.095-0.311-1.644-0.457c-0.551-0.146-1.105-0.273-1.657-0.42
	c-0.912-0.242-1.82-0.498-2.733-0.736c-0.865-0.227-1.734-0.433-2.599-0.658c-0.446-0.115-0.893-0.234-1.327-0.387
	c-0.293-0.103-0.521-0.089-0.749,0.141c-1.019,1.028-2.042,2.052-3.073,3.066c-0.65,0.643-1.318,1.266-1.969,1.906
	c-0.039,0.037-0.022,0.215,0.02,0.24c0.537,0.307,1.078,0.604,1.625,0.893c0.642,0.339,1.291,0.664,1.932,1.005
	c0.607,0.321,1.205,0.661,1.812,0.98c1.033,0.544,2.071,1.079,3.107,1.62c0.443,0.23,0.883,0.468,1.326,0.699
	c0.635,0.332,1.271,0.66,1.905,0.993c0.65,0.343,1.298,0.694,1.949,1.038c0.642,0.338,1.288,0.67,1.929,1.008
	c0.79,0.417,1.578,0.838,2.367,1.256c0.658,0.35,1.316,0.701,1.978,1.047c0.642,0.338,1.288,0.669,1.933,1.004
	c0.608,0.316,1.219,0.629,1.824,0.951c0.133,0.07,0.266,0.141,0.398,0.213L31.563,61.366c-0.179,0.18-0.319,0.381-0.468,0.577
	c-0.863-0.106-1.727-0.209-2.59-0.315c-0.818-0.101-1.643-0.167-2.455-0.306c-0.449-0.076-0.766,0.02-1.082,0.343
	c-1.135,1.161-2.291,2.305-3.443,3.45c-0.375,0.372-0.332,0.576,0.163,0.785c0.263,0.109,0.515,0.244,0.765,0.379
	c0.622,0.336,1.237,0.684,1.862,1.014c0.659,0.346,1.33,0.672,1.991,1.016c0.66,0.346,1.313,0.704,1.971,1.053
	c0.643,0.341,1.281,0.688,1.932,1.014c0.305,0.152,0.46,0.413,0.605,0.693c0.34,0.65,0.681,1.304,1.018,1.957
	c0.248,0.479,0.49,0.959,0.738,1.437c0.312,0.601,0.627,1.198,0.944,1.796c0.345,0.65,0.695,1.297,1.043,1.945
	c0.255,0.475,0.495,0.959,0.768,1.424c0.168,0.283,0.271,0.277,0.501,0.045c1.242-1.25,2.482-2.501,3.73-3.745
	c0.17-0.169,0.24-0.348,0.213-0.581c-0.125-1.053-0.244-2.109-0.37-3.164c-0.11-0.938-0.226-1.874-0.341-2.812
	c0.105-0.091,0.221-0.163,0.319-0.263l10.648-10.75c0.306,0.579,0.611,1.158,0.913,1.739c0.226,0.435,0.432,0.88,0.658,1.315
	c0.447,0.86,0.904,1.717,1.355,2.575c0.434,0.825,0.868,1.649,1.299,2.476c0.318,0.608,0.631,1.219,0.945,1.83
	c0.346,0.67,0.689,1.342,1.036,2.014c0.243,0.469,0.491,0.936,0.732,1.406c0.242,0.471,0.476,0.947,0.722,1.416
	c0.41,0.781,0.833,1.557,1.239,2.34c0.433,0.836,0.847,1.682,1.278,2.519c0.327,0.636,0.674,1.262,1.004,1.896
	c0.475,0.914,0.939,1.832,1.414,2.746c0.144,0.275,0.286,0.297,0.501,0.082c1.622-1.623,3.241-3.248,4.866-4.867
	c0.188-0.189,0.251-0.396,0.184-0.643c-0.076-0.285-0.176-0.562-0.248-0.85c-0.234-0.922-0.455-1.848-0.692-2.77
	c-0.233-0.902-0.489-1.8-0.72-2.703c-0.24-0.941-0.453-1.891-0.697-2.832c-0.327-1.264-0.675-2.521-1.013-3.783
	c-0.106-0.397-0.214-0.795-0.312-1.195c-0.234-0.942-0.457-1.888-0.7-2.828c-0.23-0.894-0.481-1.781-0.72-2.672
	c-0.108-0.408-0.212-0.818-0.313-1.229c-0.233-0.934-0.457-1.869-0.697-2.803c-0.232-0.902-0.48-1.803-0.723-2.703
	c-0.098-0.371-0.202-0.739-0.295-1.11c-0.141-0.562-0.272-1.126-0.41-1.688c-0.025-0.104-0.049-0.208-0.072-0.312l16.768-16.927
	C79.466,28.638,79.449,25.155,77.291,23.018z"/>
</svg>
