<?xml version="1.0" encoding="utf-8"?>
<!-- Generator: Adobe Illustrator 16.0.0, SVG Export Plug-In . SVG Version: 6.00 Build 0)  -->
<!DOCTYPE svg PUBLIC "-//W3C//DTD SVG 1.1//EN" "http://www.w3.org/Graphics/SVG/1.1/DTD/svg11.dtd">
<svg version="1.1" id="Ebene_1" xmlns="http://www.w3.org/2000/svg" xmlns:xlink="http://www.w3.org/1999/xlink" x="0px" y="0px"
	 width="100px" height="100px" viewBox="0 0 100 100" enable-background="new 0 0 100 100" xml:space="preserve">
<circle fill="#B2B2B2" cx="50" cy="50" r="50"/>
<g>
	<path fill="#231F20" d="M39.121,36.115c0-2.078-1.686-3.764-3.764-3.764h-6.899c-2.078,0-3.764,1.686-3.764,3.764v6.182h14.427
		V36.115z"/>
	<circle fill="#231F20" cx="31.906" cy="26.139" r="4.077"/>
	<path fill="#231F20" d="M57.214,36.115c0-2.078-1.685-3.764-3.764-3.764h-6.899c-2.078,0-3.764,1.686-3.764,3.764v6.182h14.427
		V36.115z"/>
	<circle fill="#231F20" cx="50" cy="26.139" r="4.077"/>
	<path fill="#231F20" d="M75.307,36.115c0-2.078-1.686-3.764-3.764-3.764h-6.898c-2.079,0-3.764,1.686-3.764,3.764v6.182h14.426
		V36.115z"/>
	<circle fill="#231F20" cx="68.094" cy="26.139" r="4.077"/>
	<path fill="#231F20" d="M19.221,44.861v24.623h6.687c0-4.492,3.655-8.148,8.147-8.148c4.494,0,8.149,3.656,8.149,8.148h15.593
		c0-4.492,3.656-8.148,8.148-8.148c4.494,0,8.148,3.656,8.148,8.148h6.686V44.861H19.221z"/>
	<circle fill="#231F20" cx="34.055" cy="69.484" r="5.641"/>
	<circle fill="#231F20" cx="65.945" cy="69.484" r="5.641"/>
</g>
</svg>
