<?xml version="1.0" encoding="utf-8"?>
<!-- Generator: Adobe Illustrator 16.0.0, SVG Export Plug-In . SVG Version: 6.00 Build 0)  -->
<!DOCTYPE svg PUBLIC "-//W3C//DTD SVG 1.1//EN" "http://www.w3.org/Graphics/SVG/1.1/DTD/svg11.dtd">
<svg version="1.1" id="Ebene_1" xmlns="http://www.w3.org/2000/svg" xmlns:xlink="http://www.w3.org/1999/xlink" x="0px" y="0px"
	 width="100px" height="100px" viewBox="0 0 100 100" enable-background="new 0 0 100 100" xml:space="preserve">
<circle fill="#B2B2B2" cx="50" cy="50" r="50"/>
<g>
	<path fill-rule="evenodd" clip-rule="evenodd" fill="#231F20" d="M19.222,46.26c0,8.235,0,16.426,0,24.605
		c0.049,0.021,0.072,0.039,0.095,0.039c2.121,0.005,4.241,0.008,6.361,0.014c0.216,0.002,0.248-0.113,0.259-0.295
		c0.02-0.35,0.039-0.703,0.101-1.047c0.812-4.59,5.052-7.51,9.633-6.641c3.55,0.674,6.372,3.941,6.475,7.521
		c0.012,0.389,0.145,0.47,0.504,0.469c3.591-0.012,7.182-0.008,10.772-0.008c1.313,0,2.628-0.009,3.941,0.007
		c0.335,0.004,0.498-0.058,0.485-0.44c-0.013-0.348,0.043-0.701,0.103-1.045c0.657-3.808,4.069-6.657,7.97-6.665
		c3.912-0.008,7.337,2.823,8,6.62c0.086,0.494,0.132,0.996,0.195,1.488c2.234,0,4.449,0,6.664,0c0-8.223,0-16.412,0-24.623
		C60.252,46.26,39.755,46.26,19.222,46.26z"/>
	<path fill-rule="evenodd" clip-rule="evenodd" fill="#231F20" d="M60.862,43.702c0.15,0.013,0.227,0.025,0.303,0.025
		c4.603,0.001,9.205-0.001,13.808,0.007c0.302,0,0.369-0.107,0.368-0.386c-0.01-1.924-0.004-3.848-0.006-5.772
		c-0.002-2.18-1.672-3.844-3.858-3.845c-2.262,0-4.524-0.001-6.786,0c-2.172,0.001-3.824,1.652-3.827,3.825
		c-0.003,1.898-0.001,3.796-0.001,5.694C60.862,43.389,60.862,43.529,60.862,43.702z"/>
	<path fill-rule="evenodd" clip-rule="evenodd" fill="#231F20" d="M42.791,43.702c4.817,0,9.606,0,14.423,0
		c0.008-0.15,0.02-0.277,0.02-0.403c0.002-1.938,0.007-3.875-0.001-5.812c-0.008-2.087-1.691-3.754-3.784-3.756
		c-2.302-0.002-4.604-0.002-6.904,0c-2.097,0.002-3.772,1.669-3.776,3.758c-0.003,1.938,0.001,3.875,0.003,5.812
		C42.771,43.427,42.783,43.554,42.791,43.702z"/>
	<path fill-rule="evenodd" clip-rule="evenodd" fill="#231F20" d="M24.66,43.698c4.854,0,9.645,0,14.445,0
		c0.014-0.09,0.033-0.152,0.033-0.215c-0.001-2.042,0.038-4.085-0.019-6.125c-0.058-2.087-1.725-3.627-3.821-3.628
		c-2.263-0.001-4.526,0-6.789,0c-2.188,0.001-3.845,1.657-3.85,3.853c-0.003,1.743,0,3.485,0,5.228
		C24.66,43.095,24.66,43.379,24.66,43.698z"/>
	<path fill-rule="evenodd" clip-rule="evenodd" fill="#231F20" d="M65.946,65.24c-3.136,0-5.666,2.508-5.683,5.631
		c-0.016,3.119,2.548,5.694,5.675,5.702c3.101,0.008,5.658-2.53,5.659-5.616C71.599,67.734,69.134,65.24,65.946,65.24z"/>
	<path fill-rule="evenodd" clip-rule="evenodd" fill="#231F20" d="M34.128,65.24c-3.226-0.004-5.732,2.457-5.738,5.635
		c-0.006,3.154,2.521,5.697,5.659,5.698c3.108,0.001,5.665-2.549,5.674-5.659C39.732,67.801,37.212,65.244,34.128,65.24z"/>
	<path fill-rule="evenodd" clip-rule="evenodd" fill="#231F20" d="M31.891,31.637c2.294,0.002,4.114-1.816,4.111-4.106
		c-0.002-2.254-1.841-4.098-4.094-4.104c-2.246-0.006-4.11,1.843-4.117,4.086C27.784,29.802,29.606,31.636,31.891,31.637z"/>
	<path fill-rule="evenodd" clip-rule="evenodd" fill="#231F20" d="M49.976,31.637c2.294,0.001,4.129-1.819,4.128-4.095
		c-0.002-2.269-1.867-4.13-4.127-4.115c-2.256,0.015-4.086,1.858-4.084,4.114C45.894,29.813,47.711,31.636,49.976,31.637z"/>
	<path fill-rule="evenodd" clip-rule="evenodd" fill="#231F20" d="M68.067,31.637c2.301,0.003,4.126-1.805,4.129-4.089
		c0.003-2.272-1.854-4.132-4.116-4.122c-2.247,0.011-4.075,1.835-4.078,4.069C63.999,29.819,65.781,31.635,68.067,31.637z"/>
</g>
</svg>
