<?xml version="1.0" encoding="utf-8"?>
<!-- Generator: Adobe Illustrator 16.0.0, SVG Export Plug-In . SVG Version: 6.00 Build 0)  -->
<!DOCTYPE svg PUBLIC "-//W3C//DTD SVG 1.1//EN" "http://www.w3.org/Graphics/SVG/1.1/DTD/svg11.dtd">
<svg version="1.1" id="Ebene_1" xmlns="http://www.w3.org/2000/svg" xmlns:xlink="http://www.w3.org/1999/xlink" x="0px" y="0px"
	 width="100px" height="100px" viewBox="0 0 100 100" enable-background="new 0 0 100 100" xml:space="preserve">
<circle fill="#B2B2B2" cx="50" cy="50" r="50"/>
<path fill="#231F20" d="M73.729,30.381v-4.997h-5.246v-5.793h-9.995v5.793H41.513v-5.793h-9.995v5.793h-5.247v4.997h5.247v6.062
	h-5.247v4.997h5.247v6.062h-5.247v4.997h5.247v6.062h-5.247v4.998h5.247v6.061h-5.247v4.998h5.247v5.793h9.995v-5.793h16.976v4.608
	h9.995v-4.608h5.246v-4.998h-5.246v-6.061h5.246V58.56h-5.246v-6.062h5.246v-4.997h-5.246v-6.062h5.246v-4.997h-5.246v-6.062H73.729
	z M58.488,69.618H41.513v-6.061h16.976V69.618z M58.488,58.56H41.513v-6.062h16.976V58.56z M58.488,47.501H41.513v-6.062h16.976
	V47.501z M58.488,36.442H41.513v-6.062h16.976V36.442z"/>
</svg>
