<?xml version="1.0" encoding="utf-8"?>
<!-- Generator: Adobe Illustrator 16.0.0, SVG Export Plug-In . SVG Version: 6.00 Build 0)  -->
<!DOCTYPE svg PUBLIC "-//W3C//DTD SVG 1.1//EN" "http://www.w3.org/Graphics/SVG/1.1/DTD/svg11.dtd">
<svg version="1.1" id="Ebene_1" xmlns="http://www.w3.org/2000/svg" xmlns:xlink="http://www.w3.org/1999/xlink" x="0px" y="0px"
	 width="100px" height="100px" viewBox="0 0 100 100" enable-background="new 0 0 100 100" xml:space="preserve">
<circle fill="#B2B2B2" cx="50" cy="50" r="50"/>
<g>
	<path fill-rule="evenodd" clip-rule="evenodd" fill="#231F20" d="M13.206,49.336c0.152,0.19,0.244,0.31,0.341,0.425
		c5.82,6.929,11.642,13.858,17.456,20.792c0.216,0.258,0.432,0.366,0.772,0.366c15.493-0.009,30.987-0.008,46.481-0.008
		c0.175,0,0.351,0,0.537,0c0-7.229,0-14.396,0-21.576C56.938,49.336,35.119,49.336,13.206,49.336z"/>
	<path fill-rule="evenodd" clip-rule="evenodd" fill="#231F20" d="M45.026,45.032c9.044,0,18.043,0,27.078,0
		c0.015-0.111,0.031-0.179,0.031-0.247c0.001-3.275,0.049-6.552-0.013-9.826c-0.062-3.281-2.803-5.877-6.084-5.877
		c-4.982-0.001-9.965-0.001-14.947,0c-3.353,0-6.062,2.704-6.064,6.056c-0.003,3.123-0.001,6.246-0.001,9.368
		C45.026,44.67,45.026,44.834,45.026,45.032z M55.698,34.315c1.958,0.01,3.915,0.006,5.873,0.009c0.053,0,0.106,0.019,0.202,0.037
		c0,1.792,0,3.552,0,5.348c-2.108,0-4.21,0-6.359,0c-0.012-0.1-0.038-0.217-0.038-0.335c-0.003-1.555,0-3.11-0.005-4.665
		C55.371,34.475,55.393,34.313,55.698,34.315z"/>
</g>
</svg>
