<?xml version="1.0" encoding="utf-8"?>
<!-- Generator: Adobe Illustrator 16.0.0, SVG Export Plug-In . SVG Version: 6.00 Build 0)  -->
<!DOCTYPE svg PUBLIC "-//W3C//DTD SVG 1.1//EN" "http://www.w3.org/Graphics/SVG/1.1/DTD/svg11.dtd">
<svg version="1.1" id="Ebene_1" xmlns="http://www.w3.org/2000/svg" xmlns:xlink="http://www.w3.org/1999/xlink" x="0px" y="0px"
	 width="100px" height="100px" viewBox="0 0 100 100" enable-background="new 0 0 100 100" xml:space="preserve">
<circle fill="#B2B2B2" cx="108.855" cy="1784.053" r="50"/>
<polygon fill="#231F20" points="138.195,1773.602 119.305,1773.602 119.305,1754.711 98.404,1754.711 98.404,1773.602 
	79.516,1773.602 79.516,1794.502 98.404,1794.502 98.404,1813.393 119.305,1813.393 119.305,1794.502 138.195,1794.502 "/>
<circle fill="#B2B2B2" cx="50" cy="50" r="50"/>
<path fill-rule="evenodd" clip-rule="evenodd" fill="#231F20" d="M50.061,21.488c0,5.568,0,11.046,0,16.642
	c8.086-5.568,16.103-11.09,24.179-16.651c0,17.706,0,35.334,0,53.007c-0.152,0.01-0.303,0.025-0.454,0.025
	c-15.837,0-31.674-0.002-47.511,0.01c-0.432,0-0.514-0.145-0.514-0.541c0.01-11.787,0.01-23.575,0-35.363
	c0-0.328,0.115-0.516,0.378-0.695c7.836-5.387,15.667-10.781,23.499-16.174C49.751,21.669,49.872,21.603,50.061,21.488z
	 M47.374,70.499c0-0.206,0-0.375,0-0.543c0-4.163,0.002-8.325-0.004-12.488c0-0.275,0.035-0.453,0.335-0.596
	c1.89-0.896,2.902-2.395,2.954-4.498c0.029-1.143,0.014-2.288,0-3.432c-0.004-0.355-0.039-0.717-0.111-1.063
	c-0.508-2.403-2.695-4.013-5.244-3.872c-2.312,0.127-4.337,2.047-4.517,4.403c-0.104,1.38-0.11,2.774-0.042,4.157
	c0.095,1.941,1.066,3.381,2.817,4.239c0.379,0.187,0.47,0.396,0.468,0.78c-0.011,4.105-0.007,8.211-0.006,12.315
	c0,0.194,0.02,0.388,0.029,0.597C45.167,70.499,46.236,70.499,47.374,70.499z M52.925,44.012c0,8.858,0,17.671,0,26.47
	c1.119,0,2.197,0,3.27,0c0-8.84,0-17.643,0-26.47C55.094,44.012,54.026,44.012,52.925,44.012z"/>
</svg>
