<?xml version="1.0" encoding="utf-8"?>
<!-- Generator: Adobe Illustrator 16.0.0, SVG Export Plug-In . SVG Version: 6.00 Build 0)  -->
<!DOCTYPE svg PUBLIC "-//W3C//DTD SVG 1.1//EN" "http://www.w3.org/Graphics/SVG/1.1/DTD/svg11.dtd">
<svg version="1.1" id="Ebene_1" xmlns="http://www.w3.org/2000/svg" xmlns:xlink="http://www.w3.org/1999/xlink" x="0px" y="0px"
	 width="100px" height="100px" viewBox="0 0 100 100" enable-background="new 0 0 100 100" xml:space="preserve">
<circle fill="#B2B2B2" cx="108.855" cy="1784.053" r="50"/>
<polygon fill="#231F20" points="138.195,1773.602 119.305,1773.602 119.305,1754.711 98.404,1754.711 98.404,1773.602 
	79.516,1773.602 79.516,1794.502 98.404,1794.502 98.404,1813.393 119.305,1813.393 119.305,1794.502 138.195,1794.502 "/>
<circle fill="#B2B2B2" cx="50" cy="50" r="50"/>
<g>
	<path fill-rule="evenodd" clip-rule="evenodd" fill="#231F20" d="M73.87,57.314c-0.001-0.648-0.095-1.312-0.247-1.945
		c-1.069-4.414-4.89-7.413-9.425-7.416c-5.817-0.003-11.636-0.003-17.455,0.003c-0.548,0.003-1.097,0.04-1.642,0.111
		c-4.516,0.585-8.171,4.745-8.172,9.294c-0.003,6.84-0.001,13.68-0.001,20.521c0,0.182,0,0.361,0,0.581c12.352,0,24.633,0,36.952,0
		c0-0.189,0-0.339,0-0.49C73.881,71.088,73.889,64.201,73.87,57.314z"/>
	<path fill-rule="evenodd" clip-rule="evenodd" fill="#231F20" d="M48.095,39.564c2.181,2.12,4.822,3.081,7.86,2.959
		c5.132-0.203,10.005-4.538,9.957-10.745c0.97,0,1.939,0,2.938,0c0.021-0.473,0.062-0.898,0.059-1.323
		c-0.009-1.446,0.124-2.915-0.078-4.334c-1.012-7.052-7.419-11.948-14.474-11.147c-5.351,0.607-9.738,4.318-11.197,9.515
		c-0.257,0.917-0.378,1.872-0.572,2.861c-0.852,0-1.745,0-2.681,0c0,1.518,0,2.957,0,4.442c1.682,0,3.324,0,5.012,0
		C44.933,34.836,45.924,37.456,48.095,39.564z"/>
	<path fill-rule="evenodd" clip-rule="evenodd" fill="#231F20" d="M32.805,29.925c-0.562,0.031-1.13,0.008-1.693,0.008
		c-0.467,0-0.934,0-1.454,0c0,9.781,0,19.483,0,29.23c-1.046,0-2.036,0.017-3.024-0.01c-0.402-0.012-0.517,0.108-0.516,0.514
		c0.013,6.105,0.014,12.214-0.001,18.319c-0.003,0.442,0.149,0.527,0.55,0.524c1.969-0.017,3.939-0.007,5.908-0.007
		c0.686,0,0.686,0,0.686-0.696c0-15.727,0-31.451,0-47.176c0-0.077-0.008-0.154,0.001-0.229
		C33.303,30.058,33.185,29.905,32.805,29.925z"/>
</g>
</svg>
