<?xml version="1.0" encoding="utf-8"?>
<!-- Generator: Adobe Illustrator 16.0.0, SVG Export Plug-In . SVG Version: 6.00 Build 0)  -->
<!DOCTYPE svg PUBLIC "-//W3C//DTD SVG 1.1//EN" "http://www.w3.org/Graphics/SVG/1.1/DTD/svg11.dtd">
<svg version="1.1" id="Ebene_1" xmlns="http://www.w3.org/2000/svg" xmlns:xlink="http://www.w3.org/1999/xlink" x="0px" y="0px"
	 width="100px" height="100px" viewBox="0 0 100 100" enable-background="new 0 0 100 100" xml:space="preserve">
<circle fill="#B2B2B2" cx="108.855" cy="1784.053" r="50"/>
<polygon fill="#231F20" points="138.195,1773.602 119.305,1773.602 119.305,1754.711 98.404,1754.711 98.404,1773.602 
	79.516,1773.602 79.516,1794.502 98.404,1794.502 98.404,1813.393 119.305,1813.393 119.305,1794.502 138.195,1794.502 "/>
<circle fill="#B2B2B2" cx="50" cy="50" r="50"/>
<path fill-rule="evenodd" clip-rule="evenodd" fill="#231F20" d="M37.761,45.098c-1.191,0-2.362,0-3.534,0
	c-0.716,0-1.433,0.016-2.147-0.014c-0.147-0.006-0.367-0.152-0.419-0.286c-0.653-1.705-1.272-3.422-1.926-5.127
	c-0.128-0.334,0.063-0.429,0.265-0.569c4.694-3.253,9.388-6.507,14.08-9.761c0.776-0.538,1.561-1.065,2.323-1.622
	c0.272-0.199,0.518-0.237,0.842-0.156c2.184,0.548,4.373,1.071,6.558,1.617c0.269,0.067,0.439,0.026,0.642-0.168
	c3.385-3.27,6.777-6.531,10.169-9.793c0.218-0.209,0.44-0.414,0.695-0.654c1.668,1.574,3.313,3.127,5,4.719
	c-0.662,0.625-1.299,1.229-1.938,1.83c-0.933,0.875-1.876,1.74-2.793,2.631c-0.169,0.164-0.305,0.427-0.334,0.659
	c-0.244,1.917-0.463,3.838-0.678,5.759c-0.041,0.369-0.182,0.628-0.486,0.866c-3.925,3.067-7.834,6.154-11.759,9.221
	c-0.324,0.253-0.417,0.469-0.201,0.825c0.108,0.18,0.183,0.386,0.248,0.588c0.86,2.648,2.639,4.745,4.196,6.97
	c3.188,4.555,6.397,9.094,9.605,13.634c0.174,0.246,0.224,0.452,0.118,0.747c-1.172,3.28-2.334,6.564-3.482,9.853
	c-0.115,0.329-0.289,0.472-0.624,0.553c-5.501,1.329-10.997,2.675-16.498,4c-0.184,0.045-0.462-0.021-0.604-0.143
	c-1.342-1.148-2.658-2.328-3.997-3.48c-0.24-0.206-0.259-0.398-0.187-0.674c0.896-3.413,1.78-6.829,2.683-10.241
	c0.089-0.337,0.063-0.587-0.15-0.879c-1.367-1.868-2.724-3.745-4.055-5.639c-0.247-0.352-0.509-0.4-0.884-0.352
	c-1.071,0.139-2.147,0.242-3.219,0.386c-0.263,0.034-0.385-0.03-0.482-0.271c-0.525-1.297-1.055-2.594-1.606-3.88
	c-0.126-0.292,0.001-0.403,0.209-0.546c1.443-0.992,2.878-1.995,4.324-2.982c0.233-0.16,0.358-0.319,0.347-0.625
	c-0.084-2.206-0.148-4.413-0.224-6.619C37.832,45.36,37.791,45.245,37.761,45.098z"/>
</svg>
