<?xml version="1.0" encoding="utf-8"?>
<!-- Generator: Adobe Illustrator 16.0.0, SVG Export Plug-In . SVG Version: 6.00 Build 0)  -->
<!DOCTYPE svg PUBLIC "-//W3C//DTD SVG 1.1//EN" "http://www.w3.org/Graphics/SVG/1.1/DTD/svg11.dtd">
<svg version="1.1" id="Ebene_1" xmlns="http://www.w3.org/2000/svg" xmlns:xlink="http://www.w3.org/1999/xlink" x="0px" y="0px"
	 width="100px" height="100px" viewBox="0 0 100 100" enable-background="new 0 0 100 100" xml:space="preserve">
<circle fill="#B2B2B2" cx="108.855" cy="1784.053" r="50"/>
<polygon fill="#231F20" points="138.195,1773.602 119.305,1773.602 119.305,1754.711 98.404,1754.711 98.404,1773.602 
	79.516,1773.602 79.516,1794.502 98.404,1794.502 98.404,1813.393 119.305,1813.393 119.305,1794.502 138.195,1794.502 "/>
<circle fill="#B2B2B2" cx="50" cy="50" r="50"/>
<path fill="#231F20" d="M69.083,36.899c-5.831-0.096-10.84,3.553-12.771,8.722c-1.953-0.851-4.057-1.313-6.22-1.351
	c-2.164-0.035-4.279,0.359-6.26,1.146c-1.762-5.229-6.648-9.038-12.48-9.134c-7.403-0.12-13.506,5.784-13.627,13.19
	c-0.119,7.404,5.785,13.506,13.189,13.627c7.406,0.119,13.507-5.785,13.628-13.19c0.005-0.312-0.017-0.618-0.03-0.925
	c1.725-0.795,3.6-1.197,5.521-1.166c1.924,0.031,3.784,0.494,5.481,1.346c-0.024,0.307-0.057,0.611-0.062,0.923
	c-0.12,7.405,5.784,13.507,13.188,13.627c7.405,0.121,13.508-5.784,13.629-13.188C82.395,43.121,76.488,37.019,69.083,36.899z"/>
</svg>
