<?xml version="1.0" encoding="utf-8"?>
<!-- Generator: Adobe Illustrator 16.0.0, SVG Export Plug-In . SVG Version: 6.00 Build 0)  -->
<!DOCTYPE svg PUBLIC "-//W3C//DTD SVG 1.1//EN" "http://www.w3.org/Graphics/SVG/1.1/DTD/svg11.dtd">
<svg version="1.1" id="Ebene_1" xmlns="http://www.w3.org/2000/svg" xmlns:xlink="http://www.w3.org/1999/xlink" x="0px" y="0px"
	 width="100px" height="100px" viewBox="0 0 100 100" enable-background="new 0 0 100 100" xml:space="preserve">
<circle fill="#B2B2B2" cx="50" cy="50" r="50"/>
<g>
	<path fill="#231F20" d="M32.63,53.63c0.956-2.505,0.431-5.446-1.587-7.464v-0.001c0,0-3.03-4.023-16.338-6.419
		c2.396,13.307,6.42,16.336,6.42,16.336c2.019,2.019,4.96,2.546,7.465,1.588l5.344,5.345l4.04-4.041L32.63,53.63z"/>
	<path fill="#231F20" d="M40.5,61.5l-4.04,4.042L53.309,82.39c1.115,1.115,2.925,1.115,4.041,0c1.115-1.115,1.115-2.925,0-4.04
		L40.5,61.5z"/>
	<path fill="#231F20" d="M69.149,20.568H50.16c-4.328,0-7.837,3.509-7.837,7.837v18.989c0,4.329,3.509,7.837,7.837,7.837h18.989
		c4.328,0,7.837-3.508,7.837-7.837V28.405C76.986,24.077,73.478,20.568,69.149,20.568z"/>
</g>
</svg>
