<?xml version="1.0" encoding="utf-8"?>
<!-- Generator: Adobe Illustrator 16.0.0, SVG Export Plug-In . SVG Version: 6.00 Build 0)  -->
<!DOCTYPE svg PUBLIC "-//W3C//DTD SVG 1.1//EN" "http://www.w3.org/Graphics/SVG/1.1/DTD/svg11.dtd">
<svg version="1.1" id="Ebene_1" xmlns="http://www.w3.org/2000/svg" xmlns:xlink="http://www.w3.org/1999/xlink" x="0px" y="0px"
	 width="100px" height="100px" viewBox="0 0 100 100" enable-background="new 0 0 100 100" xml:space="preserve">
<circle fill="#B2B2B2" cx="50" cy="50" r="50"/>
<g>
	<path fill="#231F20" d="M72.199,33.615H43.326v-5.367H31.85v5.367h-4.049c-3.806,0-6.891,3.084-6.891,6.889v24.357
		c0,3.805,3.085,6.889,6.891,6.889h44.398c3.805,0,6.891-3.084,6.891-6.889V40.504C79.09,36.699,76.004,33.615,72.199,33.615z
		 M50,64.113c-6.312,0-11.43-5.117-11.43-11.432c0-6.311,5.117-11.43,11.43-11.43s11.43,5.119,11.43,11.43
		C61.43,58.996,56.312,64.113,50,64.113z"/>
	<circle fill="#231F20" cx="50" cy="52.684" r="6.746"/>
</g>
</svg>
