<?xml version="1.0" encoding="utf-8"?>
<!-- Generator: Adobe Illustrator 16.0.0, SVG Export Plug-In . SVG Version: 6.00 Build 0)  -->
<!DOCTYPE svg PUBLIC "-//W3C//DTD SVG 1.1//EN" "http://www.w3.org/Graphics/SVG/1.1/DTD/svg11.dtd">
<svg version="1.1" id="Ebene_1" xmlns="http://www.w3.org/2000/svg" xmlns:xlink="http://www.w3.org/1999/xlink" x="0px" y="0px"
	 width="100px" height="100px" viewBox="0 0 100 100" enable-background="new 0 0 100 100" xml:space="preserve">
<circle fill="#B2B2B2" cx="108.855" cy="1784.052" r="50"/>
<polygon fill="#231F20" points="138.195,1773.602 119.305,1773.602 119.305,1754.711 98.404,1754.711 98.404,1773.602 
	79.516,1773.602 79.516,1794.502 98.404,1794.502 98.404,1813.392 119.305,1813.392 119.305,1794.502 138.195,1794.502 "/>
<circle fill="#B2B2B2" cx="50.312" cy="49.714" r="50"/>
<path fill="#231F20" d="M50.312,20.812c-15.962,0-28.902,12.939-28.902,28.902S34.35,78.616,50.312,78.616
	c15.961,0,28.902-12.939,28.902-28.902S66.273,20.812,50.312,20.812z M35.748,54.547c-2.669,0-4.833-2.164-4.833-4.833
	s2.164-4.833,4.833-4.833c2.669,0,4.833,2.164,4.833,4.833S38.417,54.547,35.748,54.547z M50.312,54.547
	c-2.669,0-4.833-2.164-4.833-4.833s2.164-4.833,4.833-4.833c2.669,0,4.833,2.164,4.833,4.833S52.98,54.547,50.312,54.547z
	 M64.875,54.547c-2.669,0-4.833-2.164-4.833-4.833s2.164-4.833,4.833-4.833c2.67,0,4.833,2.164,4.833,4.833
	S67.545,54.547,64.875,54.547z"/>
</svg>
