<?xml version="1.0" encoding="utf-8"?>
<!-- Generator: Adobe Illustrator 16.0.0, SVG Export Plug-In . SVG Version: 6.00 Build 0)  -->
<!DOCTYPE svg PUBLIC "-//W3C//DTD SVG 1.1//EN" "http://www.w3.org/Graphics/SVG/1.1/DTD/svg11.dtd">
<svg version="1.1" id="Ebene_1" xmlns="http://www.w3.org/2000/svg" xmlns:xlink="http://www.w3.org/1999/xlink" x="0px" y="0px"
	 width="100px" height="100px" viewBox="0 0 100 100" enable-background="new 0 0 100 100" xml:space="preserve">
<circle fill="#B2B2B2" cx="50" cy="50" r="50"/>
<path fill="#231F20" d="M50,21.098c-15.963,0-28.902,12.939-28.902,28.902S34.037,78.902,50,78.902
	c15.961,0,28.901-12.939,28.901-28.902S65.961,21.098,50,21.098z M35.436,54.833c-2.67,0-4.833-2.164-4.833-4.833
	s2.163-4.833,4.833-4.833c2.669,0,4.833,2.164,4.833,4.833S38.104,54.833,35.436,54.833z M49.999,54.833
	c-2.669,0-4.833-2.164-4.833-4.833s2.164-4.833,4.833-4.833s4.833,2.164,4.833,4.833S52.668,54.833,49.999,54.833z M64.562,54.833
	c-2.669,0-4.833-2.164-4.833-4.833s2.164-4.833,4.833-4.833c2.67,0,4.833,2.164,4.833,4.833S67.232,54.833,64.562,54.833z"/>
</svg>
