<?xml version="1.0" encoding="utf-8"?>
<!-- Generator: Adobe Illustrator 16.0.0, SVG Export Plug-In . SVG Version: 6.00 Build 0)  -->
<!DOCTYPE svg PUBLIC "-//W3C//DTD SVG 1.1//EN" "http://www.w3.org/Graphics/SVG/1.1/DTD/svg11.dtd">
<svg version="1.1" id="Ebene_1" xmlns="http://www.w3.org/2000/svg" xmlns:xlink="http://www.w3.org/1999/xlink" x="0px" y="0px"
	 width="100px" height="100px" viewBox="0 0 100 100" enable-background="new 0 0 100 100" xml:space="preserve">
<circle fill="#B2B2B2" cx="49.999" cy="50" r="50"/>
<path fill-rule="evenodd" clip-rule="evenodd" fill="#231F20" d="M33.175,69.105c-0.92,0-1.692-0.027-2.463,0.01
	c-0.479,0.021-0.644-0.158-0.582-0.609c0.013-0.086,0.002-0.176,0.002-0.264c0-15.372,0-30.744,0-46.116c0-0.258,0-0.516,0-0.826
	c1.743,0,3.407,0,5.123,0c0-1.625,0-3.2,0-4.816c2.836,0,5.619,0,8.463,0c0,1.59,0,3.164,0,4.775c4.447,0,8.835,0,13.311,0
	c0-1.579,0-3.165,0-4.783c2.857,0,5.627,0,8.477,0c0,1.601,0,3.189,0,4.819c1.48,0,2.883,0,4.345,0
	c0.013,0.245,0.032,0.449,0.032,0.653c0.001,15.496-0.001,30.991,0.013,46.486c0,0.529-0.136,0.715-0.678,0.682
	c-0.751-0.045-1.508-0.01-2.394-0.01c2.229,3.586,4.401,7.082,6.599,10.617c-2.05,1.275-4.06,2.525-6.108,3.801
	c-0.134-0.207-0.251-0.377-0.36-0.553c-2.776-4.463-5.557-8.922-8.318-13.393c-0.226-0.365-0.471-0.482-0.884-0.48
	c-5.171,0.012-10.342,0.012-15.513-0.002c-0.419,0-0.658,0.129-0.881,0.49c-2.772,4.484-5.562,8.959-8.349,13.438
	c-0.092,0.146-0.189,0.291-0.325,0.498c-2.024-1.258-4.031-2.506-6.107-3.797C28.764,76.205,30.935,72.711,33.175,69.105z
	 M60.564,47.727c0-5.74,0-11.441,0-17.152c-7.07,0-14.096,0-21.131,0c0,5.74,0,11.44,0,17.152
	C46.509,47.727,53.534,47.727,60.564,47.727z M63.776,58.592c-0.001-2.659-2.123-4.77-4.793-4.768
	c-2.639,0.004-4.803,2.172-4.79,4.801c0.012,2.621,2.202,4.793,4.823,4.783C61.665,63.398,63.777,61.262,63.776,58.592z
	 M36.216,58.623c0.012,2.654,2.166,4.799,4.81,4.785c2.601-0.012,4.764-2.182,4.773-4.789c0.011-2.65-2.172-4.805-4.855-4.795
	C38.322,53.836,36.204,55.984,36.216,58.623z"/>
</svg>
