<?xml version="1.0" encoding="utf-8"?>
<!-- Generator: Adobe Illustrator 16.0.0, SVG Export Plug-In . SVG Version: 6.00 Build 0)  -->
<!DOCTYPE svg PUBLIC "-//W3C//DTD SVG 1.1//EN" "http://www.w3.org/Graphics/SVG/1.1/DTD/svg11.dtd">
<svg version="1.1" id="Ebene_1" xmlns="http://www.w3.org/2000/svg" xmlns:xlink="http://www.w3.org/1999/xlink" x="0px" y="0px"
	 width="100px" height="100px" viewBox="0 0 100 100" enable-background="new 0 0 100 100" xml:space="preserve">
<circle fill="#B2B2B2" cx="50" cy="50" r="50"/>
<path fill="#231F20" d="M21.164,28.248V71.75h57.672V28.248H21.164z M30.744,67.331h-5.612v-5.338h5.612V67.331z M30.744,59.85
	h-5.612v-5.338h5.612V59.85z M30.744,52.369h-5.612V47.03h5.612V52.369z M30.744,44.888h-5.612V39.55h5.612V44.888z M30.744,37.406
	h-5.612v-5.338h5.612V37.406z M74.869,67.331h-5.612v-5.338h5.612V67.331z M74.869,59.85h-5.612v-5.338h5.612V59.85z M74.869,52.369
	h-5.612V47.03h5.612V52.369z M74.869,44.888h-5.612V39.55h5.612V44.888z M74.869,37.406h-5.612v-5.338h5.612V37.406z"/>
</svg>
