<?xml version="1.0" encoding="utf-8"?>
<!-- Generator: Adobe Illustrator 16.0.0, SVG Export Plug-In . SVG Version: 6.00 Build 0)  -->
<!DOCTYPE svg PUBLIC "-//W3C//DTD SVG 1.1//EN" "http://www.w3.org/Graphics/SVG/1.1/DTD/svg11.dtd">
<svg version="1.1" id="Ebene_1" xmlns="http://www.w3.org/2000/svg" xmlns:xlink="http://www.w3.org/1999/xlink" x="0px" y="0px"
	 width="100px" height="100px" viewBox="0 0 100 100" enable-background="new 0 0 100 100" xml:space="preserve">
<circle fill="#B2B2B2" cx="50" cy="50" r="50"/>
<path fill="#231F20" d="M77.283,34.776h-6.22c-3.747,0-6.785,3.038-6.785,6.786v4.146H35.722v-4.146
	c0-3.748-3.038-6.786-6.785-6.786h-6.22c-3.747,0-6.786,3.038-6.786,6.786v16.875c0,3.748,3.039,6.786,6.786,6.786h6.22
	c3.747,0,6.785-3.038,6.785-6.786v-4.146h28.557v4.146c0,3.748,3.038,6.786,6.785,6.786h6.22c3.747,0,6.786-3.038,6.786-6.786
	V41.562C84.069,37.814,81.03,34.776,77.283,34.776z"/>
</svg>
