<?xml version="1.0" encoding="utf-8"?>
<!-- Generator: Adobe Illustrator 16.0.0, SVG Export Plug-In . SVG Version: 6.00 Build 0)  -->
<!DOCTYPE svg PUBLIC "-//W3C//DTD SVG 1.1//EN" "http://www.w3.org/Graphics/SVG/1.1/DTD/svg11.dtd">
<svg version="1.1" id="Ebene_1" xmlns="http://www.w3.org/2000/svg" xmlns:xlink="http://www.w3.org/1999/xlink" x="0px" y="0px"
	 width="100px" height="100px" viewBox="0 0 100 100" enable-background="new 0 0 100 100" xml:space="preserve">
<circle fill="#B2B2B2" cx="108.855" cy="1784.051" r="50"/>
<polygon fill="#231F20" points="138.195,1773.601 119.305,1773.601 119.305,1754.71 98.404,1754.71 98.404,1773.601 
	79.516,1773.601 79.516,1794.501 98.404,1794.501 98.404,1813.391 119.305,1813.391 119.305,1794.501 138.195,1794.501 "/>
<circle fill="#B2B2B2" cx="50" cy="50" r="50"/>
<path fill="#231F20" d="M60.047,32.164V19.003H39.954v13.161C30.896,36.062,24.55,45.061,24.55,55.547
	c0,14.056,11.394,25.45,25.45,25.45s25.45-11.395,25.45-25.45C75.45,45.061,69.104,36.062,60.047,32.164z M63.961,60.745h-8.988
	v8.987h-9.945v-8.987h-8.988v-9.946h8.988v-8.988h9.945v8.988h8.988V60.745z"/>
</svg>
