<?xml version="1.0" encoding="utf-8"?>
<!-- Generator: Adobe Illustrator 16.0.0, SVG Export Plug-In . SVG Version: 6.00 Build 0)  -->
<!DOCTYPE svg PUBLIC "-//W3C//DTD SVG 1.1//EN" "http://www.w3.org/Graphics/SVG/1.1/DTD/svg11.dtd">
<svg version="1.1" id="Ebene_1" xmlns="http://www.w3.org/2000/svg" xmlns:xlink="http://www.w3.org/1999/xlink" x="0px" y="0px"
	 width="100px" height="100px" viewBox="0 0 100 100" enable-background="new 0 0 100 100" xml:space="preserve">
<circle fill="#B2B2B2" cx="108.855" cy="1784.053" r="50"/>
<polygon fill="#231F20" points="138.195,1773.602 119.305,1773.602 119.305,1754.711 98.404,1754.711 98.404,1773.602 
	79.516,1773.602 79.516,1794.502 98.404,1794.502 98.404,1813.393 119.305,1813.393 119.305,1794.502 138.195,1794.502 "/>
<circle fill="#B2B2B2" cx="50" cy="50" r="50"/>
<path d="M64.623,24.963c-2.622,0-4.756,2.134-4.756,4.756c0,1.639,0.857,3.154,2.256,4.021v10.417c0,3.93-3.196,7.126-7.126,7.126
	h-4.011c-3.93,0-7.126-3.197-7.126-7.126V33.741c1.398-0.868,2.255-2.383,2.255-4.022c0-2.623-2.133-4.756-4.755-4.756
	s-4.755,2.134-4.755,4.756c0,1.639,0.857,3.154,2.255,4.022v10.416c0,6.519,5.171,11.853,11.632,12.117v11.947
	c0,3.93-3.197,7.127-7.126,7.127h-1.604c-3.929,0-7.126-3.197-7.126-7.127v-8.859c2.178-0.979,3.618-3.178,3.618-5.578
	c0-3.374-2.744-6.118-6.118-6.118s-6.118,2.745-6.118,6.118c0,2.4,1.44,4.6,3.618,5.578v8.859c0,6.687,5.439,12.127,12.126,12.127
	h1.604c6.687,0,12.126-5.44,12.126-12.127V56.273c6.458-0.261,11.631-5.596,11.631-12.117V33.741
	c1.398-0.868,2.255-2.383,2.255-4.022C69.378,27.097,67.245,24.963,64.623,24.963z"/>
</svg>
