<?xml version="1.0" encoding="utf-8"?>
<!-- Generator: Adobe Illustrator 16.0.0, SVG Export Plug-In . SVG Version: 6.00 Build 0)  -->
<!DOCTYPE svg PUBLIC "-//W3C//DTD SVG 1.1//EN" "http://www.w3.org/Graphics/SVG/1.1/DTD/svg11.dtd">
<svg version="1.1" id="Ebene_1" xmlns="http://www.w3.org/2000/svg" xmlns:xlink="http://www.w3.org/1999/xlink" x="0px" y="0px"
	 width="100px" height="100px" viewBox="0 0 100 100" enable-background="new 0 0 100 100" xml:space="preserve">
<circle fill="#B2B2B2" cx="108.855" cy="1784.052" r="50"/>
<polygon fill="#231F20" points="138.195,1773.602 119.305,1773.602 119.305,1754.711 98.404,1754.711 98.404,1773.602 
	79.516,1773.602 79.516,1794.502 98.404,1794.502 98.404,1813.392 119.305,1813.392 119.305,1794.502 138.195,1794.502 "/>
<circle fill="#B2B2B2" cx="49.999" cy="50" r="50"/>
<g>
	<path fill-rule="evenodd" clip-rule="evenodd" fill="#231F20" d="M77.46,63.988c-1.916,0.021-3.833,0.01-5.75,0.006
		c-0.207,0-0.414-0.025-0.665-0.041c0-7.363,0-14.66,0-21.979c-2.838,0-5.627,0-8.489,0c0,7.354,0,14.664,0,21.969
		c-2.81,0-5.545,0-8.328,0c0-7.352,0-14.648,0-21.979c-2.84,0-5.631,0-8.488,0c0,7.344,0,14.654,0,21.984c-2.801,0-5.535,0-8.338,0
		c0-7.355,0-14.668,0-21.973c-2.859,0-5.65,0-8.488,0c0,7.344,0,14.643,0,21.988c-0.256,0.012-0.467,0.029-0.678,0.031
		c-1.898,0.002-3.797,0.016-5.695-0.01c-0.5-0.006-0.646,0.146-0.643,0.645c0.021,2.676,0.021,5.352,0,8.027
		c-0.004,0.502,0.148,0.641,0.645,0.641c18.316-0.012,36.634-0.01,54.951,0c0.463,0,0.623-0.111,0.619-0.604
		c-0.023-2.693-0.025-5.389,0.001-8.082C78.119,64.088,77.934,63.982,77.46,63.988z"/>
	<path fill-rule="evenodd" clip-rule="evenodd" fill="#231F20" d="M78.21,33.762c-4.932-2.415-9.852-4.856-14.773-7.292
		c-4.34-2.147-8.68-4.293-13.014-6.449c-0.305-0.152-0.545-0.157-0.855-0.003c-6.6,3.279-13.205,6.548-19.811,9.818
		c-2.721,1.347-5.441,2.691-8.154,4.05c-0.182,0.092-0.422,0.301-0.43,0.467c-0.045,0.807-0.021,1.619-0.021,2.471
		c19.27,0,38.446,0,57.686,0c0-0.707-0.037-1.375,0.012-2.037C78.888,34.254,78.687,33.996,78.21,33.762z"/>
</g>
</svg>
