<?xml version="1.0" encoding="utf-8"?>
<!-- Generator: Adobe Illustrator 16.0.0, SVG Export Plug-In . SVG Version: 6.00 Build 0)  -->
<!DOCTYPE svg PUBLIC "-//W3C//DTD SVG 1.1//EN" "http://www.w3.org/Graphics/SVG/1.1/DTD/svg11.dtd">
<svg version="1.1" id="Ebene_1" xmlns="http://www.w3.org/2000/svg" xmlns:xlink="http://www.w3.org/1999/xlink" x="0px" y="0px"
	 width="100px" height="100px" viewBox="0 0 100 100" enable-background="new 0 0 100 100" xml:space="preserve">
<circle fill="#B2B2B2" cx="108.855" cy="1784.052" r="50"/>
<polygon fill="#231F20" points="138.195,1773.602 119.305,1773.602 119.305,1754.711 98.404,1754.711 98.404,1773.602 
	79.516,1773.602 79.516,1794.502 98.404,1794.502 98.404,1813.392 119.305,1813.392 119.305,1794.502 138.195,1794.502 "/>
<circle fill="#B2B2B2" cx="50" cy="50" r="50"/>
<g>
	<path fill-rule="evenodd" clip-rule="evenodd" fill="#231F20" d="M40.254,26.519c0,3.395,0,6.756,0,10.158
		c-1.091,0-2.126,0-3.213,0c0,0.188,0,0.336,0,0.484c0,1.082-0.001,2.164,0,3.246c0,0.574,0,0.574,0.589,0.574
		c7.268,0,14.534,0,21.8,0c1.041,0,2.082-0.01,3.121,0.007c0.33,0.005,0.426-0.106,0.422-0.431c-0.018-1.164-0.006-2.33-0.008-3.494
		c-0.002-0.119-0.023-0.238-0.041-0.408c-1.061,0-2.092,0-3.166,0c0-0.232,0-0.41,0-0.588c0-3.037-0.006-6.074,0.006-9.111
		c0.002-0.35-0.076-0.482-0.457-0.479c-1.955,0.019-3.912,0.008-5.867,0.01c-0.131,0-0.264,0.017-0.428,0.027
		c0,3.398,0,6.748,0,10.125c-2.014,0-3.988,0-6.035,0c0-3.385,0-6.757,0-10.121C44.707,26.519,42.509,26.519,40.254,26.519z"/>
	<path fill-rule="evenodd" clip-rule="evenodd" fill="#231F20" d="M79.908,70.367c-0.791,0.011-1.582,0.005-2.373,0.003
		c-0.145,0-0.291-0.016-0.467-0.024c0-0.229,0-0.409,0-0.588c0-3.022-0.008-6.046,0.008-9.069c0.002-0.407-0.123-0.51-0.516-0.506
		c-1.914,0.019-3.828,0.008-5.742,0.009c-0.148,0-0.297,0.013-0.492,0.022c0,3.394,0,6.755,0,10.131c-2.027,0-4.002,0-6.035,0
		c0-3.387,0-6.748,0-10.13c-2.256,0-4.453,0-6.723,0c0,3.403,0,6.755,0,10.161c-1.088,0-2.133,0-3.182,0c0,1.461,0,2.865,0,4.311
		c0.227,0,0.418,0,0.609,0c8.211,0,16.42,0,24.631,0c0.096,0,0.193-0.008,0.291,0.002c0.266,0.024,0.365-0.082,0.363-0.357
		c-0.012-1.206-0.014-2.413,0-3.619C80.283,70.425,80.162,70.364,79.908,70.367z"/>
	<path fill-rule="evenodd" clip-rule="evenodd" fill="#231F20" d="M45.656,70.957c-0.001-0.585-0.001-0.585-0.581-0.586
		c-0.87,0-1.74,0-2.667,0c0-3.409,0-6.771,0-10.154c-2.255,0-4.452,0-6.7,0c0,3.388,0,6.749,0,10.129c-2.026,0-4.002,0-6.035,0
		c0-3.386,0-6.747,0-10.116c-2.266,0-4.474,0-6.725,0c0,3.389,0,6.74,0,10.146c-1.087,0-2.132,0-3.196,0c0,1.453,0,2.849,0,4.311
		c0.228,0,0.405,0,0.584,0c3.73,0,7.462,0,11.192,0c4.536,0,9.071-0.006,13.606,0.01c0.425,0.002,0.543-0.115,0.531-0.535
		C45.636,73.094,45.656,72.024,45.656,70.957z"/>
	<path fill-rule="evenodd" clip-rule="evenodd" fill="#231F20" d="M45.26,56.203c-0.087-0.042-0.172-0.089-0.259-0.132
		c-3.972-1.969-7.944-3.938-11.915-5.909c-0.244-0.122-0.452-0.171-0.73-0.031c-4.092,2.039-8.186,4.074-12.295,6.078
		c-0.521,0.255-0.76,0.528-0.693,1.12c0.06,0.54,0.014,0.547,0.553,0.547c4.258,0,8.516,0,12.773,0c4.217,0,8.433,0,12.649,0
		c0.124,0,0.266,0.035,0.37-0.011c0.12-0.054,0.286-0.171,0.299-0.277C46.131,56.639,46.108,56.613,45.26,56.203z"/>
	<path fill-rule="evenodd" clip-rule="evenodd" fill="#231F20" d="M80.615,56.687c-0.021-0.133-0.264-0.256-0.428-0.336
		c-4.182-2.076-8.367-4.145-12.549-6.223c-0.236-0.118-0.418-0.118-0.652,0.001c-1.262,0.638-2.531,1.259-3.797,1.886
		c-2.955,1.463-5.912,2.924-8.863,4.394c-0.131,0.065-0.295,0.208-0.309,0.329c-0.043,0.354-0.016,0.715-0.016,1.139
		c0.246,0,0.449,0,0.652,0c8.447,0,16.895,0,25.342,0c0.139,0,0.277,0.01,0.414-0.009c0.072-0.01,0.195-0.065,0.197-0.106
		C80.629,57.402,80.67,57.036,80.615,56.687z"/>
	<path fill-rule="evenodd" clip-rule="evenodd" fill="#231F20" d="M37.352,24.171c8.402,0,16.805,0.002,25.207-0.001
		c0.877-0.001,0.748,0.104,0.785-0.772c0.018-0.39-0.119-0.584-0.469-0.756c-4.188-2.059-8.369-4.132-12.546-6.211
		c-0.238-0.119-0.422-0.113-0.654,0.004c-1.113,0.563-2.234,1.109-3.35,1.662c-3.091,1.531-6.182,3.06-9.269,4.598
		c-0.143,0.071-0.328,0.215-0.347,0.346c-0.048,0.351-0.017,0.712-0.017,1.131C36.943,24.171,37.147,24.171,37.352,24.171z"/>
</g>
</svg>
